<svg xmlns="http://www.w3.org/2000/svg" width="1365.333" height="1365.333" preserveAspectRatio="xMidYMid meet" version="1.0" viewBox="0 0 1024 1024"><metadata>Created by potrace 1.11, written by Peter Selinger 2001-2013</metadata><g fill="#000" stroke="none"><path d="M4057 8124 c-1 -1 -33 -5 -72 -8 -62 -6 -193 -25 -280 -41 -183 -34 -460 -132 -655 -233 -240 -124 -442 -272 -641 -471 -312 -313 -534 -689 -654 -1109 -19 -68 -37 -136 -40 -150 -5 -26 -10 -53 -19 -97 -2 -12 -7 -48 -11 -80 -4 -33 -9 -69 -11 -80 -6 -33 -17 -225 -17 -300 0 -138 18 -348 39 -446 5 -25 2 -27 -39 -33 -167 -25 -298 -67 -452 -143 -76 -38 -218 -124 -235 -143 -3 -3 -34 -30 -70 -60 -254 -216 -439 -535 -495 -857 -28 -161 -28 -403 0 -543 95 -481 403 -875 844 -1081 73 -34 231 -91 231 -83 0 2 8 0 17 -5 10 -5 32 -11 48 -14 56 -9 100 -17 130 -23 17 -4 285 -8 598 -9 520 -3 568 -2 576 13 5 10 59 150 120 312 61 162 116 304 121 315 5 11 74 196 155 410 80 215 150 399 155 410 8 17 163 426 310 820 27 72 63 166 80 210 17 44 37 98 45 120 8 22 39 103 69 180 l54 140 376 3 c413 2 382 7 355 -53 -5 -11 -58 -153 -119 -315 -62 -162 -129 -340 -150 -395 -21 -55 -91 -239 -155 -410 -64 -170 -121 -321 -127 -335 -5 -14 -30 -79 -54 -145 -25 -66 -49 -129 -54 -140 -9 -19 -276 -725 -361 -955 -22 -58 -43 -114 -48 -125 -31 -65 -33 -64 88 -63 60 0 113 3 118 7 9 5 84 193 120 296 7 22 18 49 23 60 5 11 36 94 70 185 34 91 65 174 70 185 5 11 80 207 166 435 86 228 180 478 209 555 165 435 233 615 321 845 53 140 106 281 116 313 l20 57 378 0 378 0 -60 -157 c-33 -87 -63 -167 -68 -178 -13 -30 -68 -176 -320 -845 -127 -338 -235 -624 -240 -635 -5 -11 -20 -49 -33 -85 -14 -36 -45 -119 -70 -185 -235 -618 -317 -838 -317 -844 0 -5 52 -8 115 -9 l114 0 27 72 c15 39 33 87 41 106 8 19 19 46 23 60 11 35 168 450 180 475 5 11 24 63 43 115 19 52 51 136 70 185 19 50 76 200 127 335 51 135 107 283 125 330 18 47 80 211 138 365 58 154 147 388 197 520 50 132 99 263 110 290 10 28 66 176 125 330 58 154 122 323 141 375 19 52 38 104 44 115 5 11 55 142 110 290 56 149 105 279 110 290 20 44 110 292 110 304 0 11 -25 60 -90 176 -88 159 -242 359 -403 524 -134 137 -382 330 -522 407 -11 6 -49 27 -85 46 -207 114 -529 227 -750 263 -19 3 -60 10 -90 15 -96 17 -170 22 -358 24 -100 1 -183 2 -185 0z" transform="translate(0.000000,1024.000000) scale(0.100000,-0.100000)"/><path d="M7353 6693 c-30 -3 -46 -10 -54 -25 -10 -18 -46 -112 -114 -293 -12 -33 -82 -217 -155 -410 -73 -192 -161 -426 -196 -520 -36 -93 -69 -181 -75 -195 -6 -14 -22 -56 -36 -95 -13 -38 -28 -79 -34 -90 -5 -11 -26 -67 -48 -125 -21 -58 -65 -172 -96 -255 -31 -82 -101 -269 -156 -415 -55 -146 -105 -276 -110 -290 -6 -14 -58 -151 -117 -305 -58 -154 -117 -311 -132 -350 -15 -38 -70 -187 -124 -330 -53 -143 -101 -269 -107 -280 -5 -11 -25 -63 -44 -115 -69 -184 -134 -356 -159 -421 l-25 -67 1097 3 c603 1 1115 5 1137 8 79 12 140 21 145 22 3 1 25 5 50 9 83 14 294 75 396 115 690 269 1206 850 1390 1566 29 113 31 123 39 180 3 22 8 47 10 55 19 75 27 454 12 580 -20 164 -43 279 -88 430 -28 94 -99 267 -152 370 -139 272 -362 550 -582 725 -27 22 -52 42 -55 45 -21 23 -173 124 -271 180 -258 148 -527 237 -854 286 -48 7 -433 12 -492 7z" transform="translate(0.000000,1024.000000) scale(0.100000,-0.100000)"/></g></svg>