<svg xmlns="http://www.w3.org/2000/svg" width="1365.333" height="1365.333" preserveAspectRatio="xMidYMid meet" version="1.0" viewBox="0 0 1024 1024"><metadata>Created by potrace 1.11, written by Peter Selinger 2001-2013</metadata><g fill="#000" stroke="none"><path d="M2400 10229 c-486 -32 -833 -110 -1113 -250 -304 -152 -533 -398 -657 -707 -54 -133 -85 -271 -114 -502 -34 -267 -46 -449 -46 -712 0 -359 -19 -928 -36 -1086 -29 -284 -83 -502 -157 -647 -52 -100 -173 -262 -232 -311 l-45 -36 0 -858 0 -858 45 -36 c59 -49 180 -211 232 -311 74 -145 128 -363 157 -647 17 -158 36 -727 36 -1086 0 -357 40 -781 96 -1012 96 -403 351 -725 721 -909 287 -144 634 -220 1143 -251 226 -14 5169 -14 5385 0 414 27 652 68 920 160 228 79 403 181 554 325 191 182 322 411 385 675 56 231 96 655 96 1012 0 359 19 928 36 1086 29 284 83 502 157 647 52 100 173 262 232 311 l45 36 0 858 0 858 -45 36 c-59 49 -180 211 -232 311 -74 145 -128 363 -157 647 -17 158 -36 727 -36 1086 0 357 -40 781 -96 1012 -96 403 -351 725 -721 909 -289 145 -637 221 -1138 251 -206 12 -5229 11 -5415 -1z m3390 -1150 c140 -13 225 -31 288 -63 56 -28 76 -49 97 -99 41 -100 -3 -262 -218 -793 -58 -142 -484 -1220 -947 -2394 -463 -1174 -844 -2139 -847 -2145 -4 -7 -3 -7 4 0 6 6 72 107 148 225 532 831 1032 1438 1489 1805 282 227 601 387 896 451 121 26 427 27 520 1 182 -51 314 -155 389 -308 56 -115 75 -213 68 -359 -13 -281 -189 -809 -691 -2073 -162 -407 -225 -588 -282 -812 -35 -134 -39 -163 -39 -275 0 -109 3 -130 22 -165 65 -120 207 -177 518 -205 66 -6 134 -13 151 -16 l31 -4 -59 -208 c-32 -114 -77 -273 -99 -355 l-41 -147 -193 0 c-379 0 -712 43 -960 125 -403 133 -617 387 -641 764 -22 325 170 923 664 2077 155 363 220 526 248 630 59 217 -117 308 -354 184 -195 -102 -432 -323 -736 -686 -533 -637 -1004 -1469 -1342 -2373 -46 -123 -102 -258 -125 -300 -84 -157 -205 -278 -353 -350 -131 -65 -215 -82 -411 -88 -246 -7 -350 19 -390 97 -33 63 -9 193 64 355 l30 65 -69 -62 c-268 -239 -629 -390 -1027 -430 -67 -6 -125 -10 -127 -7 -3 2 41 163 96 357 l102 352 30 4 c17 3 67 10 111 16 266 39 525 187 723 413 210 239 444 705 637 1267 63 184 1223 3807 1278 3995 25 83 75 263 112 400 36 138 86 311 111 385 139 420 355 672 636 741 86 21 308 25 488 8z" transform="translate(0.000000,1024.000000) scale(0.100000,-0.100000)"/></g></svg>