<svg xmlns="http://www.w3.org/2000/svg" xmlns:xlink="http://www.w3.org/1999/xlink" viewBox="0 0 265.16 80.6"><defs><style>.cls-1{fill:url(#linear-gradient);}.cls-2{fill:#fff;}</style><linearGradient id="linear-gradient" x1="241" y1="83.56" x2="162.02" y2="15.95" gradientUnits="userSpaceOnUse"><stop offset="0" stop-color="#fff"/><stop offset="1" stop-color="#fff"/></linearGradient></defs><title>Asset 3</title><g id="Layer_2" data-name="Layer 2"><g id="Layer_1-2" data-name="Layer 1"><path class="cls-1" d="M96.51,56.72H110V53.37H96.51v-9.9h14.26V40.08H92V71.4h19.51V68h-15ZM114.22,27c0,3.25,2.57,6.46,7.62,6.46a9.64,9.64,0,0,0,7.62-3.35h.15L130,33h4.12a28.67,28.67,0,0,1-.41-5.39V19.19c0-4.51-1.85-9.2-9.47-9.2A16.74,16.74,0,0,0,116,12l1,2.69A13.41,13.41,0,0,1,123.53,13c5.1,0,5.66,3.35,5.66,5.2v.46C119.57,18.63,114.22,21.61,114.22,27Zm15.08-5.53v3.9a3.9,3.9,0,0,1-.26,1.3,6.18,6.18,0,0,1-6,3.76c-2.32,0-4.27-1.25-4.27-3.9C118.74,22.21,124.35,21.42,129.3,21.51Zm-18,8.08H96.51V1.67H92V33h19.3ZM226.92,33h4.48V21a10.47,10.47,0,0,1,.21-1.91,6.12,6.12,0,0,1,6.07-5.25,7.52,7.52,0,0,1,1.54.14V10.13a5.4,5.4,0,0,0-1.29-.14,7.38,7.38,0,0,0-6.9,4.92h-.21l-.15-4.41h-4c.15,2.09.21,4.37.21,7Zm-77.5.51a9.57,9.57,0,0,0,8.24-4.18h.1L158,33h4c-.15-1.77-.21-3.81-.21-6.13V10.5h-4.53V24.3a5.46,5.46,0,0,1-.41,2.09,6.55,6.55,0,0,1-6,3.72c-4.12,0-5.56-2.88-5.56-7.16V10.5h-4.53V23.65C140.82,31.55,145.51,33.5,149.42,33.5Zm57.33,0c4.07,0,7.1-1.91,8.49-4.41h.1l.21,3.9h4.07c-.15-1.53-.21-3.81-.21-5.81V0h-4.53V13.43h-.1c-1.13-1.81-3.71-3.44-7.51-3.44-6.07,0-11.22,4.6-11.17,12.08C196.1,28.9,200.73,33.5,206.75,33.5Zm1.39-20.3a6.36,6.36,0,0,1,6.74,6.46v3.9a6.45,6.45,0,0,1-.21,1.77A6.69,6.69,0,0,1,208,30.2c-4.89,0-7.36-3.76-7.36-8.32C200.68,16.91,203.45,13.2,208.14,13.2Zm32.68,45.15c-3.24-1.12-4.74-2-4.74-3.81,0-1.67,1.49-3.07,4.17-3.07a10.46,10.46,0,0,1,5.1,1.3l1.13-3a13.49,13.49,0,0,0-6.12-1.39c-5.35,0-8.6,3-8.6,6.6,0,2.69,2.11,4.92,6.59,6.37,3.35,1.12,4.63,2.18,4.63,4.14s-1.54,3.34-4.84,3.34a12.79,12.79,0,0,1-6-1.63L231,70.33a15.45,15.45,0,0,0,7,1.53c5.92,0,9.32-2.79,9.32-6.74C247.36,61.78,245.14,59.83,240.82,58.34ZM196.51,48.4c-7.26,0-11.68,5.34-11.68,12.13s4.58,11.34,12.25,11.34a22,22,0,0,0,8.29-1.39l-.77-2.93a17.92,17.92,0,0,1-6.9,1.16c-4.53,0-8.44-2.28-8.54-7.81h17.5a13.9,13.9,0,0,0,.15-1.9C206.8,54.86,204.64,48.4,196.51,48.4ZM189.2,58c.36-2.83,2.37-6.64,6.95-6.64,5.1,0,6.33,4,6.28,6.64Zm31.24.37c-3.24-1.12-4.74-2-4.74-3.81,0-1.67,1.49-3.07,4.17-3.07a10.46,10.46,0,0,1,5.1,1.3l1.13-3A13.49,13.49,0,0,0,220,48.4c-5.35,0-8.6,3-8.6,6.6,0,2.69,2.11,4.92,6.59,6.37,3.35,1.12,4.63,2.18,4.63,4.14s-1.54,3.34-4.84,3.34a12.79,12.79,0,0,1-6-1.63l-1.13,3.11a15.45,15.45,0,0,0,7,1.53c5.92,0,9.32-2.79,9.32-6.74C227,61.78,224.76,59.83,220.44,58.34ZM260.38,10.5l-4.94,13.2c-.62,1.63-1.13,3.35-1.59,4.69h-.1c-.41-1.35-1-3.11-1.6-4.6L246.69,10.5h-4.94L251,31.22a3.28,3.28,0,0,1,.31,1.07,2.74,2.74,0,0,1-.36,1,12.64,12.64,0,0,1-3.81,4.55,12.39,12.39,0,0,1-4,2l1.13,3.44a12.82,12.82,0,0,0,5.56-2.65c3.09-2.42,5.3-6.37,8.54-14.08l6.79-16ZM186,33h4.53V19.56c0-7.71-5.35-9.57-8.8-9.57a9.35,9.35,0,0,0-8.24,4.23h-.1l-.26-3.72h-4c.15,1.86.21,3.76.21,6.09V33h4.53V19.47a5.37,5.37,0,0,1,.31-1.91,6.36,6.36,0,0,1,6.07-4.18c4.27,0,5.76,3,5.76,6.64Zm-32,15.41c-4.07,0-7,1.63-8.85,4.37h-.1l-.21-3.86h-4.07c.1,2.14.21,4.46.21,7.34V80.6h4.48V68.38h.1c1.49,2.23,4.38,3.53,7.67,3.53,5.87,0,11.32-4,11.32-12.08C164.6,53,160.07,48.4,154.05,48.4Zm-1.54,20.3a6.89,6.89,0,0,1-6.79-4.79,8.3,8.3,0,0,1-.21-1.67V58.39a6.06,6.06,0,0,1,.31-1.67,7.1,7.1,0,0,1,6.85-5.06c4.79,0,7.41,3.86,7.41,8.36C160.07,65.17,157.29,68.7,152.51,68.7ZM136.4,48.91h-4.89L128,53.7c-.82,1.21-1.65,2.37-2.47,3.72h-.15c-.82-1.25-1.6-2.42-2.52-3.67l-3.55-4.83h-5l8.44,11L113.85,71.4h5l3.6-5.06c.93-1.35,1.8-2.56,2.63-3.9h.1c.88,1.35,1.7,2.6,2.68,3.9l3.65,5.06h5.15l-8.75-11.62Zm38,4.41h-.21l-.15-4.41h-4c.15,2.09.21,4.37.21,7V71.4h4.48v-12a10.47,10.47,0,0,1,.21-1.91,6.12,6.12,0,0,1,6.07-5.25,7.44,7.44,0,0,1,1.54.14V48.54a5.35,5.35,0,0,0-1.29-.14A7.38,7.38,0,0,0,174.43,53.33Z"/><path class="cls-2" d="M18,23.18s-.5-4.5-8-7.75-8.75-6.5-9.25-8-1.75,2.75,1,6.25c-1.5.25-.5,4.75,3.25,6.5-2,.25-.58,3.33,1.58,4.67-2-.5-1,3.17,2.67,4C7.39,29,9.05,31.51,12.05,32c-1.67.5.5,2.5,2.17,2.83,0,0,.42,0,.25-.5,0,0-1.5-.58-1.83-1.58s1.33-.83.92-1-3.08-.42-3.75-1.5,1.83-1,1.83-1a12.39,12.39,0,0,1-4.5-2.5C5.64,25.18,9,26.18,9,26.18c-1.08-1-3.75-3.08-3.83-4.33s2.42-.17,2.42-.17S3.72,18.84,3,17s1.08-1.75,1.08-1.75a11.69,11.69,0,0,1-2.67-4.08c.5,1.25,2.25,3,6.58,5s9.42,5.42,9.08,9.42"/><path class="cls-2" d="M16.22,28.71a10.82,10.82,0,0,0-3.85-7.34C8.64,18.22,7.6,17.75,7.6,17.75S15.87,25,15.52,30.93"/><path class="cls-2" d="M54.65,36S58,32.91,65.78,35.4s10.87.87,12.23.07-.49,3.22-4.87,4c1,1.18-2.75,3.9-6.73,2.75,1.34,1.5-1.76,2.89-4.27,2.47,1.83.94-1.33,3-4.64,1.25,1.27,1.33-1.63,2.12-4.22.52.92,1.47-2,1.55-3.5.71a2.85,2.85,0,0,1-.57-.54s2.23.55,3.13,0-.45-1.51,0-1.36,2.6,1.72,3.81,1.34-.72-2-.72-2a12.4,12.4,0,0,0,5,1.08c2.17-.2-1-1.65-1-1.65,1.47,0,4.85.15,5.74-.74s-1.71-1.72-1.71-1.72,4.75.39,6.52-.49.34-2,.34-2A11.71,11.71,0,0,0,75,37.85c-1.2.61-3.67.78-8.25-.57s-11.93-1.34-14.32,1.89h0A6,6,0,0,1,54.65,36Z"/><path class="cls-2" d="M52.32,41.28a10.82,10.82,0,0,1,7.73-3c4.88.09,6,.43,6,.43S54.12,38.6,50.47,43.3A7.55,7.55,0,0,1,52.32,41.28Z"/><path class="cls-2" d="M64.58,19.38a3.76,3.76,0,0,0-.42-.69h0c-.11-.14-.23-.29-.42-.5-.64-.72-1.89-2-3.12-3.27-.62-.62-1.23-1.22-1.76-1.72a14.81,14.81,0,0,0-1.32-1.14,2.31,2.31,0,0,0-.37-.21A17,17,0,0,0,55,11.11c-3.37-1-9.66-2.45-15.41-3.75s-10.94-2.42-12-2.68a9.83,9.83,0,0,0-2.25-.32,3.43,3.43,0,0,0-2,.58,3.29,3.29,0,0,0-1.19,1.78c-.08.26-.34,1.2-.76,2.68a.93.93,0,0,0,0,.34.91.91,0,0,0-.14.24C18.3,20.36,9.61,51.84,9.61,51.84v.05a4.39,4.39,0,0,0-.11.94,2.54,2.54,0,0,0,.31,1.26,2.4,2.4,0,0,0,.6.7,4.2,4.2,0,0,0,1.13.61c.4.16.82.28,1.27.42l.5.19c1,.38,2.9,1.21,5.31,2.25,3.62,1.56,8.29,3.59,12.31,5.3,2,.86,3.87,1.63,5.35,2.23.74.3,1.4.55,1.93.75s1,.34,1.28.42a1.28,1.28,0,0,1,.42.07h.18a4.75,4.75,0,0,0,1.39-.27,33.11,33.11,0,0,0,6.25-3.13c1.06-.65,2-1.31,2.8-1.9a11.73,11.73,0,0,0,1-.83,2.83,2.83,0,0,0,.66-.86c.06-.14.12-.3.21-.56.57-1.64,2.21-6.69,4.09-12.51a4.51,4.51,0,0,1-1.85-.4c-1,3-1.89,5.85-2.62,8.06-.43,1.32-.8,2.43-1.07,3.24l-.34,1-.15.42a3.41,3.41,0,0,1-.52.51,35.2,35.2,0,0,1-5.2,3.4,31,31,0,0,1-2.89,1.43l-.09,0L55.14,21.13l6.18,4.75c-.76,2.31-1.88,5.76-3.11,9.59a17.75,17.75,0,0,1,2-.15c1.26-3.89,2.37-7.34,3.08-9.48a.94.94,0,0,0,0-.37.92.92,0,0,0,.19-.3c.22-.65.39-1.15.48-1.39a10.23,10.23,0,0,0,.79-3.27A2.68,2.68,0,0,0,64.58,19.38Zm-25.7,45.4-.74-.28c-3.06-1.18-8.85-3.67-14.05-5.92l-7-3-2.41-1c-.64-.26-1.07-.43-1.35-.52a7.4,7.4,0,0,1-1.68-.64.65.65,0,0,1-.23-.22.68.68,0,0,1-.07-.34,2.55,2.55,0,0,1,.07-.52L11.8,51c1.63-5.89,8-29.14,10.83-39.14a39.79,39.79,0,0,0,15.74,6.76A66.8,66.8,0,0,0,51.95,20h.71ZM50.57,15.3a1.39,1.39,0,0,1-.22.43.89.89,0,0,0-.06.14.93.93,0,0,0-.19.1,1,1,0,0,1-.58.21l-.23,0a.84.84,0,0,1-.46-.35,1.2,1.2,0,0,1-.19-.66,1.39,1.39,0,0,1,.06-.41,1.17,1.17,0,0,1,1-.88l.24,0a.85.85,0,0,1,.46.35,1.19,1.19,0,0,1,.19.66,1.4,1.4,0,0,1-.06.41Zm4.66-1.82a15.59,15.59,0,0,0-1.75,3.86l-1.19,0a.93.93,0,0,0,0-.42l-.14-.45a3.25,3.25,0,0,0,.25-.58l-.9-.28.9.28a3.3,3.3,0,0,0,.15-1A3.06,3.06,0,0,0,52,13.17,2.7,2.7,0,0,0,49.75,12a3,3,0,0,0-2.84,2.21,3.28,3.28,0,0,0-.15,1,3.08,3.08,0,0,0,.52,1.72l0,.06a65.64,65.64,0,0,1-24-7.71c.3-1.07.5-1.78.55-1.94a1.43,1.43,0,0,1,.49-.8,1.58,1.58,0,0,1,1-.23,8.06,8.06,0,0,1,1.81.27c.66.16,2.72.61,5.48,1.22,4.14.92,9.86,2.19,14.69,3.35,2.41.58,4.61,1.13,6.27,1.58.73.2,1.35.38,1.84.54C55.37,13.3,55.3,13.37,55.23,13.48Zm7,9.64-.07.19L56,18.52c.27-.7.57-1.41.86-2a15.59,15.59,0,0,1,.89-1.69h0l0,0c.77.73,1.7,1.66,2.54,2.53.59.6,1.13,1.18,1.55,1.63l.53.58.25.29h0a2.17,2.17,0,0,1,.23.35.81.81,0,0,1,.06.35A8.8,8.8,0,0,1,62.25,23.12ZM36.62,20.63a12,12,0,0,0-3.52-.53c-5.81,0-11.24,4.16-13.17,10.41a15.66,15.66,0,0,0-.7,4.6,14.37,14.37,0,0,0,2.4,8,12.23,12.23,0,0,0,6.55,4.91,12,12,0,0,0,3.52.53c5.8,0,11.24-4.16,13.16-10.41a15.67,15.67,0,0,0,.7-4.6,14.37,14.37,0,0,0-2.4-8A12.22,12.22,0,0,0,36.62,20.63Zm6.45,17c-1.7,5.53-6.48,9.09-11.37,9.08a10.07,10.07,0,0,1-3-.45,10.34,10.34,0,0,1-5.54-4.17,12.49,12.49,0,0,1-2.07-7,13.76,13.76,0,0,1,.62-4C23.42,25.54,28.21,22,33.1,22a10.08,10.08,0,0,1,3,.45,10.34,10.34,0,0,1,5.54,4.17,12.5,12.5,0,0,1,2.07,7A13.78,13.78,0,0,1,43.07,37.63Zm-8-13.57a9,9,0,0,0-2.65-.4,9.75,9.75,0,0,0-6,2.13,11.24,11.24,0,0,0-3.79,5.57,11.53,11.53,0,0,0-.51,3.39,10.64,10.64,0,0,0,1.78,6,9.17,9.17,0,0,0,4.91,3.68,8.9,8.9,0,0,0,2.63.39,9.37,9.37,0,0,0,3-.49,1.42,1.42,0,0,0,.73-.56c.23-.34.91-1.4,1.66-2.74a28.87,28.87,0,0,0,1.66-3.43,12,12,0,0,1,1.22.19,1.41,1.41,0,0,0,1.65-1,11.55,11.55,0,0,0,.42-3.06,10.65,10.65,0,0,0-1.78-6A9.15,9.15,0,0,0,35.11,24.06ZM38.9,34.77c-.41,0-.86-.08-1.34-.09a1.41,1.41,0,0,0-1.37,1,22.24,22.24,0,0,1-1.8,3.94c-.49.88-1,1.63-1.26,2.11a6.44,6.44,0,0,1-1.64.24,6.11,6.11,0,0,1-1.8-.27,6.34,6.34,0,0,1-3.4-2.56A7.83,7.83,0,0,1,25,34.75a8.68,8.68,0,0,1,.39-2.56A8.43,8.43,0,0,1,28.2,28a7,7,0,0,1,4.26-1.53,6.15,6.15,0,0,1,1.82.27,6.33,6.33,0,0,1,3.4,2.56A7.83,7.83,0,0,1,39,33.69,8.55,8.55,0,0,1,38.9,34.77ZM36.6,9.07h0Zm-2.91-.19a1.78,1.78,0,0,0-1.49-.8,1.94,1.94,0,0,0-1.83,1.4h0a2.06,2.06,0,0,0-.09.61,2,2,0,0,0,.33,1.1,1.8,1.8,0,0,0,1,.72,1.76,1.76,0,0,0,.52.08,1.94,1.94,0,0,0,1.83-1.4h0A2.06,2.06,0,0,0,34,10,2,2,0,0,0,33.69,8.88Zm6.58,1.32a1.89,1.89,0,0,0-.56-.08,2,2,0,0,0-1.77,1.09c0-.07,0-.13,0-.2a2.09,2.09,0,0,0-.35-1.17,1.91,1.91,0,0,0-1-.76A1.87,1.87,0,0,0,36,9a2.08,2.08,0,0,0-2,1.5,2.21,2.21,0,0,0-.1.65,2.09,2.09,0,0,0,.35,1.17,1.91,1.91,0,0,0,1,.76,1.88,1.88,0,0,0,.55.08,2,2,0,0,0,1.77-1.09c0,.07,0,.13,0,.2A2.1,2.1,0,0,0,38,13.44a1.91,1.91,0,0,0,1,.76h0a1.89,1.89,0,0,0,.56.08,2.08,2.08,0,0,0,2-1.5,2.23,2.23,0,0,0,.1-.65A2.1,2.1,0,0,0,41.3,11,1.91,1.91,0,0,0,40.28,10.2Zm-4.19.9-.09.15-.06,0h0l0,0,0-.12V11l.09-.15.06,0h0l0,0,0,.12Zm3.67,1.13-.09.15-.06,0h0l0,0,0-.12,0-.09h0l.09-.14.06,0h0l0,0,0,.12ZM29,7.11h0A1.75,1.75,0,0,0,28.48,7,1.9,1.9,0,0,0,26.69,8.4h0A2,2,0,0,0,26.6,9a1.91,1.91,0,0,0,.32,1.07,1.76,1.76,0,0,0,.94.7h0a1.75,1.75,0,0,0,.51.08,1.9,1.9,0,0,0,1.79-1.37h0a2,2,0,0,0,.09-.59,1.92,1.92,0,0,0-.32-1.07A1.76,1.76,0,0,0,29,7.11Z"/><polygon class="cls-2" points="71.14 43.05 61.14 63.22 68.89 43.72 71.14 43.05"/><polygon class="cls-2" points="64.47 46.55 57.47 60.97 62.47 47.38 64.47 46.55"/><polygon class="cls-2" points="1.55 19.05 1.14 52.88 2.64 20.88 1.55 19.05"/><polygon class="cls-2" points="5.47 29.22 4.55 45.8 6.97 30.63 5.47 29.22"/></g></g></svg>