<svg xmlns="http://www.w3.org/2000/svg" viewBox="0 0 286.98 39.5"><defs><style>.cls-1{fill:#00a9d7;}.cls-2{fill:#6d6e71;}</style></defs><title>Asset 3</title><g id="Layer_2" data-name="Layer 2"><g id="Layer_1-2" data-name="Layer 1"><path class="cls-1" d="M69.67,33.36V14a2.25,2.25,0,0,1,2.26-2.26h2.19V29.35H84.66v4Z"/><path class="cls-1" d="M96.65,32.67a7.72,7.72,0,0,1-2.79.85,25,25,0,0,1-2.6.16,6.57,6.57,0,0,1-3.95-1.22,4.65,4.65,0,0,1-1.69-4,4.36,4.36,0,0,1,1.54-3.76,8.85,8.85,0,0,1,3.92-1.5,3.7,3.7,0,0,0,.75-.09c.29-.06.63-.11,1-.16q2.76-.38,2.76-1.63a1.19,1.19,0,0,0-1-1.22,6.46,6.46,0,0,0-1.79-.28,4.58,4.58,0,0,0-1.57.25,1.71,1.71,0,0,0-1,.94h-4.2a4.83,4.83,0,0,1,1.76-3.2,7.24,7.24,0,0,1,4.83-1.44A9.45,9.45,0,0,1,97.9,17.5,4,4,0,0,1,99.72,21v5.71a7.2,7.2,0,0,1-.91,3.92A5.56,5.56,0,0,1,96.65,32.67Zm-1-7.71a11.84,11.84,0,0,1-2.44.82l-1.44.31a3.71,3.71,0,0,0-1.63.82,2.55,2.55,0,0,0-.44,1.38,2,2,0,0,0,.56,1.5,2.37,2.37,0,0,0,1.63.5,3.47,3.47,0,0,0,3.76-3.76Z"/><path class="cls-1" d="M115.53,16.68v9.78q0,4.45-2.32,5.83a9.75,9.75,0,0,1-5.08,1.38,10.07,10.07,0,0,1-4.92-1.5Q101,30.79,101,26.46V16.68h4.39V27.34a2.62,2.62,0,0,0,.88,2.19,3.16,3.16,0,0,0,2,.69,3.29,3.29,0,0,0,2-.69,2.58,2.58,0,0,0,.91-2.19V18.81a2.11,2.11,0,0,1,.6-1.5,2,2,0,0,1,1.54-.63Z"/><path class="cls-1" d="M131.41,33.36h-2.19a2,2,0,0,1-2.13-2.13V22.7a2.58,2.58,0,0,0-.91-2.19,3.29,3.29,0,0,0-2-.69,3.16,3.16,0,0,0-2,.69,2.62,2.62,0,0,0-.88,2.19V33.36h-4.39V23.58q0-4.26,2.23-5.71A9.73,9.73,0,0,1,124,16.31a9.44,9.44,0,0,1,5.08,1.44q2.32,1.44,2.32,5.83Z"/><path class="cls-1" d="M143.78,11.73h2.13a2,2,0,0,1,1.5.66,2.09,2.09,0,0,1,.63,1.47V26.09q0,4.45-2.57,6a10.52,10.52,0,0,1-5.58,1.57,9.88,9.88,0,0,1-3.2-.53,5.26,5.26,0,0,1-2.51-1.72,10,10,0,0,1-1.82-6.33,10.17,10.17,0,0,1,1.82-6.33,6.11,6.11,0,0,1,7.59-1.82,6,6,0,0,1,2,1.94Zm-7.15,13.17a6.53,6.53,0,0,0,.94,3.82,3.11,3.11,0,0,0,2.7,1.32,3.05,3.05,0,0,0,2.63-1.32,6.9,6.9,0,0,0,.88-3.82,6,6,0,0,0-.94-3.57,3.28,3.28,0,0,0-2.7-1.25,3,3,0,0,0-2.57,1.32A5.75,5.75,0,0,0,136.63,24.89Z"/><path class="cls-1" d="M149.43,33.36V25.27a10.33,10.33,0,0,1,.72-4.11,6.8,6.8,0,0,1,2-2.66,7.76,7.76,0,0,1,2.79-1.38,12.41,12.41,0,0,1,3.29-.44h.63v4.45h-1.44a3.67,3.67,0,0,0-2.7.88,3.77,3.77,0,0,0-.88,2.76v8.59Z"/><path class="cls-1" d="M162.3,39.25V35.8h1.19a3,3,0,0,0,2-.6q.72-.6.28-1.91l-5.83-16.61h4.83l3.39,11.79,2.95-10.28a1.85,1.85,0,0,1,2-1.5h3l-6.39,19a6.43,6.43,0,0,1-1.88,2.95,6.9,6.9,0,0,1-3.7.75h-.88a2.3,2.3,0,0,0-.47-.09Z"/><path class="cls-2" d="M177.49,33.36V14a2.25,2.25,0,0,1,2.26-2.26h13.42v3.7H181.88v4.64h8.4v1.44A2.25,2.25,0,0,1,188,23.83h-6.14v5.52h11.29v4Z"/><path class="cls-2" d="M210.67,33.36h-5l-2.95-5.27-3.07,5.27h-5.08L200,24.77l-5.14-8.09h4.83l2.88,5,3.2-5.39a2,2,0,0,1,1.88-1.13h3.76l-6.27,9.65Z"/><path class="cls-2" d="M217.14,37.37A2.14,2.14,0,0,1,215,39.5h-2.13V23.89q0-4.39,2.57-6a10.37,10.37,0,0,1,5.58-1.6,9,9,0,0,1,3.17.6,5.91,5.91,0,0,1,2.54,1.72,10,10,0,0,1,1.88,6.27,10.2,10.2,0,0,1-1.88,6.39,5.88,5.88,0,0,1-4.83,2.38,6.37,6.37,0,0,1-2.76-.56,4.71,4.71,0,0,1-2-1.94Zm7.15-12.29a6.41,6.41,0,0,0-.94-3.76,3.11,3.11,0,0,0-2.7-1.32A3.05,3.05,0,0,0,218,21.32a6.39,6.39,0,0,0-.88,3.76,5.7,5.7,0,0,0,.94,3.57,3.11,3.11,0,0,0,2.7,1.32,3,3,0,0,0,2.57-1.32A6,6,0,0,0,224.29,25.08Z"/><path class="cls-2" d="M230,33.36V25.27a10.33,10.33,0,0,1,.72-4.11,6.8,6.8,0,0,1,2-2.66,7.76,7.76,0,0,1,2.79-1.38,12.41,12.41,0,0,1,3.29-.44h.63v4.45H238a3.67,3.67,0,0,0-2.7.88,3.77,3.77,0,0,0-.88,2.76v8.59Z"/><path class="cls-2" d="M252.09,28.22h3.13a6.85,6.85,0,0,1-2.63,4,8,8,0,0,1-4.89,1.44,7,7,0,0,1-5.58-2.32,9.41,9.41,0,0,1-2-6.46,9.3,9.3,0,0,1,1.94-6.27,7,7,0,0,1,5.58-2.32,7.51,7.51,0,0,1,5.83,2.26,9.56,9.56,0,0,1,2,6.46v.69a1.09,1.09,0,0,1-.06.44H244.57a4.31,4.31,0,0,0,.94,2.88A3,3,0,0,0,248,30a3.54,3.54,0,0,0,1.82-.44.86.86,0,0,0,.34-.22l.35-.34a1.35,1.35,0,0,1,.47-.5A1.87,1.87,0,0,1,252.09,28.22Zm-7.52-4.89H251a4.06,4.06,0,0,0-.88-2.51,3,3,0,0,0-2.32-.88,3.05,3.05,0,0,0-2.26.88A3.59,3.59,0,0,0,244.57,23.33Z"/><path class="cls-2" d="M256.43,27.84h4.26a2.31,2.31,0,0,0,.94,1.88,4.46,4.46,0,0,0,2.51.63,4,4,0,0,0,1.94-.44,1.33,1.33,0,0,0,.75-1.19q0-1.13-2.63-1.69a12,12,0,0,1-1.69-.38,9.88,9.88,0,0,1-4.45-1.94,3.85,3.85,0,0,1-1.25-3,5,5,0,0,1,1.82-3.95,7.82,7.82,0,0,1,4.89-1.44,8.54,8.54,0,0,1,5.2,1.44,5.52,5.52,0,0,1,1.94,4.08H268a2,2,0,0,1-1.82-1.07l-.5-.5a3.38,3.38,0,0,0-2.07-.56,3.73,3.73,0,0,0-1.88.38,1.27,1.27,0,0,0-.56,1.13q0,1,3.26,1.69a6.43,6.43,0,0,0,.66.19,2.45,2.45,0,0,0,.53.06A11.62,11.62,0,0,1,270,25a4,4,0,0,1,1.19,3,5,5,0,0,1-2,4.26,9.51,9.51,0,0,1-5.64,1.38,8.27,8.27,0,0,1-5.33-1.44,5,5,0,0,1-1.82-4.2Z"/><path class="cls-2" d="M272.18,27.84h4.26a2.31,2.31,0,0,0,.94,1.88,4.46,4.46,0,0,0,2.51.63,4,4,0,0,0,1.94-.44,1.33,1.33,0,0,0,.75-1.19q0-1.13-2.63-1.69a12,12,0,0,1-1.69-.38,9.88,9.88,0,0,1-4.45-1.94,3.85,3.85,0,0,1-1.25-3,5,5,0,0,1,1.82-3.95,7.82,7.82,0,0,1,4.89-1.44,8.54,8.54,0,0,1,5.2,1.44,5.52,5.52,0,0,1,1.94,4.08h-2.7a2,2,0,0,1-1.82-1.07l-.5-.5a3.38,3.38,0,0,0-2.07-.56,3.73,3.73,0,0,0-1.88.38,1.27,1.27,0,0,0-.56,1.13q0,1,3.26,1.69a6.43,6.43,0,0,0,.66.19,2.45,2.45,0,0,0,.53.06A11.62,11.62,0,0,1,285.79,25,4,4,0,0,1,287,28a5,5,0,0,1-2,4.26,9.51,9.51,0,0,1-5.64,1.38A8.27,8.27,0,0,1,274,32.23a5,5,0,0,1-1.82-4.2Z"/><path class="cls-1" d="M1.88,32.89A3.53,3.53,0,0,1,0,30.14H0a3.55,3.55,0,0,1,0-.57H0A4.67,4.67,0,0,1,2.28,25.9h0a10,10,0,0,1,2-1.08h0L31,13.2a1.06,1.06,0,0,1,.86,0h0L58.54,25.13a8.33,8.33,0,0,1,1.8,1.08h0a4.61,4.61,0,0,1,1.95,3.53h0a3.43,3.43,0,0,1-2.37,3.15h0a7.18,7.18,0,0,1-2,.47H4.6a5.94,5.94,0,0,1-2.72-.49ZM5.09,26.8s-.18.06-.48.21h0a8.17,8.17,0,0,0-1.11.64h0a2.65,2.65,0,0,0-1.37,1.92h0a1.38,1.38,0,0,0,0,.22h0c.16.84.38,1,.7,1.2h0a4.07,4.07,0,0,0,1.75.26H57.77l.4-.05h0a4.93,4.93,0,0,0,1-.27h0c.7-.32,1-.6,1-1.17h0c.08-1-1.25-2-2.05-2.45h0a3.62,3.62,0,0,0-.41-.2h0L31.37,15.34,5.09,26.8ZM30.94,15.15l.43-1-.43,1Z"/><path class="cls-1" d="M30.2,14.29V11.87a1.07,1.07,0,0,1,.31-.75h0a1.08,1.08,0,0,1,.75-.31h0A4.34,4.34,0,0,0,35.6,6.47h0a4.34,4.34,0,0,0-4.33-4.33h0a4.34,4.34,0,0,0-4.34,4.33h0a1.07,1.07,0,0,1-1.07,1.07h0A1.07,1.07,0,0,1,24.8,6.47h0A6.47,6.47,0,0,1,31.27,0h0a6.47,6.47,0,0,1,6.47,6.47h0a6.47,6.47,0,0,1-5.4,6.38h0v1.44a1.07,1.07,0,0,1-1.07,1.07h0a1.07,1.07,0,0,1-1.07-1.07Z"/></g></g></svg>