<svg xmlns="http://www.w3.org/2000/svg" viewBox="0 0 78.44 62.67"><defs><style>.cls-1{fill:#fff;}</style></defs><title>Asset 4</title><g id="Layer_2" data-name="Layer 2"><g id="Layer_1-2" data-name="Layer 1"><path class="cls-1" d="M18,18.81s-.5-4.5-8-7.75-8.75-6.5-9.25-8S-1,5.81,1.72,9.31c-1.5.25-.5,4.75,3.25,6.5-2,.25-.58,3.33,1.58,4.67-2-.5-1,3.17,2.67,4-1.83.17-.17,2.67,2.83,3.17-1.67.5.5,2.5,2.17,2.83,0,0,.42,0,.25-.5,0,0-1.5-.58-1.83-1.58s1.33-.83.92-1S10.47,27,9.8,25.89s1.83-1,1.83-1a12.39,12.39,0,0,1-4.5-2.5C5.64,20.81,9,21.81,9,21.81c-1.08-1-3.75-3.08-3.83-4.33s2.42-.17,2.42-.17S3.72,14.48,3,12.64s1.08-1.75,1.08-1.75A11.69,11.69,0,0,1,1.39,6.81c.5,1.25,2.25,3,6.58,5s9.42,5.42,9.08,9.42"/><path class="cls-1" d="M16.22,24.35A10.82,10.82,0,0,0,12.37,17C8.64,13.86,7.6,13.39,7.6,13.39s8.28,7.23,7.93,13.17"/><path class="cls-1" d="M54.65,31.6S58,28.54,65.78,31s10.87.87,12.23.07-.49,3.22-4.87,4c1,1.18-2.75,3.9-6.73,2.75,1.34,1.5-1.76,2.89-4.27,2.47,1.83.94-1.33,3-4.64,1.25,1.27,1.33-1.63,2.12-4.22.52.92,1.47-2,1.55-3.5.71a2.85,2.85,0,0,1-.57-.54s2.23.55,3.13,0-.45-1.51,0-1.36,2.6,1.72,3.81,1.34-.72-2-.72-2a12.4,12.4,0,0,0,5,1.08c2.17-.2-1-1.65-1-1.65,1.47,0,4.85.15,5.74-.74s-1.71-1.72-1.71-1.72,4.75.39,6.52-.49.34-2,.34-2A11.71,11.71,0,0,0,75,33.49c-1.2.61-3.67.78-8.25-.57s-11.93-1.34-14.32,1.89h0A6,6,0,0,1,54.65,31.6Z"/><path class="cls-1" d="M52.32,36.92a10.82,10.82,0,0,1,7.73-3c4.88.09,6,.43,6,.43s-11.91-.12-15.56,4.58A7.55,7.55,0,0,1,52.32,36.92Z"/><path class="cls-1" d="M64.58,15a3.76,3.76,0,0,0-.42-.69h0c-.11-.14-.23-.29-.42-.5-.64-.72-1.89-2-3.12-3.27-.62-.62-1.23-1.22-1.76-1.72a14.81,14.81,0,0,0-1.32-1.14,2.31,2.31,0,0,0-.37-.21A17,17,0,0,0,55,6.75C51.63,5.77,45.34,4.3,39.59,3S28.65.57,27.6.32A9.83,9.83,0,0,0,25.35,0a3.43,3.43,0,0,0-2,.58,3.29,3.29,0,0,0-1.19,1.78c-.08.26-.34,1.2-.76,2.68a.93.93,0,0,0,0,.34.91.91,0,0,0-.14.24C18.3,16,9.61,47.47,9.61,47.47v.05a4.39,4.39,0,0,0-.11.94,2.54,2.54,0,0,0,.31,1.26,2.4,2.4,0,0,0,.6.7,4.2,4.2,0,0,0,1.13.61c.4.16.82.28,1.27.42l.5.19c1,.38,2.9,1.21,5.31,2.25,3.62,1.56,8.29,3.59,12.31,5.3,2,.86,3.87,1.63,5.35,2.23.74.3,1.4.55,1.93.75s1,.34,1.28.42a1.28,1.28,0,0,1,.42.07h.18a4.75,4.75,0,0,0,1.39-.27,33.11,33.11,0,0,0,6.25-3.13c1.06-.65,2-1.31,2.8-1.9a11.73,11.73,0,0,0,1-.83,2.83,2.83,0,0,0,.66-.86c.06-.14.12-.3.21-.56.57-1.64,2.21-6.69,4.09-12.51a4.51,4.51,0,0,1-1.85-.4c-1,3-1.89,5.85-2.62,8.06-.43,1.32-.8,2.43-1.07,3.24l-.34,1-.15.42a3.41,3.41,0,0,1-.52.51,35.2,35.2,0,0,1-5.2,3.4,31,31,0,0,1-2.89,1.43l-.09,0L55.14,16.76l6.18,4.75c-.76,2.31-1.88,5.76-3.11,9.59a17.75,17.75,0,0,1,2-.15c1.26-3.89,2.37-7.34,3.08-9.48a.94.94,0,0,0,0-.37.92.92,0,0,0,.19-.3c.22-.65.39-1.15.48-1.39a10.23,10.23,0,0,0,.79-3.27A2.68,2.68,0,0,0,64.58,15Zm-25.7,45.4-.74-.28c-3.06-1.18-8.85-3.67-14.05-5.92l-7-3-2.41-1c-.64-.26-1.07-.43-1.35-.52A7.4,7.4,0,0,1,11.66,49a.65.65,0,0,1-.23-.22.68.68,0,0,1-.07-.34,2.55,2.55,0,0,1,.07-.52l.37-1.34c1.63-5.89,8-29.14,10.83-39.14a39.79,39.79,0,0,0,15.74,6.76,66.8,66.8,0,0,0,13.57,1.41h.71Zm11.7-49.48a1.39,1.39,0,0,1-.22.43.89.89,0,0,0-.06.14.93.93,0,0,0-.19.1,1,1,0,0,1-.58.21l-.23,0a.84.84,0,0,1-.46-.35,1.2,1.2,0,0,1-.19-.66,1.39,1.39,0,0,1,.06-.41,1.17,1.17,0,0,1,1-.88l.24,0a.85.85,0,0,1,.46.35,1.19,1.19,0,0,1,.19.66,1.4,1.4,0,0,1-.06.41Zm4.66-1.82A15.59,15.59,0,0,0,53.48,13l-1.19,0a.93.93,0,0,0,0-.42l-.14-.45a3.25,3.25,0,0,0,.25-.58l-.9-.28.9.28a3.3,3.3,0,0,0,.15-1A3.06,3.06,0,0,0,52,8.81,2.7,2.7,0,0,0,49.75,7.6a3,3,0,0,0-2.84,2.21,3.28,3.28,0,0,0-.15,1,3.08,3.08,0,0,0,.52,1.72l0,.06a65.64,65.64,0,0,1-24-7.71c.3-1.07.5-1.78.55-1.94a1.43,1.43,0,0,1,.49-.8,1.58,1.58,0,0,1,1-.23,8.06,8.06,0,0,1,1.81.27c.66.16,2.72.61,5.48,1.22,4.14.92,9.86,2.19,14.69,3.35,2.41.58,4.61,1.13,6.27,1.58.73.2,1.35.38,1.84.54C55.37,8.93,55.3,9,55.23,9.11Zm7,9.64-.07.19L56,14.15c.27-.7.57-1.41.86-2a15.59,15.59,0,0,1,.89-1.69h0l0,0c.77.73,1.7,1.66,2.54,2.53.59.6,1.13,1.18,1.55,1.63l.53.58.25.29h0a2.17,2.17,0,0,1,.23.35.81.81,0,0,1,.06.35A8.8,8.8,0,0,1,62.25,18.76ZM36.62,16.27a12,12,0,0,0-3.52-.53c-5.81,0-11.24,4.16-13.17,10.41a15.66,15.66,0,0,0-.7,4.6,14.37,14.37,0,0,0,2.4,8,12.23,12.23,0,0,0,6.55,4.91,12,12,0,0,0,3.52.53c5.8,0,11.24-4.16,13.16-10.41a15.67,15.67,0,0,0,.7-4.6,14.37,14.37,0,0,0-2.4-8A12.22,12.22,0,0,0,36.62,16.27Zm6.45,17c-1.7,5.53-6.48,9.09-11.37,9.08a10.07,10.07,0,0,1-3-.45,10.34,10.34,0,0,1-5.54-4.17,12.49,12.49,0,0,1-2.07-7,13.76,13.76,0,0,1,.62-4c1.7-5.53,6.48-9.09,11.37-9.09a10.08,10.08,0,0,1,3,.45,10.34,10.34,0,0,1,5.54,4.17,12.5,12.5,0,0,1,2.07,7A13.78,13.78,0,0,1,43.07,33.27Zm-8-13.57a9,9,0,0,0-2.65-.4,9.75,9.75,0,0,0-6,2.13A11.24,11.24,0,0,0,22.68,27a11.53,11.53,0,0,0-.51,3.39,10.64,10.64,0,0,0,1.78,6A9.17,9.17,0,0,0,28.86,40a8.9,8.9,0,0,0,2.63.39,9.37,9.37,0,0,0,3-.49,1.42,1.42,0,0,0,.73-.56c.23-.34.91-1.4,1.66-2.74A28.87,28.87,0,0,0,38.5,33.2a12,12,0,0,1,1.22.19,1.41,1.41,0,0,0,1.65-1,11.55,11.55,0,0,0,.42-3.06,10.65,10.65,0,0,0-1.78-6A9.15,9.15,0,0,0,35.11,19.69ZM38.9,30.4c-.41,0-.86-.08-1.34-.09a1.41,1.41,0,0,0-1.37,1,22.24,22.24,0,0,1-1.8,3.94c-.49.88-1,1.63-1.26,2.11a6.44,6.44,0,0,1-1.64.24,6.11,6.11,0,0,1-1.8-.27,6.34,6.34,0,0,1-3.4-2.56A7.83,7.83,0,0,1,25,30.39a8.68,8.68,0,0,1,.39-2.56,8.43,8.43,0,0,1,2.83-4.18,7,7,0,0,1,4.26-1.53,6.15,6.15,0,0,1,1.82.27,6.33,6.33,0,0,1,3.4,2.56A7.83,7.83,0,0,1,39,29.32,8.55,8.55,0,0,1,38.9,30.4ZM36.6,4.7h0Zm-2.91-.19a1.78,1.78,0,0,0-1.49-.8,1.94,1.94,0,0,0-1.83,1.4h0a2.06,2.06,0,0,0-.09.61,2,2,0,0,0,.33,1.1,1.8,1.8,0,0,0,1,.72,1.76,1.76,0,0,0,.52.08,1.94,1.94,0,0,0,1.83-1.4h0a2.06,2.06,0,0,0,.09-.6A2,2,0,0,0,33.69,4.52Zm6.58,1.32a1.89,1.89,0,0,0-.56-.08,2,2,0,0,0-1.77,1.09c0-.07,0-.13,0-.2a2.09,2.09,0,0,0-.35-1.17,1.91,1.91,0,0,0-1-.76A1.87,1.87,0,0,0,36,4.62a2.08,2.08,0,0,0-2,1.5,2.21,2.21,0,0,0-.1.65,2.09,2.09,0,0,0,.35,1.17,1.91,1.91,0,0,0,1,.76,1.88,1.88,0,0,0,.55.08A2,2,0,0,0,37.7,7.7c0,.07,0,.13,0,.2A2.1,2.1,0,0,0,38,9.07a1.91,1.91,0,0,0,1,.76h0a1.89,1.89,0,0,0,.56.08,2.08,2.08,0,0,0,2-1.5,2.23,2.23,0,0,0,.1-.65A2.1,2.1,0,0,0,41.3,6.6,1.91,1.91,0,0,0,40.28,5.83Zm-4.19.9L36,6.88l-.06,0h0l0,0,0-.12V6.68L36,6.53l.06,0h0l0,0,0,.12Zm3.67,1.13L39.66,8,39.6,8h0l0,0,0-.12,0-.09h0l.09-.14.06,0h0l0,0,0,.12ZM29,2.74h0a1.75,1.75,0,0,0-.51-.08A1.9,1.9,0,0,0,26.69,4h0a2,2,0,0,0-.09.59,1.91,1.91,0,0,0,.32,1.07,1.76,1.76,0,0,0,.94.7h0a1.75,1.75,0,0,0,.51.08,1.9,1.9,0,0,0,1.79-1.37h0a2,2,0,0,0,.09-.59,1.92,1.92,0,0,0-.32-1.07A1.76,1.76,0,0,0,29,2.74Z"/><polygon class="cls-1" points="71.14 38.69 61.14 58.85 68.89 39.35 71.14 38.69"/><polygon class="cls-1" points="64.47 42.19 57.47 56.6 62.47 43.02 64.47 42.19"/><polygon class="cls-1" points="1.55 14.69 1.14 48.52 2.64 16.52 1.55 14.69"/><polygon class="cls-1" points="5.47 24.85 4.55 41.44 6.97 26.27 5.47 24.85"/></g></g></svg>