<svg xmlns="http://www.w3.org/2000/svg" viewBox="0 0 554 351.53"><defs><style>.cls-1,.cls-2{fill:#00aeef;fill-rule:evenodd}.cls-2{fill:#f99d1c}</style></defs><title>Hosting Kernel</title><g id="Layer_2" data-name="Layer 2"><g id="Layer_1-2" data-name="Layer 1"><path d="M259.44,351.53H245.69l65-171.67H266.78l-65,171.67H188l65-171.67H209.1l-65,171.67H91.15v-.1c-1.36.06-2.72.1-4.09.1A87.05,87.05,0,0,1,77.12,178,150.24,150.24,0,0,1,360.26,85.32Z" class="cls-1"/><path d="M419.92,83.37a134.08,134.08,0,1,1,0,268.16q-1.27,0-2.53,0c.84,0,1.69,0,2.53,0H303.36L404.59,84.25A135.45,135.45,0,0,1,419.92,83.37Z" class="cls-2"/></g></g></svg>