<svg xmlns="http://www.w3.org/2000/svg" viewBox="0 0 471.91 62.33">
    <defs>
        <style>
            .cls-1{fill:#00aeef;}
            .cls-1,.cls-2{fill-rule:evenodd;}
            .cls-2{fill:#f99d1c;}
            .cls-3{stroke:#414042;stroke-miterlimit:45;stroke-width:0.22px;}
        </style>
    </defs>
    <title>Hosting Kernel</title>
    <g id="Layer_2" data-name="Layer 2">
        <g id="Layer_1-2" data-name="Layer 1">
            <path class="cls-1"
                  d="M46,62.33H43.56L55.09,31.89H47.3L35.77,62.33H33.33L44.86,31.89H37.07L25.55,62.33H16.16v0l-.73,0a15.43,15.43,0,0,1-1.76-30.77,26.64,26.64,0,0,1,50.2-16.43Z"/>
            <path class="cls-2" d="M74.45,14.78a23.77,23.77,0,1,1,0,47.54H53.79L71.73,14.94A24,24,0,0,1,74.45,14.78Z"/>
            <path class="cls-3" d="M118.81,17.65V30.38h13.44V17.65h5.8V49.43h-5.8v-14H118.81v14H113V17.65Z"/>
            <path class="cls-3"
                  d="M172.9,33.21c0,10.66-6.46,16.74-15.23,16.74-9,0-14.62-6.84-14.62-16.17,0-9.76,6.13-16.64,15.09-16.64C167.43,17.13,172.9,24.16,172.9,33.21Zm-23.71.47c0,6.46,3.25,11.6,8.82,11.6s8.77-5.19,8.77-11.83c0-6-3-11.65-8.77-11.65S149.18,27.13,149.18,33.68Z"/>
            <path class="cls-3"
                  d="M177.76,43.11a16.05,16.05,0,0,0,7.69,2c3.72,0,5.8-1.74,5.8-4.34,0-2.4-1.6-3.82-5.66-5.28-5.23-1.89-8.58-4.67-8.58-9.24,0-5.19,4.34-9.15,11.22-9.15a16.78,16.78,0,0,1,7.64,1.6l-1.41,4.67a13.45,13.45,0,0,0-6.32-1.51c-3.68,0-5.28,2-5.28,3.82,0,2.45,1.84,3.58,6.08,5.23,5.52,2.07,8.2,4.86,8.2,9.43,0,5.09-3.87,9.52-12.07,9.52a18.87,18.87,0,0,1-8.58-2Z"/>
            <path class="cls-3" d="M208.45,22.51H199.4V17.65h24v4.86h-9.15V49.43h-5.8Z"/>
            <path class="cls-3" d="M232.92,17.65V49.43h-5.8V17.65Z"/>
            <path class="cls-3"
                  d="M239.57,49.43V17.65h6.6l8.2,13.63a87.22,87.22,0,0,1,5.42,10.66h.09c-.38-4.24-.52-8.35-.52-13.2V17.65h5.38V49.43h-6l-8.3-14a110.47,110.47,0,0,1-5.71-11l-.14,0c.24,4.1.28,8.3.28,13.53V49.43Z"/>
            <path class="cls-3"
                  d="M296.91,48a31.47,31.47,0,0,1-10.23,1.79c-5.38,0-9.43-1.37-12.45-4.24a15.74,15.74,0,0,1-4.43-11.69c0-10,7.17-16.5,17.68-16.5a21.08,21.08,0,0,1,8.44,1.51l-1.27,4.67a17.12,17.12,0,0,0-7.21-1.37c-6.79,0-11.55,4-11.55,11.41,0,7.21,4.43,11.5,11,11.5a11.12,11.12,0,0,0,4.39-.66V36.46h-5.61V31.89h11.22Z"/>
            <path class="cls-3"
                  d="M312.14,17.65h7.12v14h.14c.71-1.23,1.46-2.36,2.17-3.49l7.21-10.56h8.82L327.09,31.18l11.08,18.25h-8.39L322,35.71l-2.73,3.35V49.43h-7.12Z"/>
            <path class="cls-3" d="M360,36H348.31v7.54h13.06v5.89H341.09V17.65h19.61v5.89h-12.4v6.6H360Z"/>
            <path class="cls-3"
                  d="M366.27,18.08a63.1,63.1,0,0,1,9.57-.66c4.71,0,8,.71,10.28,2.5A8.07,8.07,0,0,1,389,26.56a8.43,8.43,0,0,1-5.61,7.83v.14c2.22.9,3.44,3,4.24,5.94,1,3.58,2,7.73,2.59,9h-7.36A39.82,39.82,0,0,1,380.7,42c-.85-4-2.22-5-5.14-5.09h-2.17V49.43h-7.12Zm7.12,13.67h2.83c3.58,0,5.71-1.79,5.71-4.57s-2-4.38-5.28-4.43a17.93,17.93,0,0,0-3.25.24Z"/>
            <path class="cls-3"
                  d="M394.23,49.43V17.65h8.39l6.6,11.65a92.21,92.21,0,0,1,5.19,10.89h.14a117.86,117.86,0,0,1-.61-13.25V17.65h6.6V49.43H413l-6.79-12.26A118.07,118.07,0,0,1,400.69,26l-.14,0c.19,4.2.28,8.68.28,13.86v9.57Z"/>
            <path class="cls-3" d="M445.68,36H434v7.54H447v5.89H426.77V17.65h19.61v5.89H434v6.6h11.69Z"/>
            <path class="cls-3" d="M451.95,17.65h7.21V43.4H471.8v6H451.95Z"/>
        </g>
    </g>
</svg>