<svg xmlns="http://www.w3.org/2000/svg" id="Layer_1" data-name="Layer 1" viewBox="0 0 555.78 192.07"><defs><style>.cls-1{fill:#255495}.cls-2{fill:#265696}.cls-3{fill:#245495}.cls-4{fill:#265595}.cls-5{fill:#275696}.cls-6{fill:#285796}.cls-7{fill:#275796}.cls-8{fill:#2e5b99}.cls-9{fill:#2d5b99}</style></defs><title>tech-cloudlinux</title><path d="M176.87,397.38a5,5,0,0,1,.12-.83,70.28,70.28,0,0,0,3.44-25.2,64.86,64.86,0,0,0-4.87-22.41,35.56,35.56,0,0,0-4.08-7c-3.19-4.37-6.4-8.75-10-12.8a67.52,67.52,0,0,0-40.83-22.44c-3.12-.51-6.29-.72-9.38-1.07.68-.22,1.47-.5,2.27-.74a70.21,70.21,0,0,1,16.87-3.17,64,64,0,0,1,66.13,53,19.74,19.74,0,0,1-.36,6.5A60.73,60.73,0,0,1,178.38,396c-.49.48-1,.92-1.52,1.38Z" class="cls-1" transform="translate(-36.23 -301.61)"/><path d="M164.09,367.78c-11.06-20.91-27.77-34-50.93-38.25s-43.4,2.13-61.07,17.87c.2-.42.3-.67.42-.91C62.1,328.35,76.82,316.81,97,312.81c18.29-3.63,35.3.07,50.7,10.64a18.25,18.25,0,0,1,3.9,4.15,60.48,60.48,0,0,1,12.53,36.24C164.11,365.08,164.09,366.32,164.09,367.78Z" class="cls-1" transform="translate(-36.23 -301.61)"/><path d="M133.75,440.65c1.78.49,3.55,1,5.34,1.46a69.38,69.38,0,0,0,78.82-34.93,70.08,70.08,0,0,0,7.88-30.73,7.94,7.94,0,0,1,.33.75c7.21,23.77,2.75,45.1-13.82,63.6-9.75,10.88-22.16,17.31-36.61,19.6a19.62,19.62,0,0,1-5.87-.42,60.75,60.75,0,0,1-34.5-17.54c-.56-.56-1-1.2-1.56-1.8Z" class="cls-1" transform="translate(-36.23 -301.61)"/><path d="M39.81,418.82a65.26,65.26,0,0,1-3-12.64,63.7,63.7,0,0,1,17.53-52.73,65.13,65.13,0,0,1,30.54-17.62c5.44-1.45,10.66-.79,15.93.45a60.77,60.77,0,0,1,30.81,17.9c.12.13.25.26.36.4a.27.27,0,0,1,0,.12c-22.12-6.81-43.14-4.59-62.3,8.72S41.08,395.54,39.81,418.82Z" class="cls-1" transform="translate(-36.23 -301.61)"/><path d="M184.07,318.84a46.81,46.81,0,0,1,9.65,5.82c13.51,10.16,22,23.54,24.86,40.19,3.07,17.66-.69,33.94-11.14,48.55a18.37,18.37,0,0,1-4.17,3.64A59.88,59.88,0,0,1,171.48,429c-2.55.19-5.13,0-7.67,0,.15-.09.35-.23.57-.34,18.31-9.55,30.78-24.09,36-44.09,6.37-24.41.64-46.2-16-65.11l-.41-.48Z" class="cls-1" transform="translate(-36.23 -301.61)"/><path d="M81.64,477.92a60.44,60.44,0,0,1-12.24-7.74C56.78,459.82,49,446.61,46.48,430.47c-2.65-17.09,1.08-32.79,11-47a10.36,10.36,0,0,1,1.92-2,60.18,60.18,0,0,1,34.06-14c2.66-.22,5.33-.22,8-.22C81,378.25,67.74,394.65,63.6,417.57S66,460.54,81.64,477.92Z" class="cls-1" transform="translate(-36.23 -301.61)"/><path d="M211.89,448.56c-1.34,2.39-2.51,4.9-4,7.16-10.15,15-24.15,24.4-42,27.55-17.62,3.11-33.86-.68-48.52-11a4.8,4.8,0,0,1-.87-.77,60.61,60.61,0,0,1-14.33-31.1,61.85,61.85,0,0,1-.64-11.63.39.39,0,0,1,.15-.34c.47.88.92,1.78,1.41,2.65,10.75,19,26.66,31.13,48.13,35.16,22.7,4.26,42.73-1.85,60-17.18.22-.19.46-.36.69-.55Z" class="cls-1" transform="translate(-36.23 -301.61)"/><path d="M88.86,398.08c-.75,2.86-1.7,5.68-2.22,8.58-4.35,23.8,1.47,44.74,18.16,62.37a66.19,66.19,0,0,0,35.88,19.59c4,.8,8,1.13,11.89,1.65-.46.16-1.17.42-1.89.64a63.88,63.88,0,0,1-77-35.33,56.94,56.94,0,0,1-4.58-15.79,20.9,20.9,0,0,1,.46-5.7A60.78,60.78,0,0,1,88.29,398.4a6,6,0,0,1,.49-.38Z" class="cls-1" transform="translate(-36.23 -301.61)"/><path d="M514.06,375.82v1q0,12.16,0,24.33a14.07,14.07,0,0,0,.13,2.15c.52,3.35,2.53,5.26,6.1,5.67a21.55,21.55,0,0,0,7.91-.61,1.19,1.19,0,0,0,1.08-1.38c0-10.05,0-20.11,0-30.16v-1.06h8.2v.93q0,17.68,0,35.37a1.24,1.24,0,0,1-.93,1.37,39.61,39.61,0,0,1-13.71,2.4,26.27,26.27,0,0,1-7.56-.8c-5.33-1.46-8.46-5-9.17-10.49a24.21,24.21,0,0,1-.2-3c0-8.53,0-17.05,0-25.7Z" class="cls-2" transform="translate(-36.23 -301.61)"/><path d="M497.49,415.82h-8.18v-1.07q0-12.43,0-24.86c0-4.05-2.06-6.59-5.94-7.36a7.81,7.81,0,0,0-2.22-.21c-2.16.21-4.32.53-6.48.8-.85.11-1.13.53-1.13,1.43,0,10.05,0,20.11,0,30.16v1.1h-8.14v-1q0-17.68,0-35.37a1.13,1.13,0,0,1,.89-1.28,41.45,41.45,0,0,1,12.81-2.42,29.25,29.25,0,0,1,9.41,1c5.72,1.69,9,5.87,9,11.84.06,8.89,0,17.77,0,26.66C497.53,415.38,497.51,415.56,497.49,415.82Z" class="cls-3" transform="translate(-36.23 -301.61)"/><path d="M544.06,375.7c3,0,5.86,0,8.69,0a1.41,1.41,0,0,1,.9.68c2.47,4.06,4.92,8.14,7.37,12.22l.68,1.11c.22-.33.4-.59.56-.85,2.47-4.1,5-8.19,7.38-12.32a1.59,1.59,0,0,1,1.63-.89c2.36,0,4.73,0,7.09,0h1L577,379.34q-4.93,7.5-9.87,15a1,1,0,0,0,0,1.34q6.39,9.6,12.73,19.23c.18.27.34.55.6,1h-1.78c-2.27,0-4.55,0-6.82,0a1.14,1.14,0,0,1-1.13-.64q-4.2-6.9-8.45-13.77c-.17-.27-.35-.53-.6-.91l-3.16,5.12c-2,3.18-3.93,6.36-5.86,9.56a1.15,1.15,0,0,1-1.14.63c-2.8,0-5.61,0-8.55,0,.2-.36.33-.62.49-.85q6.33-9.58,12.69-19.15a1.3,1.3,0,0,0,0-1.71c-3.89-5.86-7.73-11.74-11.59-17.62C544.41,376.3,544.28,376.07,544.06,375.7Z" class="cls-4" transform="translate(-36.23 -301.61)"/><path d="M441.17,408.72v7.06H414.34V357.45h8.37v51.27Z" class="cls-4" transform="translate(-36.23 -301.61)"/><path d="M401.41,376V357.47h4.45v.92q0,26.49,0,53a1.54,1.54,0,0,1-.82,1.51,20,20,0,0,1-7.25,2.49,32,32,0,0,1-9.39.26c-5.28-.68-8.6-3.68-10.25-8.67a39,39,0,0,1-1.5-14,32.62,32.62,0,0,1,1.31-8.58c2-6.19,5.73-9.12,12.24-9.44a38.72,38.72,0,0,1,10.34.91Zm0,19.42c0-4.76,0-9.51,0-14.26a1.1,1.1,0,0,0-.93-1.25,28.72,28.72,0,0,0-9.74-1.22c-4.28.16-6.82,2-8.3,6a25.91,25.91,0,0,0-1.36,8.09,43.31,43.31,0,0,0,.84,11.95c.9,3.73,2.92,6.43,6.93,7.06a25.56,25.56,0,0,0,11.94-1.11c.57-.18.6-.54.6-1Q401.42,402.56,401.43,395.43Z" class="cls-5" transform="translate(-36.23 -301.61)"/><path d="M331.83,395.52a32.78,32.78,0,0,1-1,10.12c-1.86,6.66-5.4,9.63-12.3,10.15a21.86,21.86,0,0,1-7.13-.54c-4.31-1.1-6.86-4-8.26-8.09a36,36,0,0,1-1.62-12.65,35.51,35.51,0,0,1,1.45-10.44c1.06-3.23,2.74-6,5.87-7.59a14.5,14.5,0,0,1,5.42-1.47,22.9,22.9,0,0,1,7.84.48c4.14,1.07,6.72,3.81,8.16,7.75a27.94,27.94,0,0,1,1.61,8.51C331.88,393,331.83,394.27,331.83,395.52Zm-25.93-.24a36.22,36.22,0,0,0,1.15,10.36c.91,3,2.7,5.33,5.92,6a18.39,18.39,0,0,0,5.43.33c4.78-.46,7.09-2.61,8.22-7.27a40.16,40.16,0,0,0,.86-10.88,29.48,29.48,0,0,0-1.18-8.5c-1-3-2.58-5.5-5.87-6.19a21.46,21.46,0,0,0-5.6-.35c-4,.24-6.39,2.55-7.64,6.27A34.51,34.51,0,0,0,305.9,395.28Z" class="cls-2" transform="translate(-36.23 -301.61)"/><path d="M280.18,362.09l-1.51,3.6a50.31,50.31,0,0,0-5.53-1.83c-6.08-1.28-11.48-.07-15.69,4.83a20.13,20.13,0,0,0-4.29,8.88c-1.75,7.86-1.79,15.7,1.12,23.31,2.06,5.4,5.72,9.27,11.63,10.38A18.41,18.41,0,0,0,278,409.44l.55-.3,1.65,3.88c-1,.46-2,1-3,1.33-6.21,2-12.35,2.22-18.25-1-4.93-2.69-7.87-7-9.69-12.24a43.62,43.62,0,0,1-1.87-18A32.52,32.52,0,0,1,251,370a19.69,19.69,0,0,1,20.47-10.6,22.89,22.89,0,0,1,8.21,2.4Z" class="cls-2" transform="translate(-36.23 -301.61)"/><path d="M340.32,375.75h4.46v1q0,12.84,0,25.68a13.54,13.54,0,0,0,.28,2.85c.84,3.85,3.25,6.05,7.3,6.61a26.68,26.68,0,0,0,11.44-1,1.15,1.15,0,0,0,1-1.31q0-16.34,0-32.69v-1.06h4.45v1q0,17.69,0,35.38a1.23,1.23,0,0,1-.91,1.38c-6.2,2.27-12.54,3.17-19,1.59-5.22-1.27-8.27-5.06-8.79-10.42-.1-1-.15-2.09-.15-3.13q0-12.39,0-24.78Z" class="cls-6" transform="translate(-36.23 -301.61)"/><path d="M457,415.82H448.9V375.76H457Z" class="cls-5" transform="translate(-36.23 -301.61)"/><path d="M288.8,357.43h4.26V415.8H288.8Z" class="cls-3" transform="translate(-36.23 -301.61)"/><path d="M171.2,395.65a75,75,0,0,0-2.52-16.4,4.29,4.29,0,0,1,.1-1.84,67.6,67.6,0,0,0-.89-30.58,3.29,3.29,0,0,1-.13-1,61.24,61.24,0,0,1,6.86,24.51A62,62,0,0,1,171.2,395.65Z" class="cls-6" transform="translate(-36.23 -301.61)"/><path d="M94.56,399.56a70.13,70.13,0,0,0,2.32,16,4.84,4.84,0,0,1,.06,2.1A67.76,67.76,0,0,0,98,449.3c0,.17.08.35.12.55-2.55-4.23-6.2-13.79-7.08-24.65C90.44,417.59,92.12,404.3,94.56,399.56Z" class="cls-5" transform="translate(-36.23 -301.61)"/><path d="M194.35,384.73c-5.68,17.17-16.61,29.8-32.63,38l-.18-.15c.77-.87,1.55-1.73,2.3-2.61a71.3,71.3,0,0,0,7.35-10.49,3,3,0,0,1,.88-1,67.82,67.82,0,0,0,22-23.35C194.14,385,194.25,384.87,194.35,384.73Z" class="cls-7" transform="translate(-36.23 -301.61)"/><path d="M185.25,431.47c-16.12,8.08-32.74,9.2-49.92,3.64,3.2-.37,6.31-.65,9.39-1.11,2.15-.32,4.26-.93,6.4-1.33a6.64,6.64,0,0,1,2.45-.08,68.08,68.08,0,0,0,31-1C184.8,431.55,185,431.51,185.25,431.47Z" class="cls-5" transform="translate(-36.23 -301.61)"/><path d="M158.91,369.51a3.72,3.72,0,0,1-.57-.36,70.28,70.28,0,0,0-12.56-9.22,3.57,3.57,0,0,1-1.15-1.07A67.84,67.84,0,0,0,122,337.36a1.2,1.2,0,0,1-.57-.61c1.19.44,2.4.84,3.58,1.31a63.77,63.77,0,0,1,33.66,30.8,4.82,4.82,0,0,1,.23.66Z" class="cls-5" transform="translate(-36.23 -301.61)"/><path d="M80.23,363.94c16.18-8.16,32.87-9.31,50.05-3.67a65.5,65.5,0,0,0-15,2.28c-2.06.61-3.89,0-5.8-.29a67.73,67.73,0,0,0-28.63,1.52Z" class="cls-5" transform="translate(-36.23 -301.61)"/><path d="M106.82,425.73a70.36,70.36,0,0,0,12.27,9.14,7.48,7.48,0,0,1,2.56,2.4,67.11,67.11,0,0,0,21.91,20.59,1.28,1.28,0,0,1,.58.6c-.37-.11-.75-.2-1.11-.33a63.84,63.84,0,0,1-36-31.6,4.3,4.3,0,0,1-.24-.82Z" class="cls-5" transform="translate(-36.23 -301.61)"/><path d="M104.17,372.69c-1.07,1.24-2.24,2.42-3.19,3.75-2.2,3.09-4.3,6.25-6.45,9.37a3.77,3.77,0,0,1-1,1A67.76,67.76,0,0,0,71.7,410.06a1.34,1.34,0,0,1-.4.45A63.23,63.23,0,0,1,104.17,372.69Z" class="cls-5" transform="translate(-36.23 -301.61)"/><path d="M453,368.45a4.7,4.7,0,0,1-4.87-4.57,4.86,4.86,0,1,1,4.87,4.57Z" class="cls-2" transform="translate(-36.23 -301.61)"/><path d="M586.52,375.7h-1.16c.22-1.75.41-3.46.67-5.16,0-.16.43-.4.63-.38s.87.16,1,.41a13.73,13.73,0,0,1,.67,2c.1.3.21.6.4,1.12.3-1,.53-1.67.75-2.39.39-1.3.39-1.3,1.89-1.12l.65,5.44h-1.12l-.45-3.51-.14,0c-.31,1-.58,2-.93,2.93a1.21,1.21,0,0,1-.64.67c-.53.18-.6-.31-.72-.68a16.27,16.27,0,0,0-1.06-2.79Z" class="cls-8" transform="translate(-36.23 -301.61)"/><path d="M583.84,375.7h-1.33v-4.39l-1.34-.15v-1h3.9v1l-1.23.08Z" class="cls-9" transform="translate(-36.23 -301.61)"/><path d="M88.78,398l.18-.12-.09.18Z" class="cls-1" transform="translate(-36.23 -301.61)"/><path d="M167.64,345.53l0,0s0-.06,0-.08,0,0,.07,0Z" class="cls-6" transform="translate(-36.23 -301.61)"/><path d="M183.92,319l-.19-.25.34.1Z" class="cls-1" transform="translate(-36.23 -301.61)"/><path d="M185.67,431.4l-.07,0,0-.07h.07S185.66,431.39,185.67,431.4Z" class="cls-5" transform="translate(-36.23 -301.61)"/><path d="M211.84,448.51l.13-.2s.06.06.05.07l-.13.18Z" class="cls-1" transform="translate(-36.23 -301.61)"/><path d="M144.63,458.57l-.27,0v-.1l.27,0Z" class="cls-5" transform="translate(-36.23 -301.61)"/><path d="M158.89,369.53l.12.08-.1-.09Z" class="cls-5" transform="translate(-36.23 -301.61)"/><path d="M176.86,397.36l-.11.08v-.08h.12Z" class="cls-1" transform="translate(-36.23 -301.61)"/><path d="M121.16,336.76s0,0-.06,0,0,0-.06-.05,0,0,.07,0S121.14,336.74,121.16,336.76Z" class="cls-5" transform="translate(-36.23 -301.61)"/><path d="M106.83,425.71h-.13l.11,0Z" class="cls-5" transform="translate(-36.23 -301.61)"/><path d="M133.76,440.63l-.14-.06.12.08Z" class="cls-1" transform="translate(-36.23 -301.61)"/></svg>