<svg xmlns="http://www.w3.org/2000/svg" id="Layer_1" data-name="Layer 1" viewBox="0 0 1754.01 516.41"><defs><style>.cls-1{fill:#5d87a1}.cls-2{fill:#f8981d}</style></defs><title>tech-mysql</title><path d="M765.26,1399.56H697.58Q694,1228.2,677.81,1077.28h-.6l-103,322.28H522.64L420.2,1077.28h-.59q-11.4,144.94-14.37,322.28H343.55q6-215.66,29.94-404.38h83.89L555,1292.32h.6l98.23-297.13h80.26q26.37,221.06,31.15,404.38m293.52-298.35q-41.34,224.31-109,326-52.73,78.31-115.62,78.34-16.77,0-41.33-10.07v-36.06a199,199,0,0,0,28.15,1.8q29.39,0,47.34-16.19,21.54-19.74,21.54-44.31,0-16.83-16.77-68.9L798.79,1101.2h66.49l53.31,172.51q18,58.76,15,82.09Q977.3,1239,994.68,1101.18h64.1v0Z" class="cls-1" transform="translate(-343.55 -989.16)"/><path d="M1959.71,1399.56H1767.45V995.18h64.67v354.6h127.58Zm-242.58,9.77-74.34-36.69a138.16,138.16,0,0,0,18.57-18.06q47.4-55.68,47.36-164.71,0-200.67-157.53-200.71-77.26,0-120.42,50.94-47.36,55.72-47.33,164.15,0,106.62,41.92,156.3,38.35,44.94,115.65,45,28.84,0,52.94-7.1l96.78,56.34Zm-240.82-90.69q-24.56-39.51-24.56-127,0-152.73,92.86-152.78,48.55,0,71.27,36.52,24.52,39.57,24.57,125.8,0,154-92.85,154-48.57,0-71.29-36.57m-121.06-31.17q0,51.44-37.72,84.46t-101.19,32.95q-59.32,0-115-37.77l17.38-34.72q47.91,24,86.82,23.95,36.55,0,57.22-16.11c13.8-10.75,22-25.83,22-44.9,0-24-16.75-44.56-47.49-61.76-28.34-15.56-85-48.1-85-48.1-30.72-22.39-46.1-46.43-46.1-86q0-49.16,34.42-79.36t89-30.28q56.3,0,102.39,30l-15.59,34.74q-39.43-16.75-77.83-16.75c-20.73,0-36.74,5-47.87,15s-18.14,22.72-18.14,38.36c0,23.91,17.11,44.7,48.68,62.24C1249.92,1168.92,1308,1202,1308,1202c31.51,22.35,47.24,46.17,47.24,85.46" class="cls-2" transform="translate(-343.55 -989.16)"/><path d="M2087.43,1399.49h10.12V1350h-15.18L2070,1383.76,2056.53,1350h-14.62v49.54h9.56V1361.8h.54l14.1,37.69h7.28l14-37.69v37.69Zm-81.55,0h10.71v-41.15h14v-8.41h-39.34v8.41h14.58l0,41.15Z" class="cls-2" transform="translate(-343.55 -989.16)"/></svg>