<svg xmlns="http://www.w3.org/2000/svg" xmlns:svg="http://www.w3.org/2000/svg" id="svg3336" width="184.455" height="40.621" version="1.1" viewBox="27.401 17.168 184.455 40.621"><metadata id="metadata3380"/><defs id="defs3338"><linearGradient id="linearGradient34" x1="0" x2="1" y1="0" y2="0" gradientTransform="matrix(0,22.857092,-22.857085,0,35.972749,25.739844)" gradientUnits="userSpaceOnUse" spreadMethod="pad"><stop id="stop26" offset="0" style="stop-opacity:1;stop-color:#009cde"/><stop id="stop28" offset=".5" style="stop-opacity:1;stop-color:#00577d"/><stop id="stop30" offset=".5" style="stop-opacity:1;stop-color:#00577d"/><stop id="stop32" offset="1" style="stop-opacity:1;stop-color:#00314a"/></linearGradient><linearGradient id="linearGradient58" x1="0" x2="1" y1="0" y2="0" gradientTransform="matrix(0,40.00017,-40.000164,0,48.829449,17.168136)" gradientUnits="userSpaceOnUse" spreadMethod="pad"><stop id="stop50" offset="0" style="stop-opacity:1;stop-color:#8dd0f1"/><stop id="stop52" offset=".5" style="stop-opacity:1;stop-color:#0088c2"/><stop id="stop54" offset=".5" style="stop-opacity:1;stop-color:#0088c2"/><stop id="stop56" offset="1" style="stop-opacity:1;stop-color:#003a56"/></linearGradient></defs><path id="path36" d="m 44.543559,37.168043 0,0 -11.42811,-11.428107 -5.71445,5.713921 5.71445,5.714186 -5.71445,5.714186 5.71366,5.714714 11.42969,-11.4289 z" clip-path="none" style="fill:url(#linearGradient34);stroke:none"/><path id="path60" d="m 61.686379,37.168043 2.6e-4,-2.65e-4 -19.99978,-19.999781 -5.71445,5.713921 14.28613,14.286125 -14.28639,14.28613 5.71471,5.71392 19.99978,-19.999785 z" clip-path="none" style="fill:url(#linearGradient58);stroke:none"/><path id="path64" d="m 69.54936,49.36638 0.60703,0 1.286728,5.436608 1.891626,-5.436608 0.437845,0 1.94239,5.318161 1.313509,-5.318161 0.584486,0 -1.556747,6.183958 -0.618329,0 -1.882486,-5.270219 -1.852854,5.270219 -0.643004,0 z" clip-path="none" style="fill:#444142;fill-opacity:1;fill-rule:nonzero;stroke:none"/><path id="path76" d="m 82.388952,52.03921 3.96586,0 c -0.02132,-1.436181 -0.645803,-2.154622 -1.873286,-2.154622 -1.327605,0 -2.024889,0.718441 -2.092574,2.154622 m 2.092574,-2.673538 c 1.630766,0 2.447913,0.936303 2.447913,2.810315 0,0.13327 -0.0025,0.273559 -0.01324,0.418093 l -4.527084,0 c 0,1.61808 0.8249,2.426063 2.477525,2.426063 0.676839,0 1.280352,-0.09871 1.807013,-0.29471 l 0,0.530195 c -0.526661,0.195991 -1.130174,0.294003 -1.807013,0.294003 -2.048873,0 -3.076828,-1.054042 -3.076828,-3.162132 0,-2.013609 0.898234,-3.021827 2.691877,-3.021827" clip-path="none" style="fill:#444142;fill-opacity:1;fill-rule:nonzero;stroke:none"/><path id="path80" d="m 92.272263,54.825548 c 0.611293,0.114213 1.16191,0.171308 1.655453,0.171308 1.55323,0 2.32947,-0.901753 2.32947,-2.703852 0,-1.558151 -0.71421,-2.337931 -2.14262,-2.337931 -0.54502,0 -1.160528,0.107172 -1.842303,0.317976 z m -0.597171,-7.696986 0.597171,0 0,2.532525 c 0.716338,-0.196712 1.331123,-0.295415 1.847923,-0.295415 1.80987,0 2.715143,0.989886 2.715143,2.969656 0,2.142634 -0.951103,3.21501 -2.857543,3.21501 -0.857334,0 -1.623023,-0.08461 -2.302694,-0.253819 z" clip-path="none" style="fill:#444142;fill-opacity:1;fill-rule:nonzero;stroke:none"/><path id="path84" d="m 111.95573,55.374075 c -0.49281,0.117039 -1.02371,0.175554 -1.59055,0.175554 -2.00869,0 -3.01266,-1.068851 -3.01266,-3.209371 0,-1.982586 1.00397,-2.974587 3.01266,-2.974587 0.56684,0 1.09774,0.0592 1.59055,0.176975 l 0,0.530195 c -0.53089,-0.117734 -1.04064,-0.175554 -1.53417,-0.175554 -1.61103,0 -2.41478,0.813623 -2.41478,2.442985 0,1.787291 0.80375,2.679881 2.41478,2.679881 0.49353,0 1.00328,-0.0592 1.53417,-0.176265 z" clip-path="none" style="fill:#444142;fill-opacity:1;fill-rule:nonzero;stroke:none"/><path id="path88" d="m 119.06122,55.079366 c 1.45732,0 2.18772,-0.881307 2.18772,-2.644628 0,-1.731591 -0.7304,-2.596684 -2.18772,-2.596684 -1.45878,0 -2.18636,0.865093 -2.18636,2.596684 0,1.763321 0.72758,2.644628 2.18636,2.644628 m -2.78635,-2.62136 c 0,-2.099629 0.92994,-3.150851 2.78635,-3.150851 1.85637,0 2.7842,1.051222 2.7842,3.150851 0,2.096807 -0.92783,3.145914 -2.7842,3.145914 -1.85007,0 -2.7758,-1.049107 -2.78635,-3.145914" clip-path="none" style="fill:#444142;fill-opacity:1;fill-rule:nonzero;stroke:none"/><path id="path92" d="m 126.5918,55.550338 0,-6.183958 0.42584,0 0.0741,0.789651 c 0.76148,-0.526671 1.50741,-0.789651 2.23925,-0.789651 1.45169,0 2.17647,0.649346 2.17647,1.949452 l 0,4.234506 -0.59716,0 0,-4.25213 c 0,-0.918677 -0.53586,-1.378368 -1.60823,-1.378368 -0.71631,0 -1.41926,0.261572 -2.11303,0.783307 l 0,4.847191 z" clip-path="none" style="fill:#444142;fill-opacity:1;fill-rule:nonzero;stroke:none"/><path id="path96" d="m 136.51673,48.365214 0.41949,0 0.10869,1.000458 1.79082,0 0,0.530903 -1.74005,0 0,3.904544 c 0,0.812212 0.28694,1.219024 0.8644,1.219024 l 0.87565,0 0,0.530195 -0.8651,0 c -0.96873,0 -1.45379,-0.555578 -1.45379,-1.667434 z" clip-path="none" style="fill:#444142;fill-opacity:1;fill-rule:nonzero;stroke:none"/><path id="path100" d="m 143.31479,55.550338 0,-6.183958 0.42586,0 0.0741,1.024432 c 0.59785,-0.683189 1.26412,-1.024432 2.00021,-1.024432 l 0,0.494237 c -0.71141,0 -1.34664,0.360279 -1.90362,1.079425 l 0,4.610296 z" clip-path="none" style="fill:#444142;fill-opacity:1;fill-rule:nonzero;stroke:none"/><path id="path104" d="m 152.63618,55.079366 c 1.45805,0 2.18636,-0.881307 2.18636,-2.644628 0,-1.731591 -0.72831,-2.596684 -2.18636,-2.596684 -1.46014,0 -2.18846,0.865093 -2.18846,2.596684 0,1.763321 0.72832,2.644628 2.18846,2.644628 m -2.7842,-2.62136 c 0,-2.099629 0.92571,-3.150851 2.7842,-3.150851 1.85641,0 2.78424,1.051222 2.78424,3.150851 0,2.096807 -0.92783,3.145914 -2.78424,3.145914 -1.85074,0 -2.77785,-1.049107 -2.7842,-3.145914" clip-path="none" style="fill:#444142;fill-opacity:1;fill-rule:nonzero;stroke:none"/><path id="path106" d="m 160.87607,55.550338 -0.59648,0 0,-8.421069 0.59648,0 z" clip-path="none" style="fill:#444142;fill-opacity:1;fill-rule:nonzero;stroke:none"/><path id="path110" d="m 172.67217,54.642942 c 0.60355,0.212914 1.15772,0.317975 1.66535,0.317975 1.54124,0 2.31253,-0.888358 2.31253,-2.667894 0,-1.582122 -0.76638,-2.372477 -2.30054,-2.372477 -0.53021,0 -1.09072,0.04653 -1.67734,0.141717 z m -0.59787,-5.023451 c 0.6811,-0.168484 1.4411,-0.253098 2.28647,-0.253098 1.9142,0 2.87024,0.980718 2.87024,2.94004 0,2.161672 -0.9617,3.243918 -2.88926,3.243918 -0.4745,0 -1.03291,-0.09871 -1.66958,-0.295414 l 0,2.533935 -0.59787,0 z" clip-path="none" style="fill:#444142;fill-opacity:1;fill-rule:nonzero;stroke:none"/><path id="path114" d="m 184.00017,52.487618 c -1.17884,0 -1.76826,0.432192 -1.76826,1.29517 0,0.825609 0.49424,1.237355 1.47848,1.237355 0.72761,0 1.41644,-0.200948 2.07352,-0.6007 l 0,-1.814084 c -0.63242,-0.07828 -1.22748,-0.117733 -1.78374,-0.117733 m -2.36544,1.3135 c 0,-1.228895 0.78965,-1.842988 2.36544,-1.842988 0.55626,0 1.15132,0.03948 1.78374,0.117734 l 0,-0.759336 c 0,-0.946172 -0.57389,-1.419961 -1.72099,-1.419961 -0.65217,0 -1.29942,0.09801 -1.94311,0.295414 l 0,-0.530902 c 0.64369,-0.196712 1.29094,-0.294707 1.94311,-0.294707 1.54544,0 2.31889,0.640181 2.31889,1.920543 l 0,4.263415 -0.36522,0 -0.13533,-0.614096 c -0.74666,0.410337 -1.47073,0.614096 -2.17083,0.614096 -1.38191,0 -2.07566,-0.583778 -2.07566,-1.749219" clip-path="none" style="fill:#444142;fill-opacity:1;fill-rule:nonzero;stroke:none"/><path id="path118" d="m 191.41089,55.550338 0,-6.183958 0.42727,0 0.0741,0.789651 c 0.76144,-0.526671 1.50669,-0.789651 2.23711,-0.789651 1.45379,0 2.17717,0.649346 2.17717,1.949452 l 0,4.234506 -0.59575,0 0,-4.25213 c 0,-0.918677 -0.53584,-1.378368 -1.60822,-1.378368 -0.71632,0 -1.42137,0.261572 -2.11372,0.783307 l 0,4.847191 z" clip-path="none" style="fill:#444142;fill-opacity:1;fill-rule:nonzero;stroke:none"/><path id="path122" d="m 201.67002,52.03921 3.96871,0 c -0.0266,-1.436181 -0.64934,-2.154622 -1.87543,-2.154622 -1.32832,0 -2.02346,0.718441 -2.09328,2.154622 m 2.09328,-2.673538 c 1.6329,0 2.44935,0.936303 2.44935,2.810315 0,0.13327 -0.005,0.273559 -0.0113,0.418093 l -4.53132,0 c 0,1.61808 0.8263,2.426063 2.47893,2.426063 0.67965,0 1.28108,-0.09871 1.80706,-0.29471 l 0,0.530195 c -0.52598,0.195991 -1.12741,0.294003 -1.80706,0.294003 -2.04958,0 -3.07398,-1.054042 -3.07398,-3.162132 0,-2.013609 0.8961,-3.021827 2.68833,-3.021827" clip-path="none" style="fill:#444142;fill-opacity:1;fill-rule:nonzero;stroke:none"/><path id="path124" d="m 211.66966,55.550338 -0.59995,0 0,-8.421069 0.59995,0 z" clip-path="none" style="fill:#444142;fill-opacity:1;fill-rule:nonzero;stroke:none"/><path id="path492" d="m 80.1554,40.982128 0,-6.680075 c 0,-0.784012 -0.30881,-1.326426 -0.925486,-1.626307 -0.616676,-0.30035 -1.550156,-0.450757 -2.799035,-0.450757 l -2.897276,0 0,10.684264 2.775071,0 c 1.46085,0 2.466722,-0.112807 3.019001,-0.338423 0.551355,-0.225144 0.827725,-0.754869 0.827725,-1.588702 m 3.797375,-6.605811 0,6.605811 c 0,1.834998 -0.551816,3.077759 -1.655449,3.728281 -1.103633,0.649583 -3.042505,0.975783 -5.818038,0.975783 l -6.743061,0 0,-16.238615 6.718617,0 c 2.677771,0 4.596907,0.342652 5.757405,1.025606 1.160037,0.684365 1.740526,1.985411 1.740526,3.903134" clip-path="none" style="fill:#5c5b5f;fill-opacity:1;fill-rule:nonzero;stroke:none"/><path id="path494" d="m 90.598537,45.685724 -3.554368,0 0,-12.109868 3.554368,0 z m 0,-13.535943 -3.554368,0 0,-2.95273 3.554368,0 z" clip-path="none" style="fill:#5c5b5f;fill-opacity:1;fill-rule:nonzero;stroke:none"/><path id="path498" d="m 101.60196,36.353268 -1.21692,0 c -0.973896,0 -1.708566,0.154652 -2.203495,0.462508 -0.494946,0.308809 -0.742186,0.838536 -0.742186,1.588704 l 0,7.281712 -3.554363,0 0,-12.110336 3.384233,0 0,2.126888 c 0.016,-0.600229 0.35251,-1.146874 1.010076,-1.638997 0.657569,-0.491182 1.342409,-0.737947 2.056865,-0.737947 l 1.26579,0 z" clip-path="none" style="fill:#5c5b5f;fill-opacity:1;fill-rule:nonzero;stroke:none"/><path id="path502" d="m 111.12009,38.52998 0,-1.751336 c 0,-0.383547 -0.14905,-0.679194 -0.4503,-0.888358 -0.29987,-0.208224 -0.83949,-0.312101 -1.61832,-0.312101 -0.86062,0 -1.44063,0.103877 -1.74052,0.312101 -0.30082,0.209164 -0.45029,0.504811 -0.45029,0.888358 l 0,1.751336 z m 3.38374,2.076594 -7.64317,0 0,1.101281 c 0,0.683893 0.23501,1.180245 0.70552,1.488586 0.47051,0.30881 1.35509,0.46298 2.65427,0.46298 1.16802,0 2.48223,-0.175323 3.94262,-0.525963 l 0,2.327121 c -1.49235,0.316331 -3.03405,0.475671 -4.62418,0.475671 -4.17199,0 -6.25705,-1.309035 -6.25705,-3.928985 l 0,-4.352953 c 0,-1.551573 0.48696,-2.660375 1.46087,-3.327818 0.97344,-0.666974 2.42535,-1.000694 4.35717,-1.000694 1.81809,0 3.17365,0.3168 4.06577,0.950401 0.89212,0.634541 1.33818,1.759795 1.33818,3.378111 z" clip-path="none" style="fill:#5c5b5f;fill-opacity:1;fill-rule:nonzero;stroke:none"/><path id="path506" d="m 127.04048,45.510871 c -1.42748,0.28343 -2.75861,0.425379 -3.9915,0.425379 -0.60069,0 -1.07966,-0.0086 -1.43641,-0.0249 -0.35722,-0.01687 -0.80705,-0.06252 -1.35087,-0.137711 -0.54428,-0.07519 -0.98283,-0.203994 -1.31514,-0.388245 -0.33277,-0.183313 -0.66556,-0.421148 -0.99834,-0.712567 -0.33185,-0.29189 -0.58003,-0.684364 -0.74171,-1.176017 -0.16254,-0.492121 -0.24395,-1.071669 -0.24395,-1.739113 l 0,-4.028633 c 0,-0.600228 0.0691,-1.129483 0.20681,-1.588703 0.13874,-0.458279 0.30834,-0.841824 0.5114,-1.150634 0.20257,-0.308341 0.48695,-0.571087 0.85217,-0.788242 0.36473,-0.216214 0.70127,-0.379315 1.00962,-0.487891 0.30834,-0.108092 0.71021,-0.196004 1.20516,-0.262278 0.49541,-0.06722 0.90903,-0.104345 1.24183,-0.112808 0.33277,-0.0086 0.76755,-0.0126 1.30292,-0.0126 0.89164,0 2.08552,0.149937 3.57834,0.450758 l 0,2.401386 c -1.68835,-0.400466 -2.97012,-0.600228 -3.84674,-0.600228 -1.639,0 -2.45872,0.566857 -2.45872,1.701511 l 0,4.453068 c 0,1.285066 0.90057,1.926658 2.70173,1.926658 0.84371,0 2.10197,-0.182844 3.7734,-0.550407 z" clip-path="none" style="fill:#5c5b5f;fill-opacity:1;fill-rule:nonzero;stroke:none"/><path id="path510" d="m 136.97412,45.810753 c -0.68155,0.08319 -1.33911,0.125486 -1.97226,0.125486 -0.55134,0 -1.03453,-0.02162 -1.44815,-0.06297 -0.41363,-0.04185 -0.84466,-0.141474 -1.29117,-0.29988 -0.4456,-0.157931 -0.81128,-0.366625 -1.09519,-0.625612 -0.2839,-0.258987 -0.51985,-0.62561 -0.70597,-1.101281 -0.18615,-0.47567 -0.27919,-1.038298 -0.27919,-1.688821 l 0,-6.3299 -2.38682,0 0,-2.251448 2.38682,0 0,-3.502666 3.55389,0 0,3.502666 3.23804,0 0,2.251448 -3.23804,0 0,5.704289 c 0,0.834776 0.12177,1.397871 0.36475,1.68929 0.24441,0.29189 0.77976,0.438069 1.60749,0.438069 0.27497,0 0.69753,-0.04136 1.2658,-0.125485 z" clip-path="none" style="fill:#5c5b5f;fill-opacity:1;fill-rule:nonzero;stroke:none"/><path id="path514" d="m 149.51077,38.805416 -1.99668,-6.104757 -0.0969,0 -1.99573,6.104757 z m 6.08597,6.880308 -3.84674,0 -1.41196,-4.278218 -5.76869,0 -1.38895,4.278218 -3.74802,0 5.84249,-16.238616 4.6251,0 z" clip-path="none" style="fill:#737277;fill-opacity:1;fill-rule:nonzero;stroke:none"/><path id="path518" d="m 165.40673,42.058028 0,-4.878917 c 0,-0.600699 -0.15698,-1.017617 -0.47424,-1.251221 -0.31727,-0.233136 -0.99412,-0.349705 -2.0329,-0.349705 -1.0867,0 -1.76121,0.108108 -2.02066,0.324321 -0.25946,0.217155 -0.38965,0.684365 -0.38965,1.401633 l 0,4.62886 c 0,0.667444 0.13017,1.121495 0.38965,1.363559 0.25945,0.242066 0.86862,0.362863 1.8256,0.362863 1.15253,0 1.89095,-0.103877 2.2162,-0.312569 0.32432,-0.208694 0.486,-0.638302 0.486,-1.288824 m 3.55486,3.628164 -3.43312,0 0,-1.376247 c -0.27495,0.449818 -0.52691,0.77884 -0.75439,0.988473 -0.22703,0.207754 -0.5678,0.366625 -1.02278,0.474731 -0.45311,0.108577 -1.10317,0.163101 -1.94735,0.163101 -2.0122,0 -3.32735,-0.258987 -3.94402,-0.776019 -0.61573,-0.517036 -0.92502,-1.66767 -0.92502,-3.452376 l 0,-4.728978 c 0,-1.367789 0.37791,-2.318193 1.13278,-2.852145 0.7544,-0.533956 1.9431,-0.800932 3.56566,-0.800932 1.16942,0 1.98821,0.112808 2.45872,0.337482 0.47143,0.225613 0.90949,0.646762 1.31466,1.263441 l 0,-6.75528 3.55486,0 z" clip-path="none" style="fill:#737277;fill-opacity:1;fill-rule:nonzero;stroke:none"/><path id="path522" d="m 190.36019,45.685724 -3.55484,0 0,-8.382056 c 0,-0.733247 -0.0847,-1.204687 -0.25524,-1.413382 -0.17018,-0.207752 -0.63733,-0.312571 -1.39973,-0.312571 -0.97391,0 -1.56991,0.104814 -1.78942,0.312571 -0.2195,0.208695 -0.32854,0.680135 -0.32854,1.413382 l 0,8.382056 -3.55391,0 0,-8.382056 c 0,-0.733247 -0.0851,-1.204687 -0.25568,-1.413382 -0.17055,-0.207752 -0.63736,-0.312571 -1.40022,-0.312571 -0.97393,0 -1.57038,0.104814 -1.78893,0.312571 -0.21952,0.208695 -0.32903,0.680135 -0.32903,1.413382 l 0,8.382056 -3.55438,0 0,-12.109868 3.55438,0 0,1.475896 c 0.22749,-1.150635 1.38799,-1.725952 3.48105,-1.725952 1.12054,0 1.96003,0.149937 2.51935,0.450758 0.56027,0.29941 0.93818,0.750171 1.13278,1.350398 0.19459,-0.617149 0.56309,-1.071671 1.10786,-1.363089 0.54334,-0.291887 1.39927,-0.438067 2.56778,-0.438067 1.5417,0 2.56871,0.279668 3.07963,0.838064 0.51188,0.558866 0.76709,1.438765 0.76709,2.639693 z" clip-path="none" style="fill:#737277;fill-opacity:1;fill-rule:nonzero;stroke:none"/><path id="path524" d="m 197.20055,45.685724 -3.55438,0 0,-12.109868 3.55438,0 z m 0,-13.535943 -3.55438,0 0,-2.95273 3.55438,0 z" clip-path="none" style="fill:#737277;fill-opacity:1;fill-rule:nonzero;stroke:none"/><path id="path528" d="m 211.85563,45.685724 -3.55437,0 0,-8.406967 c 0,-0.666973 -0.10966,-1.116792 -0.32807,-1.350867 -0.21998,-0.233607 -0.7436,-0.350175 -1.57085,-0.350175 -1.02185,0 -1.67142,0.112808 -1.9478,0.337953 -0.27544,0.224675 -0.4141,0.679666 -0.4141,1.363089 l 0,8.406967 -3.5539,0 0,-12.109868 3.5055,0 0,1.475896 c 0.2759,-1.150635 1.5337,-1.725952 3.77338,-1.725952 1.55863,0 2.62936,0.287187 3.21408,0.862975 0.58377,0.576258 0.87613,1.447224 0.87613,2.614782 z" clip-path="none" style="fill:#737277;fill-opacity:1;fill-rule:nonzero;stroke:none"/></svg>