<svg xmlns="http://www.w3.org/2000/svg" xmlns:svg="http://www.w3.org/2000/svg" xmlns:xlink="http://www.w3.org/1999/xlink" id="Слой_1" width="512" height="512" version="1.0" viewBox="0 0 512 512" xml:space="preserve"><defs id="defs7"><linearGradient id="SVGID_1_-8-1" x1="256" x2="256" y1="512" y2="0" gradientUnits="userSpaceOnUse"><stop id="stop4-8-7" offset="0" style="stop-color:#0c80b1;stop-opacity:1"/><stop id="stop6-2-4" offset="1" style="stop-color:#11a7df;stop-opacity:1"/></linearGradient><linearGradient id="path130_1_-6" x1="255.25" x2="255.25" y1="90.895" y2="421.582" gradientUnits="userSpaceOnUse"><stop id="stop6-1" offset="0" style="stop-color:#e84d4d;stop-opacity:1"/><stop id="stop8-4" offset="1" style="stop-color:#b82626;stop-opacity:1"/></linearGradient><linearGradient id="path132_1_-2" x1="254.5" x2="254.5" y1="57" y2="455" gradientUnits="userSpaceOnUse"><stop id="stop12-3" offset="0" style="stop-color:#e84d4d;stop-opacity:1"/><stop id="stop14-2" offset="1" style="stop-color:#b82626;stop-opacity:1"/></linearGradient><linearGradient id="linearGradient3498" x1="254.5" x2="254.5" y1="57" y2="455" gradientUnits="userSpaceOnUse" xlink:href="#path132_1_-2"/><linearGradient id="linearGradient3814" x1="244.947" x2="243.964" y1="13.084" y2="246.76" gradientUnits="userSpaceOnUse" xlink:href="#linearGradient3030"/><linearGradient id="linearGradient3816" x1="255.25" x2="255.25" y1="90.895" y2="421.582" gradientUnits="userSpaceOnUse" xlink:href="#path130_1_-6"/><linearGradient id="linearGradient3818" x1="254.5" x2="254.5" y1="57" y2="455" gradientUnits="userSpaceOnUse" xlink:href="#path132_1_-2"/><linearGradient id="linearGradient3023" x1="255.25" x2="255.25" y1="90.895" y2="421.582" gradientUnits="userSpaceOnUse"><stop id="stop3025" offset="0" style="stop-color:#e84d4d;stop-opacity:1"/><stop id="stop3027" offset="1" style="stop-color:#b82626;stop-opacity:1"/></linearGradient><linearGradient id="linearGradient3030" x1="254.5" x2="254.5" y1="57" y2="455" gradientUnits="userSpaceOnUse"><stop id="stop3032" offset="0" style="stop-color:#e84d4d;stop-opacity:1"/><stop id="stop3034" offset="1" style="stop-color:#b82626;stop-opacity:1"/></linearGradient><linearGradient id="linearGradient3827" x1="254.5" x2="254.5" y1="57" y2="455" gradientTransform="translate(146.10543,-503.32203)" gradientUnits="userSpaceOnUse" xlink:href="#path132_1_-2"/><linearGradient id="linearGradient3830" x1="255.25" x2="255.25" y1="90.895" y2="421.582" gradientTransform="translate(146.10543,-503.32203)" gradientUnits="userSpaceOnUse" xlink:href="#path130_1_-6"/><linearGradient id="linearGradient3838" x1="0" x2="512" y1="256" y2="256" gradientUnits="userSpaceOnUse" xlink:href="#linearGradient3023"/><linearGradient id="linearGradient3840" x1="0" x2="512" y1="256" y2="256" gradientUnits="userSpaceOnUse" xlink:href="#linearGradient3023"/><linearGradient id="linearGradient3842" x1="0" x2="512" y1="256" y2="256" gradientUnits="userSpaceOnUse" xlink:href="#linearGradient3023"/><linearGradient id="linearGradient3857" x1="244.947" x2="243.964" y1="13.084" y2="246.76" gradientUnits="userSpaceOnUse" xlink:href="#linearGradient3030"/><linearGradient id="linearGradient3859" x1="244.947" x2="243.964" y1="13.084" y2="246.76" gradientUnits="userSpaceOnUse" xlink:href="#linearGradient3030"/><linearGradient id="linearGradient3865" x1="244.947" x2="243.964" y1="13.084" y2="246.76" gradientUnits="userSpaceOnUse" xlink:href="#linearGradient3030"/><linearGradient id="linearGradient3867" x1="244.947" x2="243.964" y1="13.084" y2="246.76" gradientUnits="userSpaceOnUse" xlink:href="#linearGradient3030"/><linearGradient id="linearGradient3872" x1="244.947" x2="243.964" y1="13.084" y2="246.76" gradientUnits="userSpaceOnUse" xlink:href="#linearGradient3030"/><linearGradient id="linearGradient3874" x1="244.947" x2="243.964" y1="13.084" y2="246.76" gradientUnits="userSpaceOnUse" xlink:href="#linearGradient3030"/><linearGradient id="linearGradient3877" x1="244.947" x2="243.964" y1="13.084" y2="246.76" gradientTransform="matrix(2.2189189,0,0,2.2189189,-27.172888,-33.370323)" gradientUnits="userSpaceOnUse" xlink:href="#linearGradient3030"/><linearGradient id="linearGradient3883" x1="244.947" x2="243.964" y1="13.084" y2="246.76" gradientTransform="matrix(2.2189189,0,0,2.2189189,-27.172883,-33.370323)" gradientUnits="userSpaceOnUse" xlink:href="#linearGradient3030"/><linearGradient id="linearGradient3920" x1="0" x2="512" y1="256" y2="256" gradientUnits="userSpaceOnUse" xlink:href="#linearGradient3023"/><linearGradient id="linearGradient3922" x1="0" x2="512" y1="256" y2="256" gradientUnits="userSpaceOnUse" xlink:href="#linearGradient3023"/><linearGradient id="linearGradient3924" x1="0" x2="512" y1="256" y2="256" gradientUnits="userSpaceOnUse" xlink:href="#linearGradient3023"/><linearGradient id="linearGradient3932" x1="0" x2="512" y1="256" y2="256" gradientUnits="userSpaceOnUse" xlink:href="#linearGradient3023"/><linearGradient id="linearGradient3934" x1="0" x2="512" y1="256" y2="256" gradientUnits="userSpaceOnUse" xlink:href="#linearGradient3023"/><linearGradient id="linearGradient3936" x1="0" x2="512" y1="256" y2="256" gradientUnits="userSpaceOnUse" xlink:href="#linearGradient3023"/><linearGradient id="linearGradient3942" x1="0" x2="512" y1="256" y2="256" gradientUnits="userSpaceOnUse" xlink:href="#linearGradient3023"/><linearGradient id="linearGradient3944" x1="0" x2="512" y1="256" y2="256" gradientUnits="userSpaceOnUse" xlink:href="#linearGradient3023"/><linearGradient id="linearGradient3946" x1="0" x2="512" y1="256" y2="256" gradientUnits="userSpaceOnUse" xlink:href="#linearGradient3023"/><linearGradient id="linearGradient3949" x1="0" x2="512" y1="256" y2="256" gradientTransform="matrix(0,1,-1,0,512,0)" gradientUnits="userSpaceOnUse" xlink:href="#linearGradient3023"/><linearGradient id="linearGradient3952" x1="0" x2="512" y1="256" y2="256" gradientTransform="matrix(0,1,-1,0,512,0)" gradientUnits="userSpaceOnUse" xlink:href="#linearGradient3023"/><linearGradient id="linearGradient3955" x1="0" x2="512" y1="256" y2="256" gradientTransform="matrix(0,1,-1,0,512,0)" gradientUnits="userSpaceOnUse" xlink:href="#linearGradient3023"/></defs><path id="path5" d="M 73.125 0 C 32.73606 0 -4.6259293e-018 32.73606 0 73.125 L 0 438.84375 C -0.0089999974 479.23255 32.73606 512 73.125 512 L 438.84375 512 C 479.24122 512 512 479.23255 512 438.84375 L 512 73.125 C 512 32.73606 479.23269 0 438.84375 0 L 73.125 0 z M 218.625 52.53125 L 322.96875 52.53125 L 288.53125 74.1875 L 255.75 74.1875 C 267.91971 84.258656 293.28125 105.45602 293.28125 145.8125 C 293.28125 185.05743 271.07504 203.7212 248.84375 221.21875 C 241.94439 228.10375 234 235.52338 234 247.21875 C 234 258.86623 241.93825 265.24251 247.75 270.0625 L 266.84375 284.84375 C 290.15306 304.47819 311.34875 322.52984 311.34375 359.1875 C 311.34375 409.07854 263.11246 459.46875 172.03125 459.46875 C 95.22312 459.46875 58.1875 422.86013 58.1875 383.5625 C 58.1875 364.46946 67.68434 337.42893 98.9375 318.84375 C 131.7526 298.67269 176.27908 296.0136 200.125 294.375 C 192.67944 284.8261 184.25 274.7512 184.25 258.3125 C 184.25 249.3002 186.87921 244.00211 189.5 237.625 C 183.66429 238.1664 177.86161 238.6875 172.5625 238.6875 C 116.44288 238.6875 84.65625 196.73513 84.65625 155.34375 C 84.65625 130.9612 95.76334 103.89403 118.53125 84.25 C 148.73993 59.311673 189.99264 52.53125 218.625 52.53125 z M 180.03125 72.5625 C 166.21814 72.5625 151.40109 79.46681 142.90625 90.09375 C 133.89395 101.25251 131.28125 115.56919 131.28125 129.40625 C 131.28125 164.94756 151.90417 223.84375 197.46875 223.84375 C 210.7021 223.84375 224.94995 217.49964 233.46875 209 C 245.64804 196.74884 246.71875 179.78204 246.71875 170.21875 C 246.71875 131.99436 223.95721 72.5625 180.03125 72.5625 z M 374.375 169.96875 L 400.59375 169.96875 L 400.59375 223.03125 L 453.8125 223.03125 L 453.8125 249.5 L 400.59375 249.5 L 400.59375 302.90625 L 374.375 302.90625 L 374.375 249.5 L 321.40625 249.5 L 321.40625 223.03125 L 374.375 223.03125 L 374.375 169.96875 z M 205.9375 309.28125 C 201.16544 309.28125 172.57504 310.3334 150.34375 317.8125 C 138.6867 322.03356 104.78125 334.7593 104.78125 372.4375 C 104.78125 410.12529 141.30772 437.25 197.96875 437.25 C 248.82282 437.25 275.84375 412.76926 275.84375 379.90625 C 275.84375 352.76874 258.37359 338.4784 218.09375 309.8125 C 213.87747 309.2807 211.23181 309.28125 205.9375 309.28125 z" transform="translate(-5e-6,0)" style="fill:url(#linearGradient3955);fill-opacity:1"/></svg>