<?xml version="1.0" standalone="no"?>
<!DOCTYPE svg PUBLIC "-//W3C//DTD SVG 20010904//EN"
 "http://www.w3.org/TR/2001/REC-SVG-20010904/DTD/svg10.dtd">
<svg version="1.0" xmlns="http://www.w3.org/2000/svg"
 width="1024.000000pt" height="1024.000000pt" viewBox="0 0 1024.000000 1024.000000"
 preserveAspectRatio="xMidYMid meet">
<metadata>
Created by potrace 1.11, written by Peter Selinger 2001-2013
</metadata>
<g transform="translate(0.000000,1024.000000) scale(0.100000,-0.100000)"
fill="#000000" stroke="none">
<path d="M3309 8956 c-2 -2 -33 -6 -69 -10 -36 -3 -76 -8 -90 -11 -13 -2 -42
-7 -65 -11 -132 -19 -333 -78 -505 -149 -522 -214 -971 -634 -1225 -1145 -20
-41 -45 -95 -55 -120 -10 -25 -29 -70 -43 -100 -14 -30 -39 -90 -57 -132 l-32
-78 -481 -1 c-265 0 -493 -2 -506 -5 -64 -12 -140 -81 -167 -150 -26 -69 -14
-129 79 -410 99 -295 117 -328 203 -370 l54 -26 301 -1 301 -1 -38 -30 c-74
-57 -229 -221 -294 -311 -126 -174 -233 -424 -277 -643 -15 -78 -17 -179 -20
-962 -3 -959 -3 -956 57 -1131 33 -98 113 -254 156 -305 14 -16 35 -40 46 -54
11 -14 28 -33 37 -44 14 -16 16 -75 17 -530 2 -538 6 -593 50 -679 67 -129
190 -225 325 -256 25 -6 212 -10 436 -10 383 -1 394 0 460 22 161 55 277 176
318 332 12 48 15 127 15 410 l0 352 2880 0 2880 0 1 -346 c0 -190 3 -359 5
-376 24 -155 147 -305 303 -367 54 -22 69 -23 459 -26 273 -2 420 0 457 8 189
39 346 210 372 405 3 22 5 265 6 540 l0 500 46 55 c72 85 96 120 141 205 44
86 94 218 105 281 4 21 10 50 13 64 3 14 7 417 8 895 2 922 2 933 -46 1130
-46 189 -184 462 -308 608 -38 45 -190 196 -234 233 l-38 31 298 0 c275 0 301
2 343 20 48 22 86 53 112 94 30 46 188 531 194 594 9 99 -40 185 -130 230
l-51 25 -491 0 -492 0 -83 193 c-45 105 -104 233 -130 282 -255 488 -674 876
-1180 1092 -164 70 -335 123 -480 149 -60 11 -67 12 -117 20 -26 3 -57 9 -68
13 -21 6 -3699 14 -3706 7z m3631 -972 c47 -8 90 -16 95 -18 6 -1 26 -6 45
-10 167 -36 436 -169 561 -278 177 -154 288 -294 383 -485 25 -50 46 -94 46
-97 0 -3 11 -29 24 -58 13 -29 42 -98 66 -153 56 -134 63 -151 94 -217 14 -32
28 -68 31 -81 l6 -24 -3174 0 -3175 0 18 41 c9 23 26 61 37 86 11 25 65 149
119 275 131 308 183 399 314 548 232 262 562 434 925 480 17 2 811 4 1765 5
1488 0 1747 -2 1820 -14z m1525 -2236 c11 -3 40 -11 65 -18 61 -16 155 -58
215 -96 190 -120 330 -330 363 -544 4 -25 7 -405 7 -845 l0 -800 -28 -58 c-36
-72 -86 -122 -157 -156 l-55 -26 -3755 0 -3755 0 -55 26 c-73 35 -126 88 -158
157 l-27 57 0 805 c0 443 3 823 7 845 59 336 331 600 678 658 41 7 6633 2
6655 -5z"/>
<path d="M2014 4959 c-217 -26 -393 -145 -502 -340 -51 -93 -72 -191 -68 -324
3 -89 9 -124 31 -185 58 -158 170 -285 315 -359 68 -34 95 -44 160 -58 63 -13
416 -19 545 -9 240 20 351 50 442 118 144 106 135 296 -23 541 -197 304 -553
585 -777 613 -23 3 -46 6 -52 8 -5 1 -38 -1 -71 -5z"/>
<path d="M8168 4965 c-2 -2 -25 -5 -53 -8 -66 -8 -96 -18 -185 -60 -89 -43
-90 -44 -205 -128 -104 -77 -222 -192 -306 -299 -33 -41 -63 -80 -68 -86 -33
-42 -105 -182 -126 -248 -55 -170 -12 -296 124 -365 131 -67 310 -92 656 -92
248 0 310 10 430 62 166 73 312 259 354 449 17 73 6 255 -18 327 -64 188 -200
331 -384 404 -42 17 -212 50 -219 44z"/>
<path d="M3585 4628 c-58 -33 -65 -58 -65 -217 0 -77 5 -164 11 -193 29 -137
128 -265 256 -332 18 -9 63 -23 100 -32 61 -15 196 -16 1238 -17 1286 0 1233
-2 1347 60 107 59 210 194 237 313 6 25 11 113 11 195 0 132 -2 154 -19 179
-11 16 -30 35 -43 42 -32 18 -3042 20 -3073 2z"/>
</g>
</svg>
