<svg id="Layer_1" data-name="Layer 1" xmlns="http://www.w3.org/2000/svg" viewBox="0 0 879.27 199.84"><defs><style>.cls-1{fill:#f04c43;}.cls-2{fill:#f05146;}</style></defs><title>banner</title><path class="cls-1" d="M359.28,165c-3.8,1.86-12.35,3.86-23.48,3.86-31.63,0-47.92-19.29-47.92-44.83,0-30.6,22.26-47.62,50-47.62,10.72,0,18.87,2.13,22.53,4l-4.21,16.1a45.47,45.47,0,0,0-17.37-3.33c-16.42,0-29.18,9.71-29.18,29.67,0,18,10.86,29.27,29.32,29.27a52.63,52.63,0,0,0,17.24-2.93Z" transform="translate(-60.06 -42.6)"/><path class="cls-1" d="M432,146.65c0,8.51.27,15.43.54,20.89H414.65l-1-9.18h-.41c-2.58,4-8.82,10.64-20.77,10.64-13.44,0-23.35-8.25-23.35-28.34V102.49h20.77v35c0,9.45,3.12,15.17,10.32,15.17a10.87,10.87,0,0,0,11-11.44V102.49H432Z" transform="translate(-60.06 -42.6)"/><path class="cls-1" d="M486.32,167.54,485.1,161h-.41c-4.34,5.19-11.13,8-19,8-13.44,0-21.45-9.58-21.45-20,0-16.9,15.47-25,39-24.88v-.93c0-3.46-1.9-8.38-12.08-8.38a37.92,37.92,0,0,0-18.32,4.92l-3.8-13c4.61-2.53,13.71-5.72,25.79-5.72C496.91,101,504,113.8,504,129.09v22.61a98.89,98.89,0,0,0,1,15.83Zm-2.44-30.73c-10.86-.13-19.28,2.4-19.28,10.24,0,5.19,3.53,7.72,8.14,7.72a11.26,11.26,0,0,0,10.72-7.45,14.24,14.24,0,0,0,.41-3.46Z" transform="translate(-60.06 -42.6)"/><path class="cls-1" d="M520.25,123.24c0-8.11-.27-15-.54-20.75h17.37l1,8.78h.41c2.85-4.12,8.69-10.24,20.09-10.24,8.55,0,15.34,4.26,18.19,11H577a29.46,29.46,0,0,1,8.55-7.85A24.32,24.32,0,0,1,598.17,101c12.76,0,22.4,8.78,22.4,28.2v38.31H600.47V132.15c0-9.45-3.12-14.9-9.77-14.9a10.07,10.07,0,0,0-9.5,7.05,16.6,16.6,0,0,0-.81,5.19v38H560.3V131.09c0-8.25-3-13.84-9.5-13.84-5.29,0-8.42,4-9.64,7.32a13.16,13.16,0,0,0-.81,5.06v37.91H520.25Z" transform="translate(-60.06 -42.6)"/><path class="cls-1" d="M699.56,146.65c0,8.51.27,15.43.54,20.89H682.18l-1-9.18h-.41c-2.58,4-8.82,10.64-20.77,10.64-13.44,0-23.35-8.25-23.35-28.34V102.49h20.77v35c0,9.45,3.12,15.17,10.32,15.17a10.87,10.87,0,0,0,11-11.44V102.49h20.77Z" transform="translate(-60.06 -42.6)"/><path class="cls-1" d="M753.85,167.54,752.63,161h-.41c-4.34,5.19-11.13,8-19,8-13.44,0-21.45-9.58-21.45-20,0-16.9,15.47-25,39-24.88v-.93c0-3.46-1.9-8.38-12.08-8.38a37.92,37.92,0,0,0-18.32,4.92l-3.8-13c4.62-2.53,13.71-5.72,25.79-5.72,22.13,0,29.18,12.77,29.18,28.07v22.61a98.8,98.8,0,0,0,1,15.83Zm-2.44-30.73c-10.86-.13-19.28,2.4-19.28,10.24,0,5.19,3.53,7.72,8.14,7.72A11.26,11.26,0,0,0,751,147.32a14.24,14.24,0,0,0,.41-3.46Z" transform="translate(-60.06 -42.6)"/><path class="cls-1" d="M784,160.39a7.84,7.84,0,0,1,8.11-8.21c4.77,0,8,3.36,8,8.21a8.06,8.06,0,1,1-16.12,0Z" transform="translate(-60.06 -42.6)"/><path class="cls-1" d="M835.05,166.66a28.37,28.37,0,0,1-10.21,1.62c-11.86,0-19.44-7.06-19.44-18.39,0-10.52,7.36-19.13,21-19.13a27,27,0,0,1,8.71,1.4l-1.8,8.31a15.9,15.9,0,0,0-6.38-1.1c-6,0-9.91,4.19-9.84,10.08,0,6.62,4.51,10.08,10.06,10.08a17.91,17.91,0,0,0,6.53-1.1Z" transform="translate(-60.06 -42.6)"/><path class="cls-1" d="M876.79,149.15c0,13.17-9.53,19.2-19.37,19.2-10.74,0-19-6.92-19-18.54s7.81-19.06,19.59-19.06C869.29,130.75,876.79,138.33,876.79,149.15Zm-26.58.37c0,6.18,2.63,10.82,7.51,10.82,4.43,0,7.28-4.34,7.28-10.82,0-5.37-2.1-10.82-7.28-10.82C852.24,138.7,850.22,144.22,850.22,149.51Z" transform="translate(-60.06 -42.6)"/><path class="cls-1" d="M883.85,143c0-4.49-.15-8.31-.3-11.48h9.61l.52,4.86h.23A12.79,12.79,0,0,1,905,130.75c4.73,0,8.48,2.36,10.06,6.11h.15a16.31,16.31,0,0,1,4.73-4.34,13.46,13.46,0,0,1,7-1.77c7.06,0,12.39,4.86,12.39,15.6v21.19H928.22V148c0-5.22-1.73-8.24-5.4-8.24a5.57,5.57,0,0,0-5.25,3.9,9.17,9.17,0,0,0-.45,2.87v21H906V147.38c0-4.56-1.65-7.65-5.25-7.65a5.78,5.78,0,0,0-5.33,4,7.29,7.29,0,0,0-.45,2.8v21H883.85Z" transform="translate(-60.06 -42.6)"/><path class="cls-2" d="M297.56,197.74h-9.93V194.3h26.07v3.44h-9.93v30.12h-6.21Z" transform="translate(-60.06 -42.6)"/><path class="cls-2" d="M318.22,193.41h6.21v12.95h.16a9.72,9.72,0,0,1,3.23-2.09,14,14,0,0,1,5.25-.9c4.92,0,9.12,2.44,9.12,8.51v16H336V212.33c0-2.94-1-5.73-5.25-5.73-2.91,0-5.08,1.29-6.05,3.83a6.94,6.94,0,0,0-.24,1.84v15.58h-6.21Z" transform="translate(-60.06 -42.6)"/><path class="cls-2" d="M374.31,221.29c0,2.69.24,4.78.32,6.57h-5.41l-.4-2.54h-.16a12.38,12.38,0,0,1-8.39,2.94c-6.86,0-9.52-3.29-9.52-9.26V203.76H357v14.69c0,3.78,1,6.57,5.25,6.57,3.63,0,5.25-2.09,5.57-3.19a6.3,6.3,0,0,0,.32-2.19V203.76h6.21Z" transform="translate(-60.06 -42.6)"/><path class="cls-2" d="M398.44,227.86l-.4-2.54h-.24a10.35,10.35,0,0,1-7.75,2.94c-5.25,0-9.28-2.74-9.28-6.87,0-6,7.83-8.71,16.63-8.76v-.75c0-3.24-1.29-5.48-6.21-5.48a17.25,17.25,0,0,0-6.46,1.25L383.35,205a24.91,24.91,0,0,1,9.12-1.59c7.83,0,11.22,3.19,11.22,8.61v10.41a23.73,23.73,0,0,0,.4,5.48Zm-3.23-34,6.38,6.72H397l-3.79-4.28H393l-3.71,4.28h-4.68l6.38-6.72Zm2.34,21.51c-3.23,0-10.73.35-10.73,5.58,0,3.14,2.58,4.28,4.76,4.28,2.74,0,5.08-1.25,5.81-3.63a4,4,0,0,0,.16-1.34Zm-1,18.67c0,1.25-1.45,2.19-3.47,2.19s-3.55-.95-3.55-2.19,1.61-2.24,3.63-2.24S396.58,232.79,396.58,234.09Z" transform="translate(-60.06 -42.6)"/><path class="cls-2" d="M412.4,210c0-2.84-.24-4.28-.32-6.22h5.41l.32,2.89H418c1.69-1.94,4.84-3.29,9-3.29,5.41,0,9.44,2.49,9.44,8.32v16.18h-6.21V212.33c0-2.84-.89-5.73-5.41-5.73a5.92,5.92,0,0,0-5.89,3.93,8.46,8.46,0,0,0-.24,2.14v15.19H412.4Z" transform="translate(-60.06 -42.6)"/><path class="cls-2" d="M457.75,210c0-2.84-.24-4.28-.32-6.22h5.41l.32,3h.16c1.69-1.94,4.68-3.39,8.8-3.39,3.63,0,6.7,1.1,8.15,3.69h.16a10.53,10.53,0,0,1,3.87-2.74,14,14,0,0,1,5.41-.95c5.25,0,9.36,2.39,9.36,8.51v16h-6.13V212.77c0-3.14-.73-6.17-5.49-6.17a6,6,0,0,0-5.73,3.59,9.15,9.15,0,0,0-.24,2.19v15.48h-6.13V212.08c0-2.69-.81-5.48-5.41-5.48-2.5,0-5.08,1.34-5.81,3.88a8.63,8.63,0,0,0-.24,2.09v15.29h-6.13Z" transform="translate(-60.06 -42.6)"/><path class="cls-2" d="M531.19,221.29c0,2.69.24,4.78.32,6.57h-5.41l-.4-2.54h-.16a12.38,12.38,0,0,1-8.39,2.94c-6.86,0-9.52-3.29-9.52-9.26V203.76h6.21v14.69c0,3.78,1,6.57,5.25,6.57,3.63,0,5.25-2.09,5.57-3.19a6.3,6.3,0,0,0,.32-2.19V203.76h6.21Z" transform="translate(-60.06 -42.6)"/><path class="cls-2" d="M555.32,227.86l-.4-2.54h-.24a10.35,10.35,0,0,1-7.75,2.94c-5.25,0-9.28-2.74-9.28-6.87,0-6,7.83-8.71,16.63-8.76v-.75c0-3.24-1.29-5.48-6.21-5.48a17.25,17.25,0,0,0-6.46,1.25L540.23,205a24.91,24.91,0,0,1,9.12-1.59c7.83,0,11.22,3.19,11.22,8.61v10.41a23.75,23.75,0,0,0,.4,5.48Zm-.89-12.45c-3.23,0-10.73.35-10.73,5.58,0,3.14,2.58,4.28,4.76,4.28,2.74,0,5.08-1.25,5.81-3.63a4,4,0,0,0,.16-1.34Z" transform="translate(-60.06 -42.6)"/><path class="cls-2" d="M585.1,203.76,590,217.31c.57,1.64,1.21,3.78,1.7,5.88H592c.4-2,1-4,1.61-5.87l4.84-13.54h6.13l-10.17,24.1h-5.57l-10.17-24.1Z" transform="translate(-60.06 -42.6)"/><path class="cls-2" d="M638.28,199.08a4.94,4.94,0,0,1,1.29,3.19c0,2-1.7,3.58-5.73,3.68l-.48,0v15.29c0,2.69.24,4.78.32,6.57h-5.41l-.4-2.54h-.16a12.38,12.38,0,0,1-8.39,2.94c-6.86,0-9.52-3.29-9.52-9.26V203.76H616v14.69c0,3.78,1,6.57,5.25,6.57,3.63,0,5.25-2.09,5.57-3.19a6.3,6.3,0,0,0,.32-2.19V203.76h4.68c2.18,0,2.83-.5,2.83-1.59a4.33,4.33,0,0,0-1.13-2.64Zm-19.37-5.18,6.21,6.72H621l-8.47-6.72Z" transform="translate(-60.06 -42.6)"/><path class="cls-2" d="M657.48,227.86l-.4-2.54h-.24a10.35,10.35,0,0,1-7.75,2.94c-5.25,0-9.28-2.74-9.28-6.87,0-6,7.83-8.71,16.63-8.76v-.75c0-3.24-1.29-5.48-6.21-5.48a17.25,17.25,0,0,0-6.46,1.25L642.39,205a24.91,24.91,0,0,1,9.12-1.59c7.83,0,11.22,3.19,11.22,8.61v10.41a23.75,23.75,0,0,0,.4,5.48Zm-.89-12.45c-3.23,0-10.73.35-10.73,5.58,0,3.14,2.58,4.28,4.76,4.28,2.74,0,5.08-1.25,5.81-3.63a4,4,0,0,0,.16-1.34Z" transform="translate(-60.06 -42.6)"/><path class="cls-2" d="M683.71,227.86c.08-1.39.32-4.13.32-5.78V193.41h6.21V206.6h.16c2-2.39,4.92-3.24,8.23-3.24,6.05,0,10.65,4.33,10.65,12.2,0,8.71-5.81,12.7-11.86,12.7-4.12,0-6.21-1.49-7.75-3.54h-.24l-.4,3.14Zm6.54-8.51a2.94,2.94,0,0,0,.24,1.49c1.45,3.58,4.12,4.23,5.81,4.23,5,0,6.78-4.18,6.78-9.31,0-4.83-1.86-9.11-6.86-9.11a6.19,6.19,0,0,0-5.81,4.28,6,6,0,0,0-.16,1.69Z" transform="translate(-60.06 -42.6)"/><path class="cls-2" d="M731.73,227.86l-.4-2.54h-.24a10.35,10.35,0,0,1-7.75,2.94c-5.25,0-9.28-2.74-9.28-6.87,0-6,7.83-8.71,16.63-8.76v-.75c0-3.24-1.29-5.48-6.21-5.48a17.25,17.25,0,0,0-6.46,1.25L716.63,205a24.91,24.91,0,0,1,9.12-1.59c7.83,0,11.22,3.19,11.22,8.61v10.41a23.75,23.75,0,0,0,.4,5.48Zm-.89-12.45c-3.23,0-10.73.35-10.73,5.58,0,3.14,2.58,4.28,4.76,4.28,2.74,0,5.08-1.25,5.81-3.63a4,4,0,0,0,.16-1.34Zm5.08-21.51-8.47,6.72h-4.12l6.21-6.72Z" transform="translate(-60.06 -42.6)"/><path class="cls-2" d="M745.69,210c0-2.84-.24-4.28-.32-6.22h5.41l.32,2.89h.16c1.69-1.94,4.84-3.29,9-3.29,5.41,0,9.44,2.49,9.44,8.32v16.18h-6.21V212.33c0-2.84-.89-5.73-5.41-5.73a5.92,5.92,0,0,0-5.89,3.93,8.49,8.49,0,0,0-.24,2.14v15.19h-6.21Z" transform="translate(-60.06 -42.6)"/><path class="cls-2" d="M421.45,74.17a8.31,8.31,0,0,0-8.39,8.23,8.19,8.19,0,0,0,.38,2.45l1.41,2.62,2,3.66,2.3-3.92c-1.72-1-3.1-2.2-3.1-4.81a5.44,5.44,0,1,1,6.91,5.13l-4.19,7.17,2.72,5.07,6.61-12.3,1.41-2.62a8.19,8.19,0,0,0,.38-2.45A8.31,8.31,0,0,0,421.45,74.17Z" transform="translate(-60.06 -42.6)"/><ellipse class="cls-2" cx="361.39" cy="39.8" rx="1.93" ry="1.89"/><path class="cls-2" d="M405.28,57.17c-6.14,0-11.11,3.73-11.11,8.33,0,4.17,4.08,7.62,9.4,8.24h0s2.66,2.61.33,6.46c.18.12,3.1-1.33,4.95-3.52,1.25-1.48,2.15-4.18,3.25-4.46a7.87,7.87,0,0,0,4.3-6.71C416.39,60.9,411.41,57.17,405.28,57.17Zm8.39,11.14a.63.63,0,0,1-.64.63l-.11,0-.35-.17-3.33-1.6V68.4a.75.75,0,0,1-.76.75H398.32a.75.75,0,0,1-.76-.75V62.75a.75.75,0,0,1,.76-.75h10.16a.75.75,0,0,1,.76.75V64l3.33-1.6.39-.19.08,0a.63.63,0,0,1,.64.63Z" transform="translate(-60.06 -42.6)"/><path class="cls-1" d="M199.51,197s-.19,6.36-8.84,6.36H162.14v39a100,100,0,0,0,97.73-95.78H210.76Z" transform="translate(-60.06 -42.6)"/><path class="cls-1" d="M183.61,105.8h0v12.44h28.87s4.7-.42,3.57,4.66l-4.35,19.5H260A99.94,99.94,0,0,0,162.14,42.6V79.32C174.15,80.58,183.57,91.94,183.61,105.8Z" transform="translate(-60.06 -42.6)"/><path class="cls-1" d="M104,122.9c-1.13-5.08,3.57-4.66,3.57-4.66h28.69V105.8h0c0-13.93,9.56-25.34,21.66-26.5V42.6A99.94,99.94,0,0,0,60.06,142.4H108.3Z" transform="translate(-60.06 -42.6)"/><path class="cls-1" d="M129.34,203.4c-8.65,0-8.84-6.36-8.84-6.36l-11.25-50.38H60.15a100,100,0,0,0,97.73,95.78v-39Z" transform="translate(-60.06 -42.6)"/><path class="cls-1" d="M145.71,105.89v12.34h12.17V90.06C151,91.18,145.71,97.84,145.71,105.89Z" transform="translate(-60.06 -42.6)"/><path class="cls-1" d="M174.11,118.23V105.89c0-8-5.19-14.6-12-15.8v28.13Z" transform="translate(-60.06 -42.6)"/></svg>