<svg id="Layer_1" data-name="Layer 1" xmlns="http://www.w3.org/2000/svg" viewBox="0 0 382.89 382.8"><defs><style>.cls-1{fill:#F04C43;}</style></defs><title>logo-mini</title><path class="cls-1" d="M343.76,355.18s-.36,12.17-16.93,12.17H272.18v74.78c101.2-2.12,183.09-82.76,187.2-183.46H365.31Z" transform="translate(-76.65 -59.34)"/><path class="cls-1" d="M313.31,180.4h0v23.83h55.31s9-.81,6.85,8.93c-.68,3-4,18.11-8.33,37.36h92.41c-.12-104.27-83.59-189-187.36-191.18v70.34C295.2,132.09,313.23,153.86,313.31,180.4Z" transform="translate(-76.65 -59.34)"/><path class="cls-1" d="M160.72,213.15c-2.16-9.74,6.85-8.93,6.85-8.93h54.95V180.4h0c.08-26.68,18.3-48.53,41.5-50.76V59.34C160.24,61.51,76.77,146.24,76.65,250.51h92.41C164.76,231.26,161.4,216.2,160.72,213.15Z" transform="translate(-76.65 -59.34)"/><path class="cls-1" d="M209.37,367.35c-16.57,0-16.93-12.17-16.93-12.17l-21.55-96.51H76.82c4.11,100.7,86,181.34,187.2,183.46V367.35Z" transform="translate(-76.65 -59.34)"/><path class="cls-1" d="M240.71,180.58v23.64H264v-54C250.84,152.39,240.71,165.15,240.71,180.58Z" transform="translate(-76.65 -59.34)"/><path class="cls-1" d="M295.12,204.22V180.58c0-15.29-9.94-28-22.94-30.26v53.89Z" transform="translate(-76.65 -59.34)"/></svg>