<svg xmlns="http://www.w3.org/2000/svg" id="Layer_1" data-name="Layer 1" viewBox="0 0 910 156.22"><defs><style>.cls-1{fill:#fff}</style></defs><title>logo-lg</title><path d="M138.06,204.26c-5.31,2.6-17.26,5.39-32.8,5.39-44.18,0-66.93-26.95-66.93-62.62,0-42.74,31.1-66.53,69.78-66.53,15,0,26.36,3,31.48,5.58l-5.88,22.49a63.51,63.51,0,0,0-24.27-4.65c-22.94,0-40.77,13.57-40.77,41.44,0,25.09,15.17,40.88,41,40.88,8.72,0,18.39-1.86,24.08-4.09Z" class="cls-1" transform="translate(-38.32 -53.62)"/><path d="M239.68,178.62c0,11.89.38,21.56.76,29.18h-25L214.08,195h-.57c-3.6,5.57-12.32,14.87-29,14.87-18.77,0-32.61-11.52-32.61-39.58V116.92h29v48.87c0,13.19,4.36,21.18,14.41,21.18,8,0,12.51-5.39,14.41-9.85a15.51,15.51,0,0,0,.95-6.13V116.92h29Z" class="cls-1" transform="translate(-38.32 -53.62)"/><path d="M315.52,207.79l-1.71-9.1h-.57c-6.07,7.25-15.55,11.15-26.55,11.15-18.77,0-30-13.38-30-27.87,0-23.6,21.62-34.94,54.42-34.75v-1.3c0-4.83-2.65-11.71-16.88-11.71-9.48,0-19.53,3.16-25.6,6.87l-5.31-18.21c6.45-3.53,19.15-8,36-8,30.91,0,40.77,17.84,40.77,39.21v31.59c0,8.73.38,17.1,1.33,22.11Zm-3.41-42.93c-15.17-.18-26.93,3.35-26.93,14.31,0,7.25,4.93,10.78,11.38,10.78a15.72,15.72,0,0,0,15-10.41,19.89,19.89,0,0,0,.57-4.83Z" class="cls-1" transform="translate(-38.32 -53.62)"/><path d="M362.92,145.91c0-11.33-.38-21-.76-29h24.27l1.33,12.26h.57c4-5.76,12.14-14.31,28.06-14.31,11.94,0,21.43,5.95,25.41,15.42h.38a41.16,41.16,0,0,1,11.95-11,34,34,0,0,1,17.63-4.46c17.82,0,31.29,12.26,31.29,39.39v53.52H475V158.36c0-13.19-4.36-20.81-13.65-20.81-6.64,0-11.38,4.46-13.27,9.85a23.19,23.19,0,0,0-1.14,7.25v53.15H418.86V156.87c0-11.52-4.17-19.33-13.27-19.33-7.39,0-11.76,5.58-13.46,10.22a18.39,18.39,0,0,0-1.14,7.06v53H362.92Z" class="cls-1" transform="translate(-38.32 -53.62)"/><path d="M613.39,178.62c0,11.89.38,21.56.76,29.18h-25L587.79,195h-.57c-3.6,5.57-12.32,14.87-29,14.87-18.77,0-32.61-11.52-32.61-39.58V116.92h29v48.87C554.61,179,559,187,569,187c8,0,12.51-5.39,14.41-9.85a15.51,15.51,0,0,0,.95-6.13V116.92h29Z" class="cls-1" transform="translate(-38.32 -53.62)"/><path d="M689.23,207.79l-1.71-9.1H687c-6.07,7.25-15.55,11.15-26.55,11.15-18.77,0-30-13.38-30-27.87,0-23.6,21.62-34.94,54.42-34.75v-1.3c0-4.83-2.65-11.71-16.88-11.71-9.48,0-19.53,3.16-25.6,6.87l-5.31-18.21c6.45-3.53,19.15-8,36-8,30.91,0,40.77,17.84,40.77,39.21v31.59c0,8.73.38,17.1,1.33,22.11Zm-3.41-42.93c-15.17-.18-26.93,3.35-26.93,14.31,0,7.25,4.93,10.78,11.38,10.78a15.72,15.72,0,0,0,15-10.41,19.89,19.89,0,0,0,.57-4.83Z" class="cls-1" transform="translate(-38.32 -53.62)"/><path d="M731.35,197.8c0-6.66,4.66-11.47,11.32-11.47s11.2,4.69,11.2,11.47c0,6.54-4.53,11.35-11.32,11.35C736,209.15,731.35,204.34,731.35,197.8Z" class="cls-1" transform="translate(-38.32 -53.62)"/><path d="M802.66,206.56c-2.83,1.23-8.18,2.26-14.26,2.26-16.57,0-27.16-9.87-27.16-25.69,0-14.7,10.28-26.72,29.36-26.72a37.67,37.67,0,0,1,12.16,2L800.25,170a22.22,22.22,0,0,0-8.91-1.54c-8.39,0-13.84,5.86-13.74,14.08,0,9.25,6.29,14.08,14.05,14.08a25,25,0,0,0,9.12-1.54Z" class="cls-1" transform="translate(-38.32 -53.62)"/><path d="M861,182.1c0,18.4-13.32,26.83-27.06,26.83-15,0-26.53-9.66-26.53-25.9s10.91-26.62,27.37-26.62C850.48,156.4,861,167,861,182.1Zm-37.12.51c0,8.63,3.67,15.11,10.49,15.11,6.19,0,10.17-6.06,10.17-15.11,0-7.5-2.94-15.11-10.17-15.11C826.67,167.5,823.84,175.21,823.84,182.61Z" class="cls-1" transform="translate(-38.32 -53.62)"/><path d="M870.82,173.56c0-6.27-.21-11.61-.42-16h13.42l.73,6.78h.32c2.2-3.19,6.71-7.91,15.52-7.91,6.61,0,11.85,3.29,14.05,8.53h.21a22.78,22.78,0,0,1,6.61-6.06A18.8,18.8,0,0,1,931,156.4c9.86,0,17.3,6.78,17.3,21.79v29.6H932.8V180.45c0-7.3-2.41-11.51-7.55-11.51a7.78,7.78,0,0,0-7.34,5.45,12.82,12.82,0,0,0-.63,4v29.39H901.76V179.63c0-6.37-2.31-10.69-7.34-10.69-4.09,0-6.5,3.08-7.45,5.65a10.18,10.18,0,0,0-.63,3.91v29.29H870.82Z" class="cls-1" transform="translate(-38.32 -53.62)"/><path d="M224.91,77.36a11.61,11.61,0,0,0-11.73,11.49,11.44,11.44,0,0,0,.53,3.42l2,3.66,2.75,5.11,3.22-5.47c-2.4-1.37-4.33-3.08-4.33-6.72A7.6,7.6,0,1,1,227,96l-5.86,10,3.8,7.08,9.23-17.19,2-3.66a11.44,11.44,0,0,0,.53-3.42A11.61,11.61,0,0,0,224.91,77.36Z" class="cls-1" transform="translate(-38.32 -53.62)"/><ellipse cx="186.59" cy="35.24" class="cls-1" rx="2.7" ry="2.64"/><path d="M202.31,53.62c-8.57,0-15.52,5.21-15.52,11.64,0,5.82,5.7,10.64,13.13,11.51h0s3.71,3.65.46,9c.25.17,4.33-1.86,6.91-4.92,1.74-2.07,3-5.84,4.54-6.24,5.6-3.21,6-8.11,6-9.38C217.83,58.83,210.89,53.62,202.31,53.62ZM214,69.18a.88.88,0,0,1-.89.87.85.85,0,0,1-.15,0l-.49-.23-4.66-2.24v1.75a1.05,1.05,0,0,1-1.06,1H192.59a1.05,1.05,0,0,1-1.06-1V61.42a1.05,1.05,0,0,1,1.06-1h14.19a1.05,1.05,0,0,1,1.06,1V63.2L212.49,61l.54-.26.11,0a.88.88,0,0,1,.89.87Z" class="cls-1" transform="translate(-38.32 -53.62)"/></svg>