<svg xmlns="http://www.w3.org/2000/svg" xmlns:xlink="http://www.w3.org/1999/xlink" viewBox="0 0 269.02 85.71"><defs><style>.cls-1{fill:url(#linear-gradient)}.cls-2{fill:url(#linear-gradient-2)}.cls-3{fill:#fff}</style><linearGradient id="linear-gradient" x1="244.86" x2="165.88" y1="88.67" y2="21.07" gradientUnits="userSpaceOnUse"><stop offset="0" stop-color="#009fe3"/><stop offset="1" stop-color="#0062ae"/></linearGradient><linearGradient id="linear-gradient-2" x1="28.5" x2="66.44" y1="28.5" y2="66.43" xlink:href="#linear-gradient"/></defs><title>Asset 4</title><g id="Layer_2" data-name="Layer 2"><g id="Layer_1-2" data-name="Layer 1"><path d="M115.2,34.71H100.37V6.79H95.9V38.1h19.3Zm2.88-2.56c0,3.25,2.57,6.46,7.62,6.46a9.64,9.64,0,0,0,7.62-3.35h.15l.36,2.83h4.12a28.67,28.67,0,0,1-.41-5.39V24.31c0-4.51-1.85-9.2-9.47-9.2a16.74,16.74,0,0,0-8.18,2l1,2.69a13.41,13.41,0,0,1,6.48-1.67c5.1,0,5.66,3.35,5.66,5.2v.46C123.43,23.75,118.08,26.72,118.08,32.16Zm15.08-5.53v3.9a3.9,3.9,0,0,1-.26,1.3,6.18,6.18,0,0,1-6,3.76c-2.32,0-4.27-1.25-4.27-3.9C122.61,27.33,128.22,26.54,133.16,26.63ZM230.79,38.1h4.48v-12a10.47,10.47,0,0,1,.21-1.91A6.12,6.12,0,0,1,241.54,19a7.52,7.52,0,0,1,1.54.14V15.24a5.4,5.4,0,0,0-1.29-.14A7.38,7.38,0,0,0,234.9,20h-.21l-.15-4.41h-4c.15,2.09.21,4.37.21,7Zm-20.17.51c4.07,0,7.1-1.91,8.49-4.41h.1l.21,3.9h4.07c-.15-1.53-.21-3.81-.21-5.81V5.12h-4.53V18.54h-.1c-1.13-1.81-3.71-3.44-7.51-3.44-6.07,0-11.22,4.6-11.17,12.08C200,34,204.59,38.62,210.61,38.62ZM212,18.31a6.36,6.36,0,0,1,6.74,6.46v3.9a6.45,6.45,0,0,1-.21,1.77,6.69,6.69,0,0,1-6.64,4.88c-4.89,0-7.36-3.76-7.36-8.32C204.54,22,207.32,18.31,212,18.31Zm-58.72,20.3a9.57,9.57,0,0,0,8.24-4.18h.1l.26,3.67h4c-.15-1.77-.21-3.81-.21-6.13V15.62h-4.53v13.8a5.46,5.46,0,0,1-.41,2.09,6.55,6.55,0,0,1-6,3.72c-4.12,0-5.56-2.88-5.56-7.16V15.62h-4.53V28.77C144.69,36.66,149.37,38.62,153.28,38.62ZM100.37,61.83h13.48V58.49H100.37v-9.9h14.26V45.2H95.9V76.52H115.4V73.12h-15ZM140.26,54h-4.89l-3.5,4.79c-.82,1.21-1.65,2.37-2.47,3.72h-.15c-.82-1.25-1.6-2.42-2.52-3.67L123.17,54h-5l8.44,11-8.85,11.48h5l3.6-5.06c.93-1.35,1.8-2.56,2.63-3.9h.1c.88,1.35,1.7,2.6,2.68,3.9l3.65,5.06h5.15L131.77,64.9Zm104.42,9.43c-3.24-1.12-4.74-2-4.74-3.81,0-1.67,1.49-3.07,4.17-3.07a10.46,10.46,0,0,1,5.1,1.3l1.13-3a13.49,13.49,0,0,0-6.12-1.39c-5.35,0-8.6,3-8.6,6.6,0,2.69,2.11,4.92,6.59,6.37,3.35,1.12,4.63,2.18,4.63,4.14S245.3,74,242,74a12.79,12.79,0,0,1-6-1.63l-1.13,3.11a15.45,15.45,0,0,0,7,1.53c5.92,0,9.32-2.79,9.32-6.74C251.22,66.9,249,64.95,244.68,63.46Zm-44.31-9.94c-7.26,0-11.68,5.34-11.68,12.13S193.27,77,200.94,77a22,22,0,0,0,8.29-1.39l-.77-2.93a17.92,17.92,0,0,1-6.9,1.16c-4.53,0-8.44-2.28-8.54-7.81h17.5a13.9,13.9,0,0,0,.15-1.9C210.66,60,208.5,53.52,200.37,53.52Zm-7.31,9.57c.36-2.83,2.37-6.64,6.95-6.64,5.1,0,6.33,4,6.28,6.64Zm71.18-47.47-4.94,13.2c-.62,1.63-1.13,3.35-1.59,4.69h-.1c-.41-1.35-1-3.11-1.6-4.6l-5.46-13.29h-4.94l9.21,20.72a3.28,3.28,0,0,1,.31,1.07,2.74,2.74,0,0,1-.36,1A12.64,12.64,0,0,1,251,42.94a12.39,12.39,0,0,1-4,2l1.13,3.44a12.82,12.82,0,0,0,5.56-2.65c3.09-2.42,5.3-6.37,8.54-14.08l6.79-16ZM224.3,63.46c-3.24-1.12-4.74-2-4.74-3.81,0-1.67,1.49-3.07,4.17-3.07a10.46,10.46,0,0,1,5.1,1.3l1.13-3a13.49,13.49,0,0,0-6.12-1.39c-5.35,0-8.6,3-8.6,6.6,0,2.69,2.11,4.92,6.59,6.37,3.35,1.12,4.63,2.18,4.63,4.14S224.92,74,221.63,74a12.79,12.79,0,0,1-6-1.63l-1.13,3.11a15.45,15.45,0,0,0,7,1.53c5.92,0,9.32-2.79,9.32-6.74C230.84,66.9,228.63,64.95,224.3,63.46Zm-66.39-9.94c-4.07,0-7,1.63-8.85,4.37H149L148.75,54h-4.07c.1,2.14.21,4.46.21,7.34V85.71h4.48V73.5h.1C151,75.73,153.85,77,157.14,77c5.87,0,11.32-4,11.32-12.08C168.46,58.12,163.93,53.52,157.91,53.52Zm-1.54,20.3A6.89,6.89,0,0,1,149.58,69a8.3,8.3,0,0,1-.21-1.67V63.51a6.06,6.06,0,0,1,.31-1.67,7.1,7.1,0,0,1,6.85-5.06c4.79,0,7.41,3.86,7.41,8.36C163.93,70.29,161.16,73.82,156.37,73.82Zm33.5-35.72h4.53V24.68c0-7.71-5.35-9.57-8.8-9.57a9.35,9.35,0,0,0-8.24,4.23h-.1L177,15.62h-4c.15,1.86.21,3.76.21,6.09V38.1h4.53V24.58a5.37,5.37,0,0,1,.31-1.91,6.36,6.36,0,0,1,6.07-4.18c4.27,0,5.76,3,5.76,6.64ZM178.29,58.44h-.21L177.93,54h-4c.15,2.09.21,4.37.21,7V76.52h4.48v-12a10.47,10.47,0,0,1,.21-1.91,6.12,6.12,0,0,1,6.07-5.25,7.44,7.44,0,0,1,1.54.14V53.66a5.35,5.35,0,0,0-1.29-.14A7.38,7.38,0,0,0,178.29,58.44Z" class="cls-1"/><rect width="84" height="84" class="cls-2" rx="10" ry="10"/><path d="M21.83,28.29s-.5-4.5-8-7.75-8.75-6.5-9.25-8-1.75,2.75,1,6.25c-1.5.25-.5,4.75,3.25,6.5-2,.25-.58,3.33,1.58,4.67-2-.5-1,3.17,2.67,4-1.83.17-.17,2.67,2.83,3.17-1.67.5.5,2.5,2.17,2.83,0,0,.42,0,.25-.5,0,0-1.5-.58-1.83-1.58s1.33-.83.92-1-3.08-.42-3.75-1.5,1.83-1,1.83-1a12.39,12.39,0,0,1-4.5-2.5c-1.5-1.58,1.83-.58,1.83-.58C11.75,30.29,9.08,28.21,9,27s2.42-.17,2.42-.17S7.58,24,6.83,22.12s1.08-1.75,1.08-1.75a11.69,11.69,0,0,1-2.67-4.08c.5,1.25,2.25,3,6.58,5s9.42,5.42,9.08,9.42" class="cls-3"/><path d="M20.08,33.83a10.82,10.82,0,0,0-3.85-7.34c-3.73-3.15-4.78-3.61-4.78-3.61S19.73,30.1,19.38,36" class="cls-3"/><path d="M58.51,41.08s3.34-3.06,11.12-.56,10.87.87,12.23.07-.49,3.22-4.87,4c1,1.18-2.75,3.9-6.73,2.75,1.34,1.5-1.76,2.89-4.27,2.47,1.83.94-1.33,3-4.64,1.25,1.27,1.33-1.63,2.12-4.22.52.92,1.47-2,1.55-3.5.71a2.85,2.85,0,0,1-.57-.54s2.23.55,3.13,0-.45-1.51,0-1.36,2.6,1.72,3.81,1.34-.72-2-.72-2a12.4,12.4,0,0,0,5,1.08c2.17-.2-1-1.65-1-1.65,1.47,0,4.85.15,5.74-.74s-1.71-1.72-1.71-1.72,4.75.39,6.52-.49.34-2,.34-2A11.71,11.71,0,0,0,78.9,43c-1.2.61-3.67.78-8.25-.57s-11.93-1.34-14.32,1.89h0A6,6,0,0,1,58.51,41.08Z" class="cls-3"/><path d="M56.19,46.4a10.82,10.82,0,0,1,7.73-3c4.88.09,6,.43,6,.43S58,43.71,54.33,48.42A7.55,7.55,0,0,1,56.19,46.4Z" class="cls-3"/><path d="M68.44,24.5a3.76,3.76,0,0,0-.42-.69h0c-.11-.14-.23-.29-.42-.5-.64-.72-1.89-2-3.12-3.27-.62-.62-1.23-1.22-1.76-1.72a14.81,14.81,0,0,0-1.32-1.14A2.31,2.31,0,0,0,61,17a17,17,0,0,0-2.16-.74c-3.37-1-9.66-2.45-15.41-3.75s-10.94-2.42-12-2.68a9.83,9.83,0,0,0-2.25-.32,3.43,3.43,0,0,0-2,.58A3.29,3.29,0,0,0,26,11.83c-.08.26-.34,1.2-.76,2.68a.93.93,0,0,0,0,.34.91.91,0,0,0-.14.24C22.16,25.47,13.47,57,13.47,57V57a4.39,4.39,0,0,0-.11.94,2.54,2.54,0,0,0,.31,1.26,2.4,2.4,0,0,0,.6.7,4.2,4.2,0,0,0,1.13.61c.4.16.82.28,1.27.42l.5.19c1,.38,2.9,1.21,5.31,2.25,3.62,1.56,8.29,3.59,12.31,5.3,2,.86,3.87,1.63,5.35,2.23.74.3,1.4.55,1.93.75s1,.34,1.28.42a1.28,1.28,0,0,1,.42.07h.18a4.75,4.75,0,0,0,1.39-.27,33.11,33.11,0,0,0,6.25-3.13c1.06-.65,2-1.31,2.8-1.9a11.73,11.73,0,0,0,1-.83,2.83,2.83,0,0,0,.66-.86c.06-.14.12-.3.21-.56.57-1.64,2.21-6.69,4.09-12.51a4.51,4.51,0,0,1-1.85-.4c-1,3-1.89,5.85-2.62,8.06-.43,1.32-.8,2.43-1.07,3.24l-.34,1-.15.42a3.41,3.41,0,0,1-.52.51,35.2,35.2,0,0,1-5.2,3.4,31,31,0,0,1-2.89,1.43l-.09,0L59,26.24,65.18,31c-.76,2.31-1.88,5.76-3.11,9.59a17.75,17.75,0,0,1,2-.15c1.26-3.89,2.37-7.34,3.08-9.48a.94.94,0,0,0,0-.37.92.92,0,0,0,.19-.3c.22-.65.39-1.15.48-1.39a10.23,10.23,0,0,0,.79-3.27A2.68,2.68,0,0,0,68.44,24.5ZM42.74,69.9,42,69.62c-3.06-1.18-8.85-3.67-14.05-5.92l-7-3-2.41-1c-.64-.26-1.07-.43-1.35-.52a7.4,7.4,0,0,1-1.68-.64.65.65,0,0,1-.23-.22.68.68,0,0,1-.07-.34,2.55,2.55,0,0,1,.07-.52l.37-1.34c1.63-5.89,8-29.14,10.83-39.14A39.79,39.79,0,0,0,42.24,23.7a66.8,66.8,0,0,0,13.57,1.41h.71Zm11.7-49.48a1.39,1.39,0,0,1-.22.43.89.89,0,0,0-.06.14.93.93,0,0,0-.19.1,1,1,0,0,1-.58.21l-.23,0a.84.84,0,0,1-.46-.35,1.2,1.2,0,0,1-.19-.66,1.39,1.39,0,0,1,.06-.41,1.17,1.17,0,0,1,1-.88l.24,0a.85.85,0,0,1,.46.35,1.19,1.19,0,0,1,.19.66,1.4,1.4,0,0,1-.06.41Zm4.66-1.82a15.59,15.59,0,0,0-1.75,3.86l-1.19,0a.93.93,0,0,0,0-.42L56,21.55a3.25,3.25,0,0,0,.25-.58l-.9-.28.9.28a3.3,3.3,0,0,0,.15-1,3.06,3.06,0,0,0-.52-1.72,2.7,2.7,0,0,0-2.25-1.21,3,3,0,0,0-2.84,2.21,3.28,3.28,0,0,0-.15,1A3.08,3.08,0,0,0,51.14,22l0,.06a65.64,65.64,0,0,1-24-7.71c.3-1.07.5-1.78.55-1.94a1.43,1.43,0,0,1,.49-.8,1.58,1.58,0,0,1,1-.23,8.06,8.06,0,0,1,1.81.27c.66.16,2.72.61,5.48,1.22,4.14.92,9.86,2.19,14.69,3.35,2.41.58,4.61,1.13,6.27,1.58.73.2,1.35.38,1.84.54C59.23,18.42,59.17,18.49,59.09,18.59Zm7,9.64-.07.19-6.19-4.79c.27-.71.57-1.41.86-2a15.59,15.59,0,0,1,.89-1.69h0l0,0c.77.73,1.7,1.66,2.54,2.53.59.6,1.13,1.18,1.55,1.63l.53.58.25.29h0a2.17,2.17,0,0,1,.23.35.81.81,0,0,1,.06.35A8.8,8.8,0,0,1,66.11,28.24ZM40.48,25.75A12,12,0,0,0,37,25.22c-5.81,0-11.24,4.16-13.17,10.41a15.66,15.66,0,0,0-.7,4.6,14.37,14.37,0,0,0,2.4,8A12.23,12.23,0,0,0,32,53.18a12,12,0,0,0,3.52.53c5.8,0,11.24-4.16,13.16-10.41a15.67,15.67,0,0,0,.7-4.6,14.37,14.37,0,0,0-2.4-8A12.22,12.22,0,0,0,40.48,25.75Zm6.45,17c-1.7,5.53-6.48,9.09-11.37,9.08a10.07,10.07,0,0,1-3-.45A10.34,10.34,0,0,1,27,47.22a12.49,12.49,0,0,1-2.07-7,13.76,13.76,0,0,1,.62-4c1.7-5.53,6.48-9.09,11.37-9.09a10.08,10.08,0,0,1,3,.45,10.34,10.34,0,0,1,5.54,4.17,12.5,12.5,0,0,1,2.07,7A13.78,13.78,0,0,1,46.93,42.75ZM39,29.17a9,9,0,0,0-2.65-.4,9.75,9.75,0,0,0-6,2.13,11.24,11.24,0,0,0-3.79,5.57A11.53,11.53,0,0,0,26,39.87a10.64,10.64,0,0,0,1.78,6,9.17,9.17,0,0,0,4.91,3.68,8.9,8.9,0,0,0,2.63.39,9.37,9.37,0,0,0,3-.49,1.42,1.42,0,0,0,.73-.56c.23-.34.91-1.4,1.66-2.74a28.87,28.87,0,0,0,1.66-3.43,12,12,0,0,1,1.22.19,1.41,1.41,0,0,0,1.65-1,11.55,11.55,0,0,0,.42-3.06,10.65,10.65,0,0,0-1.78-6A9.15,9.15,0,0,0,39,29.17Zm3.79,10.71c-.41,0-.86-.08-1.34-.09a1.41,1.41,0,0,0-1.37,1,22.24,22.24,0,0,1-1.8,3.94c-.49.88-1,1.63-1.26,2.11a6.44,6.44,0,0,1-1.64.24,6.11,6.11,0,0,1-1.8-.27,6.34,6.34,0,0,1-3.4-2.56,7.83,7.83,0,0,1-1.29-4.38,8.68,8.68,0,0,1,.39-2.56,8.43,8.43,0,0,1,2.83-4.18,7,7,0,0,1,4.26-1.53,6.15,6.15,0,0,1,1.82.27,6.33,6.33,0,0,1,3.4,2.56,7.83,7.83,0,0,1,1.29,4.37A8.55,8.55,0,0,1,42.76,39.88Zm-2.3-25.7h0ZM37.56,14a1.78,1.78,0,0,0-1.49-.8,1.94,1.94,0,0,0-1.83,1.4h0a2.06,2.06,0,0,0-.09.61,2,2,0,0,0,.33,1.1,1.8,1.8,0,0,0,1,.72,1.76,1.76,0,0,0,.52.08,1.94,1.94,0,0,0,1.83-1.4h0a2.06,2.06,0,0,0,.09-.6A2,2,0,0,0,37.56,14Zm6.58,1.32a1.89,1.89,0,0,0-.56-.08,2,2,0,0,0-1.77,1.09c0-.07,0-.13,0-.2a2.09,2.09,0,0,0-.35-1.17,1.91,1.91,0,0,0-1-.76,1.87,1.87,0,0,0-.55-.08,2.08,2.08,0,0,0-2,1.5,2.21,2.21,0,0,0-.1.65,2.09,2.09,0,0,0,.35,1.17,1.91,1.91,0,0,0,1,.76,1.88,1.88,0,0,0,.55.08,2,2,0,0,0,1.77-1.09c0,.07,0,.13,0,.2a2.1,2.1,0,0,0,.35,1.17,1.91,1.91,0,0,0,1,.76h0a1.89,1.89,0,0,0,.56.08,2.08,2.08,0,0,0,2-1.5,2.23,2.23,0,0,0,.1-.65,2.1,2.1,0,0,0-.35-1.17A1.91,1.91,0,0,0,44.14,15.31Zm-4.19.9-.09.15-.06,0h0l0,0,0-.12v-.09l.09-.15.06,0h0l0,0,0,.12Zm3.67,1.13-.09.15-.06,0h0l0,0,0-.12,0-.09h0l.09-.14.06,0h0l0,0,0,.12ZM32.86,12.22h0a1.75,1.75,0,0,0-.51-.08,1.9,1.9,0,0,0-1.79,1.37h0a2,2,0,0,0-.09.59,1.91,1.91,0,0,0,.32,1.07,1.76,1.76,0,0,0,.94.7h0a1.75,1.75,0,0,0,.51.08A1.9,1.9,0,0,0,34,14.59h0a2,2,0,0,0,.09-.59,1.92,1.92,0,0,0-.32-1.07A1.76,1.76,0,0,0,32.86,12.22Z" class="cls-3"/><polygon points="75 48.17 65 68.33 72.75 48.83 75 48.17" class="cls-3"/><polygon points="68.33 51.67 61.33 66.08 66.33 52.5 68.33 51.67" class="cls-3"/><polygon points="5.42 24.17 5 58 6.5 26 5.42 24.17" class="cls-3"/><polygon points="9.33 34.33 8.42 50.92 10.83 35.75 9.33 34.33" class="cls-3"/></g></g></svg>