<svg xmlns="http://www.w3.org/2000/svg" viewBox="0 0 218.63 74.28"><defs><style>.cls-1{font-size:32.1px;font-family:Harabara, Harabara;letter-spacing:0.02em;}.cls-1,.cls-3{fill:#00a9d7;}.cls-2{fill:#6d6e71;letter-spacing:0.02em;}</style></defs><title>Laundry Express</title><g id="Layer_2" data-name="Layer 2"><g id="Layer_1-2" data-name="Layer 1"><text class="cls-1" transform="translate(0 67.26)">Laundry<tspan class="cls-2" x="107.81" y="0">Express</tspan></text><path class="cls-3" d="M80.05,32.89a3.51,3.51,0,0,1-1.83-2.75h0a2.87,2.87,0,0,1,0-.57h0a4.68,4.68,0,0,1,2.28-3.67h0a10.06,10.06,0,0,1,2-1.08h0L109.12,13.2a1.07,1.07,0,0,1,.86,0h0l26.73,11.93a8.85,8.85,0,0,1,1.81,1.09h0a4.61,4.61,0,0,1,1.94,3.53h0a3.4,3.4,0,0,1-2.37,3.14h0a7.18,7.18,0,0,1-2,.48H82.77a6,6,0,0,1-2.72-.49Zm3.21-6.09s-.17.06-.48.21h0a8.68,8.68,0,0,0-1.11.64h0a2.65,2.65,0,0,0-1.37,1.92h0a1.8,1.8,0,0,0,0,.22h0c.16.85.38,1,.7,1.2h0a4.06,4.06,0,0,0,1.75.26h53.17l.39-.06h0a4.63,4.63,0,0,0,1-.26h0c.7-.32,1-.61,1-1.17h0c.08-1-1.24-2.05-2.05-2.46h0l-.41-.2h0L109.54,15.34,83.26,26.8Zm25.85-11.65.44-1-.44,1Z"/><path class="cls-3" d="M108.37,14.29V11.87a1.05,1.05,0,0,1,.32-.75h0a1.05,1.05,0,0,1,.75-.32h0a4.33,4.33,0,0,0,4.33-4.33h0a4.34,4.34,0,0,0-4.33-4.34h0a4.35,4.35,0,0,0-4.34,4.34h0A1.05,1.05,0,0,1,104,7.53h0A1.06,1.06,0,0,1,103,6.47h0A6.47,6.47,0,0,1,109.44,0h0a6.47,6.47,0,0,1,6.47,6.47h0a6.48,6.48,0,0,1-5.4,6.38h0v1.44a1.07,1.07,0,0,1-1.07,1.06h0a1.07,1.07,0,0,1-1.07-1.06Z"/></g></g></svg>
