<svg xmlns="http://www.w3.org/2000/svg" viewBox="0 0 286.98 39.5"><defs><style>.a,.b{fill:currentColor}</style></defs><title>Laundry Express</title><path d="M69.67,33.36V14.05a2.25,2.25,0,0,1,2.26-2.26h2.19V29.35H84.66v4Z" class="a"/><path d="M96.65,32.67a7.65,7.65,0,0,1-2.79.84,23.69,23.69,0,0,1-2.6.16,6.57,6.57,0,0,1-4-1.22,4.65,4.65,0,0,1-1.7-4,4.37,4.37,0,0,1,1.54-3.77,8.85,8.85,0,0,1,3.92-1.5,3.23,3.23,0,0,0,.75-.1c.29-.06.63-.11,1-.15,1.84-.25,2.76-.79,2.76-1.63a1.17,1.17,0,0,0-1-1.22,6.4,6.4,0,0,0-1.79-.29,4.68,4.68,0,0,0-1.56.25,1.72,1.72,0,0,0-1,.95h-4.2a4.8,4.8,0,0,1,1.76-3.2,7.22,7.22,0,0,1,4.82-1.44A9.38,9.38,0,0,1,97.9,17.5,4,4,0,0,1,99.72,21v5.7a7.17,7.17,0,0,1-.91,3.92A5.65,5.65,0,0,1,96.65,32.67Zm-1-7.71a11.9,11.9,0,0,1-2.44.81l-1.44.32a3.68,3.68,0,0,0-1.63.81,2.5,2.5,0,0,0-.44,1.38,2.07,2.07,0,0,0,.56,1.51,2.41,2.41,0,0,0,1.63.5,3.48,3.48,0,0,0,3.76-3.77Z" class="a"/><path d="M115.53,16.68v9.78q0,4.45-2.32,5.83a9.74,9.74,0,0,1-5.08,1.38,10.06,10.06,0,0,1-4.92-1.5Q101,30.79,101,26.46V16.68h4.39V27.34a2.63,2.63,0,0,0,.87,2.19,3.18,3.18,0,0,0,2,.69,3.31,3.31,0,0,0,2-.69,2.59,2.59,0,0,0,.91-2.19V18.81a2.09,2.09,0,0,1,.59-1.5,2,2,0,0,1,1.54-.63Z" class="a"/><path d="M131.41,33.36h-2.19a2.08,2.08,0,0,1-1.54-.6,2.06,2.06,0,0,1-.6-1.53V22.7a2.56,2.56,0,0,0-.91-2.19,3.26,3.26,0,0,0-2-.69,3.16,3.16,0,0,0-2,.69,2.63,2.63,0,0,0-.88,2.19V33.36h-4.39V23.58c0-2.84.75-4.75,2.23-5.71A9.67,9.67,0,0,1,124,16.31a9.46,9.46,0,0,1,5.08,1.44q2.32,1.44,2.32,5.83Z" class="a"/><path d="M143.78,11.73h2.13a2,2,0,0,1,1.5.66,2.08,2.08,0,0,1,.63,1.47V26.09c0,3-.86,5-2.57,6a10.51,10.51,0,0,1-5.58,1.57,10,10,0,0,1-3.2-.53,5.32,5.32,0,0,1-2.51-1.73,10,10,0,0,1-1.81-6.33,10.19,10.19,0,0,1,1.81-6.33A5.84,5.84,0,0,1,139,16.31a6,6,0,0,1,2.76.62,6,6,0,0,1,2,1.95Zm-7.15,13.16a6.52,6.52,0,0,0,.94,3.83A3.1,3.1,0,0,0,140.26,30a3.06,3.06,0,0,0,2.64-1.32,7,7,0,0,0,.88-3.83,6,6,0,0,0-.95-3.57,3.26,3.26,0,0,0-2.69-1.25,3,3,0,0,0-2.57,1.31A5.74,5.74,0,0,0,136.63,24.89Z" class="a"/><path d="M149.43,33.36V25.27a10.36,10.36,0,0,1,.72-4.11,6.82,6.82,0,0,1,2-2.66,7.61,7.61,0,0,1,2.79-1.38,12.43,12.43,0,0,1,3.29-.44h.63v4.45h-1.45a3.67,3.67,0,0,0-2.69.88,3.77,3.77,0,0,0-.88,2.76v8.59Z" class="a"/><path d="M162.3,39.25V35.8h1.19a3.07,3.07,0,0,0,2-.59c.48-.4.57-1,.28-1.91l-5.83-16.62h4.82l3.39,11.79,3-10.28a1.85,1.85,0,0,1,2-1.51h3l-6.39,19a6.37,6.37,0,0,1-1.88,2.94,6.84,6.84,0,0,1-3.7.76h-.88a1.84,1.84,0,0,0-.47-.1Z" class="a"/><path d="M177.49,33.36V14.05a2.24,2.24,0,0,1,2.25-2.26h13.42v3.7H181.87v4.64h8.41v1.44A2.25,2.25,0,0,1,188,23.83h-6.15v5.52h11.29v4Z" class="b"/><path d="M210.67,33.36h-5l-2.94-5.27-3.08,5.27h-5.08L200,24.77l-5.14-8.09h4.83l2.88,5,3.2-5.39a1.93,1.93,0,0,1,1.88-1.13h3.76l-6.27,9.65Z" class="b"/><path d="M217.14,37.37a2,2,0,0,1-.63,1.5,2,2,0,0,1-1.5.63h-2.13V23.89c0-2.92.85-4.92,2.57-6A10.39,10.39,0,0,1,221,16.31a8.91,8.91,0,0,1,3.16.59,5.87,5.87,0,0,1,2.54,1.73,9.94,9.94,0,0,1,1.88,6.26,10.17,10.17,0,0,1-1.88,6.4,5.87,5.87,0,0,1-4.83,2.38,6.43,6.43,0,0,1-2.75-.56,4.72,4.72,0,0,1-2-1.95Zm7.15-12.29a6.46,6.46,0,0,0-.94-3.76,3.12,3.12,0,0,0-2.7-1.32A3,3,0,0,0,218,21.32a6.37,6.37,0,0,0-.88,3.76,5.71,5.71,0,0,0,.94,3.58,3.12,3.12,0,0,0,2.7,1.31,3,3,0,0,0,2.57-1.31A6.11,6.11,0,0,0,224.29,25.08Z" class="b"/><path d="M230,33.36V25.27a10.36,10.36,0,0,1,.72-4.11,6.89,6.89,0,0,1,2-2.66,7.76,7.76,0,0,1,2.79-1.38,12.49,12.49,0,0,1,3.29-.44h.63v4.45H238a3.7,3.7,0,0,0-2.7.88,3.81,3.81,0,0,0-.88,2.76v8.59Z" class="b"/><path d="M252.09,28.22h3.13a6.83,6.83,0,0,1-2.63,4,8,8,0,0,1-4.89,1.44,7,7,0,0,1-5.58-2.32c-1.34-1.5-2-3.65-2-6.46a9.25,9.25,0,0,1,1.94-6.26,7,7,0,0,1,5.58-2.32,7.52,7.52,0,0,1,5.83,2.25,9.55,9.55,0,0,1,2,6.46v.69a1.11,1.11,0,0,1-.06.44H244.57a4.27,4.27,0,0,0,.94,2.88A3,3,0,0,0,248,30a3.58,3.58,0,0,0,1.82-.44.83.83,0,0,0,.34-.22l.35-.35a1.42,1.42,0,0,1,.47-.5A1.86,1.86,0,0,1,252.09,28.22Zm-7.52-4.89H251a4,4,0,0,0-.88-2.51,3,3,0,0,0-2.32-.88,3,3,0,0,0-2.25.88A3.58,3.58,0,0,0,244.57,23.33Z" class="b"/><path d="M256.43,27.84h4.26a2.32,2.32,0,0,0,.94,1.88,4.47,4.47,0,0,0,2.51.63,4.06,4.06,0,0,0,1.94-.44,1.32,1.32,0,0,0,.76-1.19c0-.75-.88-1.32-2.64-1.69a12,12,0,0,1-1.69-.38,9.9,9.9,0,0,1-4.45-1.94,3.84,3.84,0,0,1-1.25-3,5,5,0,0,1,1.81-3.95,7.85,7.85,0,0,1,4.89-1.44,8.56,8.56,0,0,1,5.21,1.44,5.49,5.49,0,0,1,1.94,4.07H268a2,2,0,0,1-1.82-1.06l-.5-.5a3.37,3.37,0,0,0-2.07-.57,3.7,3.7,0,0,0-1.88.38,1.25,1.25,0,0,0-.57,1.13c0,.66,1.09,1.23,3.26,1.69.25.08.47.15.66.19a2.61,2.61,0,0,0,.53.06A11.64,11.64,0,0,1,270,25a4,4,0,0,1,1.19,3,5,5,0,0,1-2,4.26,9.51,9.51,0,0,1-5.64,1.38,8.29,8.29,0,0,1-5.33-1.44,5,5,0,0,1-1.82-4.2Z" class="b"/><path d="M272.18,27.84h4.26a2.34,2.34,0,0,0,.94,1.88,4.47,4.47,0,0,0,2.51.63,4.1,4.1,0,0,0,1.95-.44,1.33,1.33,0,0,0,.75-1.19c0-.75-.88-1.32-2.63-1.69a11.91,11.91,0,0,1-1.7-.38,9.9,9.9,0,0,1-4.45-1.94,3.84,3.84,0,0,1-1.25-3,5,5,0,0,1,1.82-3.95,7.81,7.81,0,0,1,4.89-1.44,8.55,8.55,0,0,1,5.2,1.44,5.49,5.49,0,0,1,1.94,4.07h-2.69a2,2,0,0,1-1.82-1.06l-.5-.5a3.35,3.35,0,0,0-2.07-.57,3.72,3.72,0,0,0-1.88.38,1.25,1.25,0,0,0-.57,1.13c0,.66,1.09,1.23,3.26,1.69.25.08.47.15.66.19a2.61,2.61,0,0,0,.53.06A11.57,11.57,0,0,1,285.79,25,4,4,0,0,1,287,28a5,5,0,0,1-2,4.26,9.49,9.49,0,0,1-5.64,1.38A8.29,8.29,0,0,1,274,32.23a5,5,0,0,1-1.82-4.2Z" class="b"/><path d="M1.88,32.89A3.51,3.51,0,0,1,.05,30.14h0a2.87,2.87,0,0,1,0-.57H0A4.68,4.68,0,0,1,2.28,25.9h0a10.06,10.06,0,0,1,2-1.08h0L31,13.2a1.07,1.07,0,0,1,.86,0h0L58.54,25.13a8.85,8.85,0,0,1,1.81,1.09h0a4.61,4.61,0,0,1,1.94,3.53h0a3.4,3.4,0,0,1-2.37,3.14h0a7.18,7.18,0,0,1-2,.48H4.6a6,6,0,0,1-2.72-.49ZM5.09,26.8a4.11,4.11,0,0,0-.48.21h0a8.68,8.68,0,0,0-1.11.64h0a2.65,2.65,0,0,0-1.37,1.92h0a1.8,1.8,0,0,0,0,.22h0c.16.85.38,1,.7,1.2h0a4.06,4.06,0,0,0,1.75.26H57.77l.39-.06h0a4.63,4.63,0,0,0,1-.26h0c.7-.32,1-.61,1-1.17h0c.08-1-1.24-2.05-2-2.46h0l-.41-.2h0L31.37,15.34,5.09,26.8ZM30.94,15.15l.44-1-.44,1Z" class="a"/><path d="M30.2,14.29V11.87a1.08,1.08,0,0,1,.31-.75h0a1.09,1.09,0,0,1,.76-.32h0A4.33,4.33,0,0,0,35.6,6.47h0a4.34,4.34,0,0,0-4.33-4.34h0a4.35,4.35,0,0,0-4.34,4.34h0a1.05,1.05,0,0,1-1.06,1.06h0A1.06,1.06,0,0,1,24.8,6.47h0A6.47,6.47,0,0,1,31.27,0h0a6.47,6.47,0,0,1,6.47,6.47h0a6.48,6.48,0,0,1-5.41,6.38h0v1.44a1.06,1.06,0,0,1-1.06,1.06h0a1.07,1.07,0,0,1-1.07-1.06Z" class="a"/></svg>