<svg xmlns="http://www.w3.org/2000/svg" viewBox="0 0 62.29 33.38"><defs><style>.a{fill:currentColor}</style></defs><title>Laundry Express</title><path d="M1.88,32.89A3.51,3.51,0,0,1,.05,30.14h0a2.87,2.87,0,0,1,0-.57H0A4.68,4.68,0,0,1,2.28,25.9h0a10.06,10.06,0,0,1,2-1.08h0L31,13.2a1.07,1.07,0,0,1,.86,0h0L58.54,25.13a8.85,8.85,0,0,1,1.81,1.09h0a4.61,4.61,0,0,1,1.94,3.53h0a3.4,3.4,0,0,1-2.37,3.14h0a7.18,7.18,0,0,1-2,.48H4.6a6,6,0,0,1-2.72-.49ZM5.09,26.8a4.11,4.11,0,0,0-.48.21h0a8.68,8.68,0,0,0-1.11.64h0a2.65,2.65,0,0,0-1.37,1.92h0a1.8,1.8,0,0,0,0,.22h0c.16.85.38,1,.7,1.2h0a4.06,4.06,0,0,0,1.75.26H57.77l.39-.06h0a4.63,4.63,0,0,0,1-.26h0c.7-.32,1-.61,1-1.17h0c.08-1-1.24-2.05-2-2.46h0l-.41-.2h0L31.37,15.34,5.09,26.8ZM30.94,15.15l.44-1-.44,1Z" class="a"/><path d="M30.2,14.29V11.87a1.08,1.08,0,0,1,.31-.75h0a1.09,1.09,0,0,1,.76-.32h0A4.33,4.33,0,0,0,35.6,6.47h0a4.34,4.34,0,0,0-4.33-4.34h0a4.35,4.35,0,0,0-4.34,4.34h0a1.05,1.05,0,0,1-1.06,1.06h0A1.06,1.06,0,0,1,24.8,6.47h0A6.47,6.47,0,0,1,31.27,0h0a6.47,6.47,0,0,1,6.47,6.47h0a6.48,6.48,0,0,1-5.41,6.38h0v1.44a1.06,1.06,0,0,1-1.06,1.06h0a1.07,1.07,0,0,1-1.07-1.06Z" class="a"/></svg>