<?xml version="1.0" standalone="no"?>
<!DOCTYPE svg PUBLIC "-//W3C//DTD SVG 20010904//EN"
 "http://www.w3.org/TR/2001/REC-SVG-20010904/DTD/svg10.dtd">
<svg version="1.0" xmlns="http://www.w3.org/2000/svg"
 width="1746.000000pt" height="1746.000000pt" viewBox="0 0 1746.000000 1746.000000"
 preserveAspectRatio="xMidYMid meet">
<metadata>
Created by potrace 1.11, written by Peter Selinger 2001-2013
</metadata>
<g transform="translate(0.000000,1746.000000) scale(0.100000,-0.100000)"
fill="#000000" stroke="none">
<path d="M8186 16262 c-4 -3 -24 -7 -44 -8 -53 -2 -183 -14 -212 -19 -14 -2
-57 -7 -96 -10 -39 -3 -82 -8 -95 -11 -13 -3 -42 -7 -65 -9 -22 -2 -56 -7 -75
-10 -19 -4 -45 -8 -59 -10 -14 -2 -41 -7 -60 -10 -19 -4 -46 -8 -60 -10 -14
-1 -34 -5 -45 -8 -11 -3 -38 -9 -60 -12 -40 -5 -64 -10 -107 -20 -13 -4 -38
-8 -57 -11 -19 -2 -37 -6 -41 -9 -4 -2 -20 -7 -36 -9 -32 -6 -63 -13 -96 -22
-13 -3 -33 -7 -45 -9 -12 -2 -27 -6 -32 -10 -6 -3 -23 -8 -38 -10 -16 -3 -44
-9 -63 -14 -19 -5 -62 -17 -95 -26 -98 -27 -256 -75 -313 -96 -28 -10 -55 -19
-60 -20 -15 -3 -28 -7 -92 -30 -36 -13 -68 -24 -72 -24 -3 0 -10 -3 -14 -7 -4
-5 -13 -8 -20 -8 -7 0 -25 -5 -41 -12 -15 -6 -30 -12 -33 -13 -3 -1 -18 -7
-33 -13 -16 -7 -31 -12 -34 -12 -3 0 -20 -7 -39 -15 -67 -30 -100 -43 -136
-56 -21 -7 -38 -17 -38 -21 0 -4 -3 -7 -7 -6 -5 2 -28 -6 -53 -16 -25 -11 -48
-19 -52 -18 -5 1 -8 -2 -8 -8 0 -6 -3 -10 -7 -9 -16 2 -53 -14 -53 -22 0 -5
-3 -8 -7 -7 -15 3 -63 -14 -63 -23 0 -5 -3 -8 -7 -7 -11 3 -267 -123 -271
-134 -2 -4 -8 -6 -13 -2 -5 3 -9 0 -9 -5 0 -6 -3 -10 -7 -9 -14 3 -93 -39 -86
-45 3 -4 -1 -7 -11 -7 -9 0 -34 -11 -56 -25 -22 -14 -40 -22 -40 -18 0 5 -5 0
-11 -10 -6 -9 -14 -15 -20 -12 -5 4 -9 1 -9 -5 0 -6 -4 -9 -9 -6 -5 3 -14 -1
-21 -9 -7 -8 -19 -15 -26 -15 -8 0 -14 -4 -14 -10 0 -5 -6 -10 -12 -10 -7 0
-33 -14 -58 -31 -25 -16 -55 -34 -67 -39 -13 -5 -23 -14 -23 -20 0 -6 -4 -8
-10 -5 -5 3 -10 1 -10 -5 0 -6 -4 -8 -10 -5 -5 3 -10 1 -10 -5 0 -6 -4 -9 -9
-6 -5 3 -11 0 -14 -7 -3 -7 -23 -22 -46 -32 -22 -11 -41 -23 -41 -27 0 -5 -6
-8 -14 -8 -8 0 -16 -3 -18 -8 -1 -4 -52 -40 -113 -81 -60 -41 -114 -78 -120
-83 -5 -4 -24 -19 -41 -33 -18 -14 -36 -25 -42 -25 -6 0 -12 -4 -14 -8 -1 -4
-21 -21 -43 -37 -34 -25 -165 -129 -202 -160 -7 -5 -19 -16 -27 -22 -8 -7 -20
-13 -26 -13 -6 0 -9 -4 -6 -9 3 -4 -6 -13 -19 -19 -14 -7 -25 -16 -25 -22 0
-6 -5 -8 -10 -5 -5 3 -10 -2 -10 -11 0 -10 -3 -15 -6 -11 -3 3 -24 -11 -47
-31 -22 -20 -53 -48 -68 -62 -16 -14 -44 -39 -64 -57 -19 -18 -35 -29 -35 -25
-1 4 -7 -4 -15 -18 -8 -14 -14 -22 -15 -18 0 4 -39 -31 -87 -77 -48 -47 -91
-85 -96 -85 -4 0 -6 -3 -4 -7 3 -5 -10 -19 -29 -33 -18 -14 -34 -31 -34 -38 0
-7 -5 -10 -10 -7 -5 3 -10 3 -10 -2 0 -7 -33 -43 -206 -224 -24 -26 -44 -52
-44 -58 0 -7 -5 -9 -10 -6 -5 3 -10 2 -10 -3 0 -5 -13 -22 -30 -38 -16 -16
-30 -32 -30 -36 0 -3 -12 -19 -27 -35 -48 -50 -110 -123 -105 -123 3 0 -5 -8
-16 -19 -12 -10 -22 -23 -22 -29 0 -6 -3 -12 -7 -14 -5 -2 -26 -25 -48 -53
-22 -27 -43 -51 -47 -53 -5 -2 -8 -8 -8 -14 0 -5 -6 -15 -12 -22 -20 -20 -52
-64 -154 -208 -51 -73 -100 -143 -109 -155 -9 -13 -15 -26 -14 -29 0 -4 -4
-10 -9 -13 -10 -6 -107 -152 -107 -162 0 -3 -8 -13 -18 -23 -9 -10 -15 -21
-12 -26 3 -5 1 -10 -3 -12 -5 -1 -30 -39 -57 -83 -26 -44 -54 -88 -63 -97 -8
-10 -12 -18 -7 -18 4 0 0 -11 -9 -24 -15 -24 -28 -46 -83 -143 -13 -24 -20
-43 -16 -43 4 0 3 -4 -3 -8 -16 -11 -83 -139 -77 -146 4 -3 1 -6 -5 -6 -7 0
-12 -9 -12 -20 0 -11 -4 -20 -10 -20 -5 0 -10 -4 -10 -9 0 -5 -23 -57 -50
-115 -28 -59 -51 -112 -53 -119 -1 -7 -6 -15 -10 -18 -5 -3 -9 -12 -11 -20 -1
-8 -12 -34 -23 -59 -29 -61 -54 -123 -57 -135 -1 -5 -7 -19 -12 -30 -6 -11
-21 -49 -34 -85 -13 -36 -30 -76 -37 -89 -6 -14 -10 -28 -7 -33 3 -4 0 -8 -6
-8 -6 0 -9 -4 -6 -8 3 -5 -1 -20 -9 -35 -7 -14 -11 -28 -7 -31 3 -3 0 -6 -7
-6 -7 0 -10 -4 -7 -9 3 -5 -1 -23 -10 -40 -9 -18 -17 -40 -19 -49 -2 -9 -4
-17 -5 -17 -1 0 -3 -8 -6 -17 -2 -10 -6 -26 -8 -35 -3 -10 -5 -18 -6 -18 -1 0
-3 -7 -5 -15 -2 -8 -13 -39 -23 -67 -11 -29 -19 -53 -17 -53 2 0 -2 -15 -10
-34 -8 -18 -11 -37 -7 -40 3 -4 2 -10 -4 -14 -9 -6 -46 -132 -59 -200 -2 -12
-7 -27 -10 -32 -4 -6 -8 -23 -10 -38 -5 -32 -11 -56 -24 -99 -5 -18 -8 -33 -5
-33 3 0 0 -9 -6 -20 -11 -20 -18 -54 -25 -115 -1 -16 -5 -37 -8 -45 -8 -23
-29 -120 -33 -149 -1 -14 -7 -49 -13 -78 -6 -29 -13 -74 -17 -100 -3 -26 -8
-57 -10 -68 -6 -27 -12 -71 -19 -122 -3 -24 -7 -60 -10 -81 -3 -21 -7 -58 -9
-82 -3 -25 -7 -67 -10 -95 -16 -137 -32 -396 -27 -442 1 -8 27 -11 86 -10 47
1 85 -2 85 -6 0 -5 5 -5 11 -1 16 9 190 11 196 1 2 -4 9 -4 15 -1 15 10 98 11
98 1 0 -4 5 -5 11 -1 16 9 190 11 196 1 2 -4 12 -3 21 2 9 5 26 5 37 1 11 -4
29 -4 40 -1 27 9 128 7 143 -3 7 -4 17 -4 24 0 16 10 158 11 158 1 0 -5 5 -5
12 -1 6 4 34 6 62 5 28 -1 56 -2 61 -2 6 1 42 2 80 4 39 1 75 -1 82 -6 7 -5
18 -5 24 -1 17 10 159 11 159 1 0 -5 5 -5 12 -1 6 4 34 6 62 5 28 -1 56 -2 61
-2 6 1 42 2 80 4 39 1 75 -1 82 -6 7 -5 18 -5 24 -1 17 10 169 11 169 1 0 -5
5 -5 11 -1 16 9 190 11 196 1 2 -4 9 -4 15 -1 15 10 98 11 98 1 0 -4 5 -5 11
-1 16 9 190 11 196 1 2 -4 9 -4 15 -1 16 10 88 11 88 1 0 -4 5 -5 12 -1 6 4
34 6 62 5 28 -1 56 -2 61 -2 6 1 42 2 80 4 39 1 75 -1 82 -6 7 -5 18 -5 24 -1
17 10 159 11 159 1 0 -5 5 -5 11 -1 16 9 149 11 149 1 0 -5 5 -5 12 -1 6 4 34
6 62 5 63 -2 61 -2 116 2 25 2 53 -1 63 -5 9 -5 17 -5 17 -1 0 4 17 7 39 7
l39 -2 -4 37 c-2 20 -6 74 -9 121 -3 47 -8 128 -11 180 -4 52 -7 116 -8 142 0
27 -3 48 -6 48 -3 0 -6 33 -6 73 -1 39 -4 108 -8 152 -12 167 -17 242 -21 300
-5 78 -15 231 -18 275 -1 19 -6 40 -10 47 -4 6 -3 14 3 18 6 4 7 11 4 17 -7
11 -13 90 -17 229 -1 43 -6 75 -11 71 -5 -3 -6 0 -2 6 4 7 9 35 12 64 6 74 44
188 71 218 13 14 23 28 23 32 0 11 54 58 67 58 6 0 13 5 15 11 2 5 10 11 18
12 8 2 21 6 29 11 8 5 446 9 976 8 l962 0 3 56 c1 31 3 69 4 85 0 15 3 27 6
27 3 0 6 19 6 43 3 66 19 202 34 282 16 85 20 104 25 130 3 14 7 36 9 48 8 49
76 294 97 352 11 33 22 70 23 83 0 12 7 22 15 22 8 0 12 3 8 6 -6 6 14 70 40
124 10 19 18 37 19 40 3 15 37 84 72 148 22 39 39 72 36 72 -2 0 5 9 16 20 11
11 20 25 20 30 0 6 5 16 10 23 6 7 37 48 69 92 32 44 77 99 99 121 23 23 39
44 36 47 -3 3 4 8 15 12 12 3 19 11 16 16 -4 5 -2 9 2 9 9 0 75 54 120 97 13
13 24 22 26 21 1 0 34 19 72 43 71 45 139 81 151 79 4 -1 10 3 14 10 4 6 13
13 21 14 13 3 23 6 67 23 9 3 20 7 25 8 4 2 9 4 12 5 3 1 8 3 13 4 4 1 25 7
46 14 22 6 43 9 48 6 4 -3 8 -1 8 3 0 5 8 10 18 11 9 1 26 3 37 5 19 4 19 19
20 1413 0 775 -1 1414 -2 1419 -4 11 -99 13 -109 2 -4 -3 -14 -2 -24 3 -10 5
-20 6 -24 2z"/>
<path d="M8948 16258 c-2 -7 -3 -650 -3 -1427 l1 -1415 34 -8 c41 -10 129 -36
150 -45 19 -8 19 -8 53 -17 15 -5 27 -12 27 -17 0 -5 3 -8 8 -7 10 3 126 -54
130 -64 2 -4 9 -8 16 -8 6 0 27 -13 46 -30 19 -16 39 -29 43 -30 5 0 14 -6 22
-12 7 -7 28 -24 46 -38 18 -14 65 -57 103 -95 61 -61 88 -91 156 -172 5 -7 10
-17 10 -22 0 -6 6 -14 14 -18 7 -4 22 -25 33 -45 11 -21 23 -35 25 -32 3 3 8
-7 12 -21 4 -14 11 -25 16 -25 6 0 10 -9 10 -19 0 -11 4 -21 9 -23 12 -4 81
-136 81 -154 0 -8 6 -17 13 -20 8 -3 14 -10 14 -17 0 -7 11 -34 23 -62 13 -27
24 -54 26 -60 9 -33 30 -81 39 -87 6 -4 6 -8 2 -8 -4 0 -3 -9 3 -21 7 -11 14
-32 16 -47 3 -14 8 -30 12 -36 7 -11 11 -28 14 -58 1 -10 5 -18 9 -18 5 0 18
-40 23 -75 6 -38 30 -125 35 -125 3 0 6 -10 7 -22 0 -13 3 -36 6 -53 29 -141
44 -224 53 -287 3 -21 8 -55 11 -75 7 -44 12 -94 18 -176 3 -31 7 -61 11 -66
3 -5 383 -10 908 -11 496 0 913 -2 927 -4 36 -4 134 -37 141 -48 3 -5 9 -9 13
-9 16 2 23 -1 49 -23 15 -13 27 -28 27 -34 0 -5 6 -12 14 -15 17 -7 42 -54 66
-125 22 -66 20 -242 -4 -319 -9 -28 -15 -80 -20 -168 -3 -44 -8 -107 -10 -140
-20 -239 -29 -366 -30 -417 0 -27 -3 -48 -6 -48 -3 0 -5 -24 -6 -53 -1 -28 -4
-90 -8 -137 -3 -47 -9 -125 -12 -175 -3 -49 -7 -101 -10 -115 -2 -14 -7 -68
-9 -120 -3 -52 -8 -112 -10 -133 -3 -32 -1 -39 18 -46 12 -5 31 -6 42 -2 27 9
128 7 143 -3 7 -4 17 -4 24 0 16 10 158 11 158 1 0 -5 5 -5 12 -1 6 4 34 6 62
5 28 -1 56 -2 61 -2 6 1 42 2 80 4 39 1 75 -1 82 -6 7 -5 18 -5 24 -1 17 10
159 11 159 1 0 -5 5 -5 12 -1 6 4 34 6 62 5 28 -1 56 -2 61 -2 6 1 42 2 80 4
39 1 75 -1 82 -6 7 -5 18 -5 24 -1 17 10 159 11 159 1 0 -5 5 -5 12 -1 6 4 34
6 62 5 28 -1 56 -2 61 -2 6 1 42 2 80 4 39 1 76 -2 83 -7 7 -5 17 -5 25 1 6 5
35 7 62 6 57 -3 77 -3 160 0 33 1 65 -2 72 -6 7 -5 18 -5 24 -1 17 10 159 11
159 1 0 -5 5 -5 12 -1 6 4 34 6 62 5 28 -1 56 -2 61 -2 6 1 42 2 80 4 39 1 75
-1 82 -6 7 -5 18 -5 24 -1 17 10 159 11 159 1 0 -5 5 -5 12 -1 6 4 34 6 62 5
28 -1 56 -2 61 -2 6 1 42 2 80 4 39 1 75 -1 82 -6 7 -5 18 -5 24 -1 17 10 159
11 159 1 0 -5 5 -5 12 -1 6 4 34 6 62 5 28 -1 56 -2 61 -2 6 1 42 2 80 4 39 1
75 -1 82 -6 7 -5 18 -5 24 -1 17 10 159 11 159 1 0 -5 5 -5 11 -1 16 9 149 11
149 1 0 -5 5 -5 12 -1 6 4 33 7 60 7 48 -1 56 7 49 50 -1 4 -3 47 -6 95 -8
162 -15 247 -24 317 -5 39 -9 77 -9 85 -1 40 -41 319 -56 395 -2 11 -7 42 -10
69 -4 27 -9 53 -11 56 -3 4 -7 25 -9 47 -3 22 -10 52 -15 66 -5 14 -8 27 -6
29 2 2 -2 28 -10 57 -8 30 -14 57 -13 60 0 3 -1 8 -2 11 -2 7 -10 41 -15 65
-4 20 -11 50 -20 83 -20 75 -36 141 -41 162 -2 14 -8 34 -11 45 -4 11 -8 23
-9 28 -1 4 -2 8 -4 10 -1 1 -3 10 -6 20 -10 42 -43 157 -51 177 -3 8 -7 22 -9
31 -2 9 -9 29 -15 45 -7 16 -13 34 -14 39 -1 6 -3 12 -4 15 -2 3 -4 12 -6 20
-11 48 -183 499 -207 544 -7 12 -13 27 -14 34 -1 7 -12 33 -23 58 -12 24 -31
65 -42 92 -51 112 -104 217 -111 220 -5 2 -6 8 -2 13 3 5 1 9 -4 9 -5 0 -12
13 -15 29 -3 16 -12 35 -19 43 -7 7 -14 20 -16 28 -2 8 -9 18 -15 22 -7 4 -9
8 -5 8 4 0 -6 23 -22 50 -16 28 -27 50 -24 50 3 0 -2 7 -10 16 -9 8 -16 22
-16 30 0 8 -3 14 -8 14 -4 0 -13 15 -21 33 -8 17 -23 44 -33 60 -11 15 -17 27
-13 27 3 0 1 6 -5 13 -21 25 -60 88 -60 97 0 6 -5 10 -11 10 -5 0 -8 4 -5 8 3
5 -6 21 -20 37 -13 15 -24 34 -24 41 0 7 -6 17 -12 21 -7 4 -20 22 -29 38 -31
60 -44 80 -56 88 -7 4 -13 14 -13 22 0 8 -9 20 -20 28 -11 8 -17 17 -13 20 3
4 1 7 -6 7 -7 0 -10 4 -6 9 3 5 -3 16 -13 23 -11 7 -19 16 -18 21 1 10 -37 67
-46 67 -5 0 -8 6 -8 14 0 8 -3 16 -7 18 -11 4 -65 78 -58 78 3 0 -6 11 -20 25
-14 14 -25 29 -25 33 0 4 -10 18 -22 32 -13 14 -43 52 -68 85 -24 33 -51 67
-60 76 -8 9 -24 29 -34 43 -11 15 -27 36 -35 46 -9 10 -32 37 -51 61 -19 23
-48 55 -63 71 -15 15 -25 28 -22 28 3 0 -17 23 -44 50 -27 28 -48 50 -45 50 2
0 -23 27 -56 60 -32 34 -59 63 -59 67 0 3 -12 14 -28 24 -15 10 -24 19 -19 19
6 0 -57 65 -138 145 -81 80 -152 145 -157 145 -6 0 -7 5 -4 10 3 6 2 10 -3 10
-4 0 -31 22 -59 49 -28 27 -54 47 -57 44 -3 -4 -6 2 -6 12 0 10 -3 16 -6 12
-3 -3 -16 4 -29 16 -32 32 -82 76 -145 127 -30 24 -62 52 -70 60 -8 8 -25 22
-36 30 -12 8 -71 53 -131 100 -60 47 -120 93 -134 102 -96 70 -136 99 -146
108 -7 5 -17 10 -23 10 -5 0 -10 4 -10 8 0 5 -12 15 -27 23 -16 8 -30 17 -33
20 -10 12 -163 109 -171 109 -5 0 -9 5 -9 12 0 6 -3 9 -6 5 -4 -3 -12 -1 -20
6 -31 28 -42 35 -62 41 -12 4 -22 12 -22 17 0 6 -4 7 -10 4 -5 -3 -10 -2 -10
3 0 5 -8 12 -17 15 -20 6 -75 39 -83 48 -3 4 -27 19 -55 33 -27 15 -75 41
-105 58 -30 17 -100 55 -155 84 -94 50 -122 64 -235 118 -25 11 -48 26 -52 31
-4 6 -8 7 -8 3 0 -7 -68 23 -131 57 -14 8 -29 12 -33 8 -3 -3 -6 -1 -6 5 0 7
-3 11 -7 10 -5 -1 -18 3 -30 10 -13 7 -23 10 -23 6 0 -3 -6 -2 -13 4 -6 6 -36
20 -66 32 -30 11 -73 29 -95 39 -57 25 -79 34 -91 35 -5 1 -27 9 -48 19 -22 9
-58 22 -80 29 -23 7 -45 17 -49 23 -4 5 -8 7 -8 3 0 -6 -31 3 -130 40 -8 3
-17 6 -20 7 -3 1 -12 4 -20 7 -45 18 -347 106 -375 110 -11 2 -24 6 -30 10 -5
3 -37 11 -70 18 -33 7 -64 15 -70 18 -5 4 -19 7 -30 7 -11 1 -38 6 -60 13 -22
6 -53 14 -70 17 -68 12 -89 16 -95 20 -4 2 -29 7 -56 11 -27 3 -52 8 -55 10
-7 4 -64 15 -99 19 -14 1 -36 5 -50 8 -14 4 -41 9 -60 12 -19 2 -46 7 -60 10
-14 3 -47 7 -75 10 -27 3 -57 8 -65 10 -8 2 -45 6 -81 10 -36 3 -76 8 -90 10
-52 9 -265 28 -326 29 -13 0 -23 4 -23 8 0 5 -8 4 -19 -1 -10 -6 -21 -8 -24
-5 -3 3 -52 7 -110 10 -80 4 -105 2 -109 -8z"/>
<path d="M8946 12091 c1 -482 2 -881 3 -888 1 -8 118 -11 456 -11 l454 0 -5
27 c-2 14 -6 49 -9 76 -10 92 -27 206 -41 275 -3 14 -7 38 -10 55 -2 16 -7 39
-11 50 -4 11 -7 22 -8 25 -7 38 -22 99 -25 103 -1 1 -3 11 -4 22 -14 114 -207
600 -250 627 -6 4 -7 8 -3 8 4 0 -3 15 -17 33 -15 19 -26 37 -26 41 0 20 -146
193 -214 254 -10 9 -23 22 -30 27 -24 23 -105 75 -116 75 -6 0 -13 7 -16 15
-4 8 -14 15 -24 15 -11 0 -22 5 -25 10 -4 6 -11 8 -16 5 -5 -4 -9 -2 -9 2 0 5
-12 13 -27 19 l-28 10 1 -875z"/>
<path d="M8260 12932 c-31 -15 -69 -37 -87 -50 -17 -12 -34 -22 -37 -22 -8 0
-17 -7 -72 -54 -23 -20 -47 -36 -53 -36 -6 0 -11 -4 -11 -9 0 -4 -24 -33 -53
-62 -29 -30 -66 -72 -82 -94 -17 -22 -32 -42 -35 -45 -13 -12 -44 -66 -42 -72
1 -5 -3 -8 -8 -8 -10 0 -27 -34 -28 -54 0 -5 -5 -12 -10 -15 -18 -11 -128
-251 -115 -251 3 0 1 -6 -4 -12 -12 -16 -65 -172 -62 -184 1 -5 -1 -16 -4 -24
-10 -23 -37 -141 -42 -180 -2 -19 -6 -46 -10 -60 -3 -14 -8 -45 -11 -70 -3
-25 -8 -58 -11 -75 -9 -57 -9 -85 1 -85 6 0 5 -4 -2 -9 -8 -4 -13 -11 -13 -15
1 -3 1 -7 1 -8 -1 -2 -3 -58 -6 -125 l-4 -122 439 1 c320 0 441 3 443 12 2 6
3 402 3 881 -1 754 -3 870 -15 872 -8 1 -40 -10 -70 -25z"/>
<path d="M1320 8460 c-14 -3 -46 -5 -72 -3 l-47 2 4 -47 c3 -26 7 -90 10 -142
3 -52 7 -117 10 -145 2 -27 5 -69 6 -92 2 -24 5 -43 8 -43 3 0 6 -17 6 -37 0
-37 10 -139 19 -198 3 -16 7 -48 10 -70 7 -51 13 -89 33 -200 8 -49 17 -99 18
-110 2 -11 6 -36 10 -55 4 -19 9 -44 11 -55 1 -11 5 -30 8 -42 13 -51 17 -69
21 -93 2 -14 13 -61 24 -105 11 -44 17 -83 15 -87 -3 -5 -1 -8 4 -8 6 0 12
-15 15 -32 3 -18 10 -51 16 -73 7 -22 14 -51 17 -64 3 -14 7 -28 10 -33 3 -5
7 -21 10 -36 2 -15 9 -38 14 -52 5 -14 19 -59 31 -100 13 -41 23 -77 24 -80 1
-3 4 -12 8 -20 23 -56 87 -259 87 -274 0 -11 3 -16 6 -13 4 4 17 -25 30 -63
13 -39 32 -89 43 -113 10 -23 29 -69 42 -102 12 -33 31 -75 41 -92 10 -18 16
-33 13 -33 -2 0 9 -26 25 -58 16 -32 30 -65 32 -73 2 -8 5 -16 8 -19 10 -10
63 -129 61 -136 -2 -4 1 -10 6 -13 4 -3 19 -28 33 -56 13 -27 35 -67 47 -87
13 -21 21 -38 17 -38 -3 0 4 -13 15 -29 12 -16 21 -34 21 -40 0 -6 4 -11 10
-11 5 0 9 -3 9 -7 -3 -13 25 -73 33 -73 4 0 8 -5 8 -10 0 -6 11 -28 24 -49 14
-21 22 -42 19 -45 -4 -3 -1 -6 5 -6 7 0 18 -15 26 -32 20 -44 49 -92 59 -96 4
-2 7 -9 7 -16 0 -7 9 -22 20 -34 12 -12 17 -22 13 -22 -4 0 -3 -4 2 -8 13 -9
34 -42 41 -64 4 -10 10 -18 15 -18 5 0 9 -4 9 -10 0 -11 60 -102 75 -112 6 -4
6 -8 2 -8 -4 0 -3 -6 3 -12 10 -11 108 -150 143 -201 6 -11 38 -53 70 -95 81
-108 100 -132 117 -152 43 -52 50 -61 50 -65 0 -3 8 -13 18 -23 9 -10 31 -35
47 -56 27 -35 62 -77 120 -142 11 -12 45 -50 75 -84 30 -35 76 -85 103 -113
26 -27 47 -54 47 -59 0 -4 7 -8 15 -8 8 0 15 -4 15 -8 0 -13 56 -72 68 -72 7
0 12 -5 12 -10 0 -12 130 -140 143 -140 4 0 6 -4 2 -9 -3 -5 4 -12 15 -16 11
-4 18 -11 15 -16 -4 -5 -2 -9 4 -9 5 0 30 -20 55 -45 26 -25 48 -45 50 -45 3
0 22 -18 44 -39 22 -22 43 -37 46 -34 3 4 6 -1 6 -11 0 -9 5 -14 10 -11 6 3
10 -2 10 -11 0 -10 3 -14 7 -11 3 4 19 -7 35 -23 15 -16 28 -28 28 -25 0 2 10
-6 23 -18 38 -36 101 -87 110 -87 5 0 5 -5 1 -12 -4 -6 -3 -8 2 -5 5 3 25 -8
44 -25 19 -17 51 -42 70 -57 19 -14 37 -28 40 -31 3 -3 25 -20 50 -38 25 -18
69 -51 99 -73 29 -21 57 -39 63 -39 5 0 6 -5 3 -10 -3 -6 -1 -10 5 -10 6 0 26
-11 44 -25 18 -14 36 -22 39 -18 4 3 7 1 7 -5 0 -7 35 -34 78 -62 42 -27 82
-53 87 -57 6 -5 28 -20 50 -33 22 -13 42 -28 43 -32 2 -5 7 -6 12 -3 4 3 13
-2 20 -10 7 -8 18 -15 25 -15 8 0 15 -4 17 -8 4 -11 109 -75 238 -145 30 -16
60 -33 65 -37 29 -22 384 -203 455 -233 14 -6 28 -10 33 -9 4 1 7 -3 7 -9 0
-5 4 -8 9 -5 5 4 11 3 13 -2 4 -9 210 -98 220 -94 5 1 8 -2 8 -7 0 -5 12 -12
27 -16 15 -3 47 -15 71 -27 25 -11 54 -21 65 -24 11 -2 25 -8 31 -14 5 -5 17
-10 26 -10 9 0 32 -8 53 -19 20 -10 34 -14 31 -9 -4 6 4 3 17 -5 29 -17 184
-70 193 -64 1 1 10 -4 19 -11 9 -8 21 -11 27 -7 5 3 10 1 10 -4 0 -6 3 -10 8
-9 4 0 14 -1 22 -4 17 -6 102 -32 110 -34 3 0 12 -3 20 -6 8 -3 35 -11 60 -18
77 -21 114 -32 140 -41 14 -5 39 -11 55 -14 17 -3 55 -12 85 -20 30 -9 64 -17
75 -19 11 -2 29 -6 40 -9 21 -6 65 -16 100 -22 11 -2 20 -4 20 -5 0 -1 11 -3
25 -6 14 -2 48 -9 75 -14 85 -17 99 -20 130 -25 40 -6 84 -14 115 -21 25 -6
61 -12 115 -18 17 -2 50 -7 75 -10 25 -3 61 -8 80 -11 19 -2 46 -6 60 -9 14
-2 59 -7 101 -11 42 -3 87 -8 100 -10 23 -4 164 -14 284 -20 l60 -2 0 1876 -1
1876 -1239 2 c-682 2 -1250 4 -1262 6 -13 1 -23 6 -23 11 0 5 -3 7 -6 3 -7 -6
-68 14 -131 43 -24 11 -45 20 -49 20 -9 0 -98 62 -106 74 -4 6 -8 8 -8 4 0 -7
-153 144 -175 173 -56 74 -115 170 -136 222 -6 15 -16 27 -22 27 -6 0 -7 3 -4
6 3 4 1 16 -5 28 -7 11 -13 23 -14 26 -2 8 -15 44 -25 65 -5 11 -11 72 -14
135 -3 63 -8 138 -10 165 -2 28 -6 97 -9 155 -4 57 -9 134 -12 170 -5 65 -11
157 -19 300 -7 104 -13 199 -20 305 -3 50 -8 126 -10 170 -3 44 -7 103 -9 130
-5 46 -9 121 -22 335 -3 47 -7 108 -9 135 -10 134 -19 296 -19 352 -1 35 -3
63 -6 63 -3 0 -6 15 -6 33 -1 17 -4 82 -8 142 -4 61 -7 118 -7 127 0 16 -33
35 -52 30 -26 -7 -89 -7 -93 0 -3 5 -11 5 -17 1 -6 -4 -21 -7 -32 -7 -11 0
-26 3 -32 7 -6 4 -14 4 -17 -1 -5 -9 -47 -9 -63 1 -7 4 -14 4 -17 -1 -5 -9
-47 -9 -63 1 -7 4 -14 4 -17 -1 -5 -9 -47 -9 -63 1 -7 4 -14 4 -17 -1 -5 -9
-47 -9 -63 1 -7 4 -14 4 -17 -1 -5 -9 -47 -9 -63 1 -7 4 -14 4 -17 -1 -5 -9
-47 -9 -63 1 -7 4 -14 4 -17 -1 -5 -9 -47 -9 -63 1 -7 4 -14 4 -17 -1 -5 -9
-47 -9 -63 1 -7 4 -14 4 -17 -1 -5 -9 -47 -9 -63 1 -7 4 -14 4 -17 -1 -5 -9
-47 -9 -63 1 -7 4 -14 4 -17 -1 -6 -10 -48 -8 -66 3 -8 5 -15 5 -17 -1 -2 -5
-22 -8 -45 -6 -66 4 -130 3 -135 -1 -2 -3 -20 -1 -39 3 -18 4 -34 4 -34 0 0
-4 -12 -6 -27 -4 -42 6 -134 6 -140 1 -2 -3 -18 -1 -34 3 -16 5 -29 6 -29 2 0
-4 -19 -6 -42 -4 -66 4 -130 3 -135 -1 -2 -3 -20 -1 -39 3 -18 4 -34 4 -34 0
0 -4 -12 -6 -27 -4 -42 6 -134 6 -140 1 -2 -3 -18 -1 -34 3 -16 5 -29 6 -29 2
0 -4 -19 -6 -42 -4 -66 4 -130 3 -135 -1 -2 -3 -20 -1 -39 3 -18 4 -34 4 -34
0 0 -4 -12 -6 -27 -4 -42 6 -134 6 -140 1 -2 -3 -18 -1 -34 3 -16 5 -29 6 -29
2 0 -4 -19 -6 -42 -4 -66 4 -130 3 -135 -1 -2 -3 -20 -1 -39 3 -18 4 -34 4
-34 0 0 -4 -12 -6 -27 -4 -42 6 -134 6 -140 1 -2 -3 -18 -1 -34 3 -16 5 -29 6
-29 2 0 -4 -19 -6 -42 -4 -66 4 -130 3 -135 -1 -2 -3 -20 -1 -39 3 -18 4 -34
4 -34 0 0 -4 -12 -6 -27 -4 -41 6 -134 6 -139 1 -3 -3 -21 -1 -40 3 -18 4 -34
5 -34 1 0 -8 -63 -9 -70 0 -3 3 -16 3 -30 -1z"/>
<path d="M12311 8460 c-8 -4 -15 -23 -16 -41 -1 -19 -6 -81 -10 -139 -4 -58
-8 -121 -10 -140 -1 -19 -6 -82 -9 -140 -4 -58 -9 -127 -12 -155 -2 -27 -7
-81 -9 -120 -2 -38 -7 -104 -10 -145 -4 -41 -8 -106 -10 -145 -2 -38 -4 -70
-5 -70 -1 0 -3 -29 -5 -65 -12 -187 -15 -239 -19 -280 -3 -25 -7 -92 -10 -150
-4 -58 -9 -133 -11 -167 -3 -34 -8 -97 -10 -140 -2 -43 -4 -78 -5 -78 -1 0 -3
-47 -6 -105 -4 -92 -11 -195 -13 -195 -1 0 -3 -45 -6 -100 -5 -130 -15 -237
-23 -250 -3 -5 -7 -23 -8 -40 -2 -36 -11 -76 -24 -110 -5 -14 -7 -25 -5 -25 3
0 -1 -16 -9 -35 -8 -19 -12 -35 -9 -35 3 0 0 -7 -7 -15 -7 -8 -10 -15 -6 -15
3 0 -5 -22 -19 -50 -14 -27 -22 -50 -19 -50 4 0 0 -7 -7 -16 -14 -17 -33 -48
-45 -74 -14 -29 -115 -150 -125 -150 -6 0 -7 -4 -4 -10 3 -5 2 -10 -3 -10 -5
0 -20 -9 -33 -21 -13 -11 -34 -29 -46 -40 -13 -10 -23 -16 -23 -11 0 4 -4 2
-8 -4 -10 -15 -150 -80 -192 -89 -19 -4 -39 -10 -44 -13 -5 -3 -23 -7 -40 -9
-17 -2 -47 -5 -66 -8 -19 -2 -60 -4 -90 -4 -30 1 -567 1 -1192 2 -1133 2
-1138 2 -1139 -18 -1 -11 -2 -856 -2 -1878 l-2 -1859 130 6 c168 8 270 15 320
21 22 3 69 8 105 10 36 3 81 8 100 11 19 3 51 7 70 9 19 3 53 7 75 10 22 4 51
8 65 10 33 5 109 16 140 21 14 2 48 8 75 14 57 12 74 15 130 24 55 9 83 14
103 20 9 3 28 7 42 10 28 6 62 13 100 21 14 4 36 8 49 11 14 3 28 7 31 9 4 2
20 7 36 9 23 5 184 47 309 82 11 3 32 8 48 11 15 3 27 9 27 12 0 4 6 8 13 9
22 1 49 9 187 57 74 25 140 47 145 49 6 2 22 8 36 14 15 6 35 12 45 14 11 2
21 5 24 8 4 5 157 66 185 74 16 5 85 35 145 63 30 14 61 26 68 26 6 0 12 4 12
9 0 4 3 7 8 6 9 -2 71 26 215 97 59 30 107 51 107 48 0 -3 8 1 18 9 9 8 51 32
92 53 41 21 77 42 78 47 2 4 8 6 13 2 5 -3 9 0 9 6 0 6 4 9 9 6 4 -3 23 6 41
19 18 13 37 22 41 19 5 -3 9 0 9 7 0 7 3 10 6 6 3 -3 14 2 25 11 10 9 40 28
66 42 26 13 50 27 53 30 3 3 39 25 80 50 41 24 77 47 78 52 2 4 8 8 13 8 9 0
239 148 249 161 3 3 25 19 50 34 24 16 50 34 58 41 7 7 26 21 42 31 17 9 30
21 30 25 0 4 5 8 10 8 6 0 16 5 23 10 56 47 74 60 85 60 7 0 10 5 7 10 -3 6
-2 10 2 10 9 0 55 34 85 63 10 9 22 17 27 17 6 0 17 10 25 22 9 12 16 18 16
13 0 -6 11 2 24 18 13 15 26 27 30 27 6 0 54 40 98 83 10 9 23 17 29 17 5 0 7
5 4 10 -3 6 -2 10 4 10 5 0 27 15 48 34 100 91 119 106 126 106 5 0 5 5 2 10
-3 6 -1 10 5 10 13 0 398 384 480 479 30 35 71 81 90 102 69 74 90 99 90 108
0 5 4 11 8 13 5 2 37 39 73 83 35 44 69 85 74 91 6 7 19 24 30 40 11 15 25 32
30 38 6 6 28 36 50 66 22 30 43 57 47 58 5 2 8 10 8 17 0 7 7 16 16 19 9 4 14
9 11 12 -3 4 3 16 14 28 11 11 41 53 67 91 25 39 48 72 52 75 3 3 10 14 17 25
33 56 138 221 144 225 3 3 8 10 10 15 10 24 94 161 104 167 5 4 6 8 2 8 -5 0
1 13 12 29 12 16 21 34 21 40 0 6 4 11 8 11 4 0 14 16 21 35 7 19 16 35 21 35
4 0 11 12 15 27 3 15 10 30 13 33 9 7 53 98 52 106 -1 4 2 10 7 13 18 12 63
112 57 124 -4 7 -3 9 1 4 8 -7 85 142 85 164 0 5 5 9 10 9 6 0 10 7 10 15 0
17 32 87 43 96 5 3 8 8 7 10 -1 2 2 13 5 24 7 20 13 33 59 138 14 31 22 57 19
57 -3 0 0 6 6 13 6 8 12 22 15 33 7 33 30 84 39 84 4 0 5 4 2 10 -3 5 1 24 9
42 16 36 66 174 71 198 2 8 4 15 5 15 1 0 3 7 5 15 2 8 15 48 29 88 13 39 22
72 19 72 -3 0 1 7 8 17 8 9 13 19 13 22 -1 3 0 11 1 16 20 76 48 173 52 185 3
8 7 20 7 25 3 28 30 121 37 131 5 6 6 14 3 17 -4 3 -3 14 1 24 5 10 9 23 9 28
1 6 5 24 9 40 4 17 10 40 12 53 3 12 7 32 10 45 3 12 7 33 9 47 3 14 7 32 10
40 3 8 7 32 10 52 3 21 11 59 17 85 6 27 12 64 14 83 2 19 7 46 10 60 6 28 15
81 20 120 8 61 16 120 21 141 3 13 7 49 9 79 3 30 7 71 9 90 3 19 8 64 11 100
3 36 8 83 10 105 13 137 17 317 6 311 -6 -4 -11 -3 -11 3 0 6 -9 8 -22 3 -29
-9 -59 -9 -75 1 -6 4 -14 4 -17 -1 -5 -9 -47 -9 -63 1 -7 4 -14 4 -17 -1 -5
-9 -47 -9 -63 1 -7 4 -14 4 -17 -1 -5 -9 -47 -9 -63 1 -7 4 -14 4 -17 -1 -5
-9 -47 -9 -63 1 -7 4 -14 4 -17 -1 -5 -9 -47 -9 -63 1 -7 4 -14 4 -17 -1 -5
-9 -47 -9 -63 1 -7 4 -14 4 -17 -1 -5 -9 -47 -9 -63 1 -7 4 -14 4 -17 -1 -5
-9 -47 -9 -63 1 -7 4 -14 4 -17 -1 -6 -10 -48 -8 -66 3 -8 5 -15 5 -17 -1 -2
-5 -22 -8 -45 -6 -66 4 -130 3 -135 -1 -2 -3 -20 -1 -39 3 -18 4 -34 4 -34 0
0 -4 -12 -6 -27 -4 -42 6 -134 6 -140 1 -2 -3 -18 -1 -34 3 -16 5 -29 6 -29 2
0 -4 -19 -6 -42 -4 -66 4 -130 3 -135 -1 -2 -3 -20 -1 -39 3 -18 4 -34 4 -34
0 0 -4 -12 -6 -27 -4 -42 6 -134 6 -140 1 -2 -3 -18 -1 -34 3 -16 5 -29 6 -29
2 0 -4 -19 -6 -42 -4 -66 4 -130 3 -135 -1 -2 -3 -20 -1 -39 3 -18 4 -34 4
-34 0 0 -4 -12 -6 -27 -4 -42 6 -134 6 -140 1 -2 -3 -18 -1 -34 3 -16 5 -29 6
-29 2 0 -4 -19 -6 -42 -4 -66 4 -130 3 -135 -1 -2 -3 -20 -1 -39 3 -18 4 -34
4 -34 0 0 -4 -12 -6 -27 -4 -42 6 -134 6 -140 1 -2 -3 -18 -1 -34 3 -16 5 -29
6 -29 2 0 -4 -19 -6 -42 -4 -66 4 -130 3 -135 -1 -2 -3 -20 -1 -39 3 -18 4
-34 4 -34 0 0 -4 -12 -6 -27 -4 -41 6 -134 6 -139 1 -3 -3 -21 -1 -40 3 -18 4
-34 5 -34 1 0 -3 -16 -6 -35 -6 -19 0 -35 3 -35 7 0 4 -12 3 -27 0 -35 -9 -95
-8 -110 1 -6 4 -14 4 -17 -1 -5 -9 -47 -9 -63 1 -7 4 -14 4 -17 -1 -5 -9 -47
-9 -63 1 -7 4 -14 4 -17 -1 -5 -9 -47 -9 -63 1 -7 4 -14 4 -17 -1 -5 -9 -47
-9 -63 1 -7 4 -14 4 -17 -1 -5 -9 -47 -9 -62 1 -5 3 -16 2 -23 -3z"/>
</g>
</svg>
