<?xml version="1.0" encoding="UTF-8"?>
<!DOCTYPE svg PUBLIC "-//W3C//DTD SVG 1.1//EN" "http://www.w3.org/Graphics/SVG/1.1/DTD/svg11.dtd">
<!-- Creator: CorelDRAW X8 -->
<svg xmlns="http://www.w3.org/2000/svg" xml:space="preserve" width="3716px" height="597px" version="1.1" style="shape-rendering:geometricPrecision; text-rendering:geometricPrecision; image-rendering:optimizeQuality; fill-rule:evenodd; clip-rule:evenodd"
viewBox="0 0 2644 425"
 xmlns:xlink="http://www.w3.org/1999/xlink">
 <defs>
  <style type="text/css">
   <![CDATA[
    .fil0 {fill:#FEFEFE;fill-rule:nonzero}
   ]]>
  </style>
 </defs>
 <g id="Layer_x0020_7">
  <metadata id="CorelCorpID_0Corel-Layer"/>
  <path class="fil0" d="M49 297c-6,6 -13,11 -21,14 -8,4 -18,6 -28,6l8 -28c14,-1 26,-7 36,-18 9,-12 18,-31 27,-59l44 -137c3,-10 7,-23 11,-37 6,-25 18,-38 34,-38 11,0 19,1 23,2 4,2 6,4 6,8 0,4 -3,12 -9,26 -2,5 -3,9 -5,12l-68 174c22,-35 42,-61 60,-78 18,-16 36,-24 53,-24 9,0 16,2 21,7 5,5 7,11 7,19 0,10 -8,35 -24,76l-5 13c-4,8 -7,16 -9,23 -2,8 -3,13 -3,16 0,5 2,9 6,11 4,2 12,3 23,4l-8 28 -4 0c-23,0 -40,-3 -51,-9 -11,-6 -16,-16 -16,-29 0,-6 2,-15 6,-28 4,-12 10,-28 18,-47l2 -4c7,-16 11,-26 11,-29 0,-2 -1,-4 -2,-5 -1,-1 -3,-2 -5,-2 -9,0 -22,11 -39,32 -17,21 -32,46 -45,76 -3,6 -6,14 -9,22 -6,16 -17,24 -34,24 -6,0 -10,0 -12,-1 -2,-1 -4,-3 -4,-6 0,-1 1,-3 2,-5 0,-3 2,-6 3,-9z"/>
  <path id="1" class="fil0" d="M433 162c-4,-3 -8,-6 -12,-7 -3,-1 -7,-2 -11,-2 -8,0 -18,4 -29,11 -10,7 -21,17 -30,29 -9,11 -17,23 -22,36 -5,13 -8,24 -8,33 0,7 2,12 4,16 2,3 6,5 11,5 14,0 29,-11 45,-31 17,-21 34,-51 52,-90zm-22 79c-15,27 -30,46 -45,59 -14,12 -30,18 -47,18 -8,0 -15,-1 -21,-3 -6,-2 -10,-6 -14,-10 -7,4 -15,7 -24,9 -9,2 -19,3 -31,3l8 -28c8,0 15,-1 21,-3 6,-1 11,-4 16,-6 0,-3 -1,-6 -1,-10 0,-3 0,-6 0,-10 0,-11 2,-24 7,-38 5,-14 12,-27 21,-41 15,-20 30,-35 47,-46 17,-10 35,-16 53,-16 9,0 17,2 23,4 7,3 13,7 19,13l3 -9c2,-6 4,-10 6,-11 1,-2 4,-3 8,-3 9,0 18,2 25,5 7,4 11,7 11,12 0,1 -3,8 -9,20 -6,12 -12,23 -16,33 -9,22 -16,40 -21,55 -5,15 -7,26 -7,35 0,5 2,9 5,11 4,2 12,4 24,5l-8 28 -4 0c-22,0 -37,-2 -46,-7 -9,-4 -14,-12 -14,-23 0,-5 1,-11 3,-18 1,-7 4,-16 8,-28z"/>
  <path id="2" class="fil0" d="M463 317l9 -28c17,-3 33,-15 47,-35 15,-21 31,-57 50,-108 -3,-4 -5,-7 -7,-11 -1,-4 -2,-9 -2,-14 0,-10 3,-18 8,-25 6,-7 13,-10 21,-10 8,0 14,2 18,6 5,5 7,10 7,17 0,4 0,7 -1,10 -1,3 -2,5 -3,8 7,5 16,10 28,17 20,11 30,22 30,33 0,9 -5,25 -16,49 -12,23 -17,39 -17,47 0,5 2,9 6,11 3,2 13,4 30,5l-9 28 -6 0c-25,0 -43,-2 -54,-8 -12,-6 -17,-16 -17,-29 0,-11 5,-29 16,-51 10,-23 16,-38 16,-45 0,-3 -2,-6 -6,-9 -3,-3 -10,-8 -18,-13 -19,55 -38,94 -58,117 -20,24 -44,37 -72,38z"/>
  <path id="3" class="fil0" d="M662 317l9 -28c17,-3 33,-15 47,-35 15,-21 31,-57 50,-108 -3,-4 -5,-7 -7,-11 -1,-4 -2,-9 -2,-14 0,-10 3,-18 8,-25 6,-7 13,-10 21,-10 8,0 14,2 18,6 5,5 7,10 7,17 0,4 0,7 -1,10 -1,3 -2,5 -3,8 7,5 16,10 27,17 21,11 31,22 31,33 0,9 -5,25 -16,49 -12,23 -17,39 -17,47 0,5 2,9 6,11 3,2 13,4 29,5l-8 28 -6 0c-25,0 -43,-2 -55,-8 -11,-6 -16,-16 -16,-29 0,-11 5,-29 16,-51 10,-23 16,-38 16,-45 0,-3 -2,-6 -6,-9 -4,-3 -10,-8 -18,-13 -19,55 -39,94 -59,117 -19,24 -43,37 -71,38z"/>
  <path id="4" class="fil0" d="M924 300c-11,5 -21,9 -32,12 -10,3 -21,5 -30,5l8 -28c8,0 16,-2 24,-4 7,-2 15,-6 22,-10 1,-13 3,-28 6,-43 4,-16 9,-34 17,-56 9,-25 16,-42 21,-49 5,-7 10,-11 15,-11 11,0 19,1 24,4 6,2 9,6 9,11 0,3 -3,11 -9,24 -6,13 -11,23 -14,31 -8,18 -13,33 -16,44 -3,12 -5,22 -5,31 0,5 1,9 3,12 3,2 6,4 11,4 10,0 22,-8 35,-24 14,-15 26,-36 37,-62 6,-12 11,-27 17,-45 5,-19 12,-28 21,-28 8,0 15,2 21,5 6,3 9,6 9,11 0,3 -1,8 -5,16 -2,5 -4,10 -5,14l-48 131c8,-2 21,-4 40,-6 1,0 3,0 4,0l-8 28c-14,2 -23,3 -30,4 -7,1 -13,3 -18,4 -10,34 -21,59 -33,76 -12,16 -25,24 -40,24 -7,0 -13,-2 -17,-5 -3,-4 -5,-9 -5,-16 0,-13 5,-26 15,-39 10,-13 23,-23 40,-31 7,-17 13,-33 19,-49 6,-15 11,-31 17,-45 -15,27 -30,47 -44,59 -14,13 -29,19 -45,19 -7,0 -14,-1 -19,-5 -6,-3 -10,-7 -12,-13z"/>
  <path id="5" class="fil0" d="M1096 317l8 -28c16,-2 28,-7 37,-16 9,-9 16,-25 23,-49l18 -63 -21 0c-3,0 -5,0 -6,-1 -1,-1 -2,-2 -2,-4 0,0 0,-1 0,-1 0,-1 1,-1 1,-3l4 -10c0,-3 2,-4 4,-5 2,-1 6,-2 12,-2l15 0 21 -68c1,-4 3,-9 4,-15 4,-18 13,-27 26,-27 9,0 17,1 22,3 5,2 8,6 8,10 0,3 -2,8 -5,16 -2,4 -3,8 -4,10l-24 71 35 0c3,0 5,1 6,1 2,1 2,2 2,4 0,1 0,1 0,2 0,1 0,1 0,2l-4 10c0,2 -2,4 -4,5 -3,2 -6,2 -12,2l-31 0 -21 68c-2,8 -4,14 -5,20 -1,5 -2,10 -2,13 0,8 4,15 12,19 7,5 19,7 34,8l-9 28 -5 0c-18,0 -34,-2 -46,-6 -13,-5 -22,-11 -28,-19 -9,7 -19,13 -30,18 -11,4 -22,7 -33,7z"/>
  <path id="6" class="fil0" d="M1442 162c-3,-3 -7,-6 -11,-7 -4,-1 -7,-2 -11,-2 -8,0 -18,4 -29,11 -10,7 -21,17 -30,29 -9,11 -17,23 -22,36 -5,13 -8,24 -8,33 0,7 1,12 4,16 2,3 6,5 11,5 13,0 29,-11 45,-31 16,-21 34,-51 51,-90zm-21 79c-15,27 -30,46 -45,59 -14,12 -30,18 -47,18 -8,0 -15,-1 -21,-3 -6,-2 -11,-6 -14,-10 -7,4 -15,7 -24,9 -9,2 -19,3 -31,3l8 -28c8,0 15,-1 21,-3 6,-1 11,-4 16,-6 0,-3 -1,-6 -1,-10 0,-3 0,-6 0,-10 0,-11 2,-24 7,-38 5,-14 12,-27 21,-41 14,-20 30,-35 47,-46 17,-10 35,-16 53,-16 9,0 17,2 23,4 7,3 13,7 19,13l3 -9c2,-6 4,-10 6,-11 1,-2 4,-3 7,-3 10,0 19,2 26,5 7,4 11,7 11,12 0,1 -3,8 -9,20 -6,12 -12,23 -16,33 -10,22 -17,40 -21,55 -5,15 -7,26 -7,35 0,5 1,9 5,11 3,2 11,4 24,5l-8 28 -4 0c-22,0 -38,-2 -47,-7 -9,-4 -13,-12 -13,-23 0,-5 1,-11 3,-18 1,-7 4,-16 8,-28z"/>
  <path id="7" class="fil0" d="M1523 297c-6,6 -13,11 -22,14 -8,4 -17,6 -27,6l8 -28c14,-1 27,-7 37,-21 10,-13 20,-34 28,-64 4,-14 8,-31 13,-50 5,-26 14,-39 26,-39 11,0 19,0 24,1 4,2 7,4 7,7 0,3 -5,15 -13,36 -9,22 -17,43 -24,63 22,-35 42,-61 61,-78 18,-16 35,-24 53,-24 9,0 16,2 20,7 5,5 8,11 8,19 0,10 -8,35 -25,75l-5 13c-3,9 -6,17 -8,24 -2,8 -3,13 -3,16 0,5 2,9 6,11 4,2 11,3 23,4l-8 28 -5 0c-23,0 -40,-3 -50,-9 -11,-6 -16,-16 -16,-29 0,-6 2,-15 6,-28 4,-12 10,-28 18,-47l2 -4c7,-16 11,-26 11,-29 0,-2 -1,-4 -2,-5 -1,-1 -3,-2 -6,-2 -8,0 -21,11 -38,32 -17,21 -33,46 -46,76 -2,6 -5,14 -8,22 -6,16 -18,24 -35,24 -5,0 -9,0 -12,-1 -2,-1 -3,-3 -3,-6 0,-1 0,-3 1,-5 1,-3 2,-6 4,-9z"/>
  <path id="8" class="fil0" d="M1885 241c-15,27 -30,46 -45,59 -15,12 -30,18 -47,18 -8,0 -15,-1 -21,-3 -6,-2 -11,-6 -14,-10 -7,4 -15,7 -24,9 -9,2 -20,3 -32,3l9 -28c7,0 14,-1 20,-3 7,-1 12,-4 17,-6 -1,-3 -1,-6 -1,-10 -1,-3 -1,-6 -1,-10 0,-11 3,-24 8,-38 5,-14 12,-27 21,-41 14,-20 30,-35 47,-46 16,-10 34,-16 52,-16 9,0 17,2 24,4 7,3 14,8 20,14 2,-9 4,-15 7,-18 3,-3 10,-4 22,-4 9,0 16,1 19,3 4,1 6,4 6,9 0,2 0,4 -1,6 -1,3 -2,6 -4,12l-62 150c5,-2 12,-3 22,-4 10,-1 17,-1 22,-2l-8 28 -3 1c-20,2 -35,4 -43,7 -15,37 -29,62 -40,77 -12,14 -25,21 -39,21 -9,0 -16,-2 -21,-7 -4,-4 -7,-11 -7,-19 0,-12 5,-23 14,-33 9,-10 23,-20 43,-30 7,-14 14,-29 20,-44 7,-16 13,-32 20,-49zm21 -79c-4,-3 -7,-6 -11,-7 -4,-1 -8,-2 -11,-2 -9,0 -18,4 -29,11 -11,7 -21,17 -31,29 -9,11 -16,23 -21,36 -5,13 -8,24 -8,33 0,7 1,12 4,16 2,3 6,5 10,5 14,0 29,-11 46,-31 16,-21 33,-51 51,-90z"/>
  <path id="9" class="fil0" d="M2001 259c8,0 14,2 19,7 4,5 7,12 7,20 0,10 -3,18 -9,23 -6,6 -13,9 -22,9 -9,0 -15,-2 -20,-7 -5,-4 -7,-11 -7,-20 0,-10 3,-18 8,-24 6,-5 14,-8 24,-8z"/>
  <path id="10" class="fil0" d="M2055 317l8 -28 3 0c13,0 26,-3 40,-10 13,-7 27,-17 40,-31 -2,-8 -5,-20 -8,-34 -10,-44 -20,-66 -30,-68 0,-1 -1,-3 -1,-5 0,-6 3,-12 8,-17 6,-4 12,-7 19,-7 12,0 22,6 29,19 8,12 14,31 17,56 17,-31 30,-51 39,-61 9,-9 19,-14 29,-14 6,0 11,2 15,6 4,4 6,9 6,15 0,2 0,5 -1,7 0,2 -1,4 -3,6 -2,0 -3,0 -4,0 -1,0 -2,0 -2,0 -9,0 -18,7 -30,21 -11,15 -24,36 -38,64 4,16 9,28 17,36 8,8 20,14 34,17l-8 28c0,0 -1,1 -3,1 -2,0 -4,0 -6,0 -16,0 -30,-3 -42,-10 -12,-7 -21,-16 -26,-27 -13,11 -27,20 -43,27 -15,7 -30,10 -43,10 -3,0 -8,0 -15,0 0,0 -1,-1 -1,-1z"/>
  <path id="11" class="fil0" d="M2296 300c-10,5 -21,9 -32,12 -10,3 -20,5 -30,5l8 -28c9,0 17,-2 24,-4 8,-2 15,-6 23,-10 0,-13 2,-28 5,-43 4,-16 10,-34 17,-56 10,-25 17,-42 21,-49 5,-7 10,-11 15,-11 11,0 19,1 25,4 5,2 8,6 8,11 0,3 -3,11 -9,24 -6,13 -11,23 -14,31 -7,18 -13,33 -16,44 -3,12 -4,22 -4,31 0,5 1,9 3,12 2,2 5,4 10,4 10,0 22,-8 35,-24 14,-15 26,-36 38,-62 5,-12 11,-27 16,-45 6,-19 13,-28 21,-28 8,0 16,2 22,5 6,3 9,6 9,11 0,3 -2,8 -5,16 -3,5 -5,10 -6,14l-48 131c8,-2 21,-4 40,-6 2,0 3,0 4,0l-8 28c-13,2 -23,3 -30,4 -7,1 -13,3 -18,4 -9,34 -20,59 -32,76 -12,16 -26,24 -41,24 -7,0 -12,-2 -16,-5 -4,-4 -6,-9 -6,-16 0,-13 5,-26 15,-39 10,-13 23,-23 40,-31 7,-17 13,-33 19,-49 6,-15 12,-31 17,-45 -15,27 -30,47 -44,59 -14,13 -29,19 -45,19 -7,0 -13,-1 -19,-5 -6,-3 -10,-7 -12,-13z"/>
  <path id="12" class="fil0" d="M2573 317c-20,2 -36,8 -47,17 -11,9 -16,21 -16,34 0,5 1,9 5,12 3,3 7,4 12,4 13,0 23,-6 32,-17 10,-12 14,-26 14,-43 0,-1 0,-2 0,-4 0,-1 0,-3 0,-3zm-3 -26c-3,-10 -8,-17 -16,-23 -8,-5 -18,-7 -31,-7 -4,0 -7,-1 -8,-1 -1,-1 -2,-2 -2,-4l0 -1 1 -13c1,-7 6,-10 15,-10 6,0 11,-1 15,-1 15,-3 28,-9 37,-18 10,-10 14,-20 14,-33 0,-7 -2,-13 -6,-17 -4,-4 -10,-6 -17,-6 -4,0 -8,0 -11,2 -4,1 -7,3 -10,6 -4,-1 -6,-3 -8,-5 -1,-3 -2,-7 -2,-11 0,-10 3,-18 11,-25 7,-6 17,-9 29,-9 18,0 33,6 44,18 12,13 17,28 17,47 0,20 -5,37 -16,50 -12,13 -27,21 -46,24 7,4 12,9 17,15 4,5 8,12 11,20 3,0 6,0 8,0 3,0 6,0 10,0 5,0 9,0 11,0 3,0 5,0 7,0l-8 28 -19 0 0 5c0,29 -9,53 -25,72 -17,19 -37,29 -61,29 -16,0 -28,-5 -37,-14 -9,-9 -14,-21 -14,-37 0,-22 8,-41 25,-57 17,-15 39,-23 65,-24z"/>
 </g>
</svg>
