<svg xmlns="http://www.w3.org/2000/svg" xmlns:xlink="http://www.w3.org/1999/xlink" id="Layer_7" x="0" y="0" enable-background="new 0 0 288.216 288.216" version="1.1" viewBox="0 0 288.216 288.216" xml:space="preserve"><path fill="#FFF" fill-rule="evenodd" d="M0.108,168.221c0.576,0.4,1.133,0.819,1.672,1.258	c0.095,0.096,0.189,0.193,0.281,0.291c2.907,3.138,5.2,6.477,6.861,10.017c1.785,4.762,3.027,10.956,3.72,18.581	c0.434,6.678,0.656,15.408,0.656,26.2c0,8.268,0.431,15.519,1.293,21.756c0.233,2.112,0.499,4.026,0.797,5.745	c0.985,5.91,3.016,11.143,6.091,15.663c4.373,6.749,10.743,11.729,19.148,14.906c0.353,0.133,0.712,0.263,1.076,0.391	c1.346,0.51,2.738,0.976,4.175,1.397c8.057,2.365,19.37,3.59,33.936,3.675l126.955,0.006c15.357,0,27.215-1.227,35.572-3.681	c1.44-0.423,2.835-0.89,4.184-1.401c0.36-0.127,0.715-0.256,1.065-0.387c8.387-3.171,14.747-8.136,19.119-14.862	c3.092-4.53,5.132-9.778,6.12-15.707c0.3-1.726,0.566-3.652,0.8-5.775c0.859-6.23,1.289-13.471,1.289-21.726	c0-10.78,0.221-19.504,0.654-26.179c0.693-7.642,1.937-13.846,3.726-18.613c1.661-3.535,3.951-6.871,6.855-10.006	c0.089-0.095,0.18-0.189,0.272-0.282c0.543-0.442,1.103-0.864,1.683-1.267v-0.209v-47.809v-0.208	c-0.576-0.4-1.134-0.819-1.673-1.258c-0.095-0.096-0.189-0.193-0.281-0.291c-2.907-3.138-5.2-6.477-6.861-10.017	c-1.785-4.762-3.027-10.956-3.72-18.581c-0.434-6.678-0.656-15.408-0.656-26.2c0-8.268-0.431-15.519-1.293-21.756	c-0.233-2.112-0.499-4.026-0.797-5.745c-0.985-5.91-3.016-11.143-6.091-15.663c-4.373-6.749-10.743-11.729-19.148-14.906	c-0.353-0.133-0.712-0.263-1.076-0.391c-1.346-0.51-2.738-0.976-4.175-1.398c-10.69-3.138-23.318-3.558-34.395-3.68L81.448,0.108	c-15.357,0-27.215,1.227-35.572,3.681c-1.44,0.423-2.835,0.89-4.184,1.401c-0.36,0.127-0.715,0.256-1.065,0.387	C32.24,8.748,25.88,13.714,21.507,20.44c-3.092,4.53-5.132,9.778-6.12,15.707c-0.3,1.726-0.566,3.652-0.8,5.775	c-0.859,6.23-1.289,13.471-1.289,21.726c0,10.78-0.221,19.504-0.655,26.179c-0.693,7.642-1.937,13.845-3.726,18.613	c-1.661,3.535-3.951,6.871-6.855,10.006c-0.089,0.095-0.18,0.189-0.272,0.282c-0.543,0.442-1.103,0.864-1.683,1.267v0.209v47.809	V168.221L0.108,168.221z M75.358,241.084c-4.298,4.449-9.354,7.887-15.118,10.264c-5.764,2.427-12.286,3.843-19.567,4.247	l5.814-20.022c9.91-0.607,18.202-4.904,24.876-12.893c6.623-7.989,13.095-21.842,19.416-41.612l30.943-96.572	c2.225-6.927,4.702-15.522,7.382-25.786c4.652-17.798,12.691-26.696,24.117-26.696c7.938,0,13.298,0.506,16.078,1.568	c2.831,1.011,4.247,2.831,4.247,5.41c0,2.73-1.921,8.848-5.814,18.202c-1.567,3.792-2.73,6.674-3.539,8.747l-48.286,122.409	c15.421-24.977,29.528-43.23,42.32-54.758c12.792-11.477,25.281-17.241,37.516-17.241c6.219,0,11.073,1.669,14.511,4.955	c3.489,3.337,5.208,7.938,5.208,13.853c0,6.624-5.764,24.32-17.292,53.191l-3.539,9c-2.477,5.916-4.399,11.477-5.865,16.584	c-1.416,5.157-2.123,8.798-2.123,10.972c0,3.64,1.365,6.219,4.146,7.685c2.73,1.517,8.241,2.478,16.382,2.983l-5.612,20.022h-3.387	c-16.23,0-28.112-2.174-35.696-6.522c-7.534-4.348-11.326-11.174-11.326-20.427c0-4.247,1.416-10.769,4.298-19.567	c2.882-8.798,7.23-20.022,13.045-33.623l1.163-2.832c5.056-11.326,7.584-18.05,7.584-20.123c0-1.719-0.404-2.933-1.264-3.742	c-0.809-0.758-2.124-1.163-3.893-1.163c-5.865,0-14.865,7.382-27.05,22.196c-12.185,14.814-22.904,32.814-32.056,53.949	c-1.871,4.247-3.893,9.404-6.067,15.573c-4.146,11.275-12.236,16.887-24.269,16.887c-3.944,0-6.725-0.354-8.292-1.112	c-1.567-0.759-2.376-2.073-2.376-3.944c0-0.961,0.253-2.275,0.809-3.944C73.336,245.584,74.195,243.511,75.358,241.084z" clip-rule="evenodd"/></svg>