<?xml version="1.0" standalone="no"?>
<!DOCTYPE svg PUBLIC "-//W3C//DTD SVG 20010904//EN"
 "http://www.w3.org/TR/2001/REC-SVG-20010904/DTD/svg10.dtd">
<svg version="1.0" xmlns="http://www.w3.org/2000/svg"
 width="1201.000000pt" height="1201.000000pt" viewBox="0 0 1201.000000 1201.000000"
 preserveAspectRatio="xMidYMid meet">
<metadata>
Created by potrace 1.11, written by Peter Selinger 2001-2013
</metadata>
<g transform="translate(0.000000,1201.000000) scale(0.100000,-0.100000)"
fill="#000000" stroke="none">
<path d="M5968 9225 c-2 -1 -32 -5 -68 -8 -342 -29 -679 -224 -885 -513 -112
-156 -193 -354 -220 -539 -12 -80 -14 -210 -5 -245 12 -44 62 -105 103 -126
38 -20 131 -26 166 -11 90 38 129 99 136 214 12 187 60 328 160 468 175 244
484 379 780 340 509 -67 846 -591 689 -1071 -73 -225 -219 -397 -422 -499 -70
-34 -142 -61 -189 -70 -16 -3 -39 -7 -53 -9 -14 -3 -61 -8 -105 -11 -105 -7
-159 -34 -200 -100 l-30 -48 -2 -176 c-1 -97 -2 -182 -2 -189 -1 -11 -31 -27
-165 -86 -56 -25 -1027 -447 -1222 -531 -105 -46 -211 -92 -235 -103 -24 -11
-93 -41 -154 -67 -60 -26 -134 -58 -163 -71 -29 -13 -80 -36 -115 -50 -34 -14
-81 -35 -104 -45 -24 -10 -62 -28 -85 -38 -24 -10 -221 -96 -438 -191 -217
-94 -408 -178 -425 -185 -16 -8 -192 -84 -390 -171 -952 -413 -1144 -497
-1193 -520 -29 -13 -55 -24 -57 -24 -2 0 -33 -13 -67 -29 -35 -16 -108 -48
-163 -71 -454 -193 -738 -451 -815 -740 -21 -80 -23 -93 -22 -195 2 -219 97
-432 251 -560 81 -67 216 -123 356 -146 53 -9 1313 -12 5310 -14 4937 -1 5246
0 5345 16 469 78 742 335 735 694 -6 302 -196 577 -545 787 -101 61 96 -29
-1955 885 -533 238 -598 267 -715 320 -30 14 -111 50 -180 80 -69 30 -150 66
-180 80 -30 14 -116 52 -190 85 -74 33 -160 72 -190 85 -30 14 -134 60 -230
103 -298 132 -743 330 -785 350 -22 10 -83 37 -135 60 -52 23 -178 79 -280
125 -102 45 -214 95 -250 111 -144 63 -135 55 -135 117 l-1 56 41 6 c22 3 83
20 135 37 462 148 800 558 857 1035 8 70 8 253 0 308 -45 294 -158 524 -355
722 -198 198 -432 314 -722 358 -40 6 -217 14 -222 10z m138 -2985 c25 -12
104 -47 177 -79 108 -48 587 -261 742 -331 22 -10 83 -37 135 -60 52 -23 120
-54 150 -67 30 -14 96 -43 145 -65 50 -22 108 -48 130 -58 22 -10 103 -46 180
-80 120 -53 191 -85 290 -130 11 -5 81 -36 155 -69 74 -32 167 -73 205 -91 39
-17 84 -38 100 -45 17 -7 55 -24 85 -38 30 -14 75 -34 100 -45 245 -108 513
-228 545 -243 22 -10 128 -57 235 -105 323 -143 1223 -545 1255 -559 17 -8
130 -59 252 -114 130 -57 258 -123 307 -155 141 -94 253 -220 286 -321 17 -52
15 -136 -3 -172 -41 -78 -159 -146 -317 -183 l-95 -22 -5200 -1 c-2860 0
-5222 3 -5250 7 -181 25 -245 75 -285 224 -22 85 -4 195 45 261 16 22 147 154
174 174 80 63 199 127 371 201 74 32 153 67 175 77 22 9 290 126 595 259 305
133 569 247 585 255 17 7 66 29 110 48 253 110 977 425 1214 528 152 66 296
130 321 141 25 11 96 43 159 70 63 27 129 55 145 63 27 12 697 304 781 340 17
7 50 22 75 33 25 10 115 50 200 86 85 37 175 76 199 87 24 11 105 47 180 79
75 32 165 72 201 89 79 36 89 37 146 11z"/>
</g>
</svg>
