<svg xmlns="http://www.w3.org/2000/svg" viewBox="0 0 241.78 102.69"><defs><style>.cls-1{fill:#00aeef;}.cls-1,.cls-2,.cls-3{fill-rule:evenodd;}.cls-2{fill:#f99d1c;}.cls-3{fill:#414042;}</style></defs><g id="Layer_2" data-name="Layer 2"><g id="Layer_1-2" data-name="Layer 1"><path class="cls-1" d="M53.46,72.43H32.75L46.09,37.18h-9.7L23.05,72.43H18.78v0l-.84,0a17.94,17.94,0,0,1-2.05-35.76A31,31,0,0,1,74.23,17.58L53.46,72.43Zm.41-16.07,7.26-19.18h-9.7L44.17,56.36Z"/><path class="cls-2" d="M86.52,17.18a27.63,27.63,0,1,1,0,55.25h-24L83.36,17.36A27.5,27.5,0,0,1,86.52,17.18Z"/><path class="cls-3" d="M0,102.31H5.3V93.86a13.52,13.52,0,0,0,1.82.1c3.16,0,5.86-.77,7.68-2.49A7.56,7.56,0,0,0,17,85.86a6.9,6.9,0,0,0-2.52-5.47c-1.58-1.26-3.93-1.9-7.23-1.9A43.57,43.57,0,0,0,0,79v23.32ZM5.3,82.74a8.82,8.82,0,0,1,2.21-.21c2.66,0,4.17,1.3,4.17,3.47,0,2.42-1.75,3.86-4.6,3.86a8.39,8.39,0,0,1-1.78-.14Z"/><path class="cls-3" d="M30.79,78.28c-7,0-11.5,5.3-11.5,12.38,0,6.74,4.1,12,11.12,12S42,98,42,90.24c0-6.52-4-12-11.23-12Zm-.14,4.25c3.69,0,5.72,3.65,5.72,7.89,0,4.59-2.07,8-5.68,8s-5.75-3.26-5.75-7.89S27,82.53,30.65,82.53Z"/><path class="cls-3" d="M55,102.31,57.2,92.14c.56-2.39.95-4.63,1.37-7.3h.07c.28,2.7.67,4.91,1.12,7.3l2,10.17h5.79l6.1-23.64H68.21l-1.93,9.68c-.49,2.81-1,5.58-1.36,8.21h-.07c-.35-2.63-.74-5.16-1.27-7.93l-1.89-10H56l-2,9.68c-.6,2.91-1.16,5.75-1.54,8.31H52.4c-.39-2.38-.88-5.43-1.41-8.24l-1.78-9.75H43.49l5.61,23.64Z"/><polygon class="cls-3" points="90.48 87.96 81.79 87.96 81.79 83.05 91.01 83.05 91.01 78.67 76.42 78.67 76.42 102.31 91.5 102.31 91.5 97.92 81.79 97.92 81.79 92.31 90.48 92.31 90.48 87.96"/><path class="cls-3" d="M95.15,102.31h5.29V93h1.62c2.17,0,3.19.85,3.82,3.79a29.27,29.27,0,0,0,1.65,5.51H113c-.46-.91-1.19-4-1.93-6.67-.6-2.17-1.51-3.75-3.16-4.41v-.11a6.28,6.28,0,0,0,4.18-5.82,6,6,0,0,0-2.18-5c-1.68-1.33-4.13-1.86-7.64-1.86a46.9,46.9,0,0,0-7.12.5v23.32Zm5.29-19.68a13.67,13.67,0,0,1,2.42-.17c2.46,0,3.93,1.12,3.93,3.29s-1.58,3.41-4.24,3.41h-2.11Z"/><path class="cls-3" d="M123,102.31h5.3V94.59l2-2.49,5.79,10.21h6.24l-8.24-13.57L142,78.67h-6.56L130,86.53c-.52.84-1.08,1.68-1.61,2.59h-.1V78.67H123Z"/><polygon class="cls-3" points="158.63 87.96 149.93 87.96 149.93 83.05 159.15 83.05 159.15 78.67 144.56 78.67 144.56 102.31 159.65 102.31 159.65 97.92 149.93 97.92 149.93 92.31 158.63 92.31 158.63 87.96"/><path class="cls-3" d="M163.29,102.31h5.3V93h1.61c2.18,0,3.19.85,3.82,3.79a31,31,0,0,0,1.65,5.51h5.47c-.45-.91-1.19-4-1.93-6.67-.59-2.17-1.5-3.75-3.15-4.41v-.11a6.28,6.28,0,0,0,4.17-5.82,6,6,0,0,0-2.17-5c-1.69-1.33-4.14-1.86-7.65-1.86a46.9,46.9,0,0,0-7.12.5v23.32Zm5.3-19.68a13.47,13.47,0,0,1,2.42-.17c2.45,0,3.93,1.12,3.93,3.29s-1.58,3.41-4.25,3.41h-2.1Z"/><path class="cls-3" d="M189,102.31V95.19c0-3.86-.07-7.19-.21-10.31l.1,0A89.91,89.91,0,0,0,193,93.19l5.05,9.12h5.61V78.67h-4.91v6.91a85.46,85.46,0,0,0,.46,9.85h-.11a67.48,67.48,0,0,0-3.86-8.1l-4.91-8.66h-6.24v23.64Z"/><polygon class="cls-3" points="222.35 87.96 213.66 87.96 213.66 83.05 222.88 83.05 222.88 78.67 208.29 78.67 208.29 102.31 223.37 102.31 223.37 97.92 213.66 97.92 213.66 92.31 222.35 92.31 222.35 87.96"/><polygon class="cls-3" points="227.02 102.31 241.78 102.31 241.78 97.82 232.38 97.82 232.38 78.67 227.02 78.67 227.02 102.31"/></g></g></svg>
