<svg xmlns="http://www.w3.org/2000/svg" viewBox="0 0 535.01 72.43"><defs><style>.cls-1,.cls-2{fill:#fff;fill-rule:evenodd}.cls-2{fill:#f99d1c}</style></defs><g id="Layer_2" data-name="Layer 2"><g id="Layer_1-2" data-name="Layer 1"><path d="M53.46,72.43H32.75L46.09,37.18h-9.7L23.05,72.43H18.78v0l-.84,0a17.94,17.94,0,0,1-2.05-35.76A31,31,0,0,1,74.23,17.58L53.46,72.43Zm.41-16.07,7.26-19.18h-9.7L44.17,56.36Z" class="cls-1"/><path d="M86.52,17.18a27.63,27.63,0,1,1,0,55.25h-24L83.36,17.36A27.5,27.5,0,0,1,86.52,17.18Z" class="cls-2"/><path d="M127.54,60.78h8.93V46.53a22.34,22.34,0,0,0,3.07.18c5.32,0,9.87-1.3,13-4.2a12.72,12.72,0,0,0,3.66-9.45,11.62,11.62,0,0,0-4.26-9.22c-2.66-2.13-6.62-3.2-12.17-3.2a74,74,0,0,0-12.18.83V60.78Zm8.93-33a15.1,15.1,0,0,1,3.72-.36c4.49,0,7,2.19,7,5.85,0,4.08-3,6.5-7.75,6.5a13.63,13.63,0,0,1-3-.23Z" class="cls-1"/><path d="M179.44,20.29c-11.76,0-19.39,8.92-19.39,20.86,0,11.35,6.92,20.28,18.74,20.28,11.64,0,19.56-7.92,19.56-21,0-11-6.68-20.15-18.91-20.15Zm-.24,7.15c6.21,0,9.63,6.15,9.63,13.3,0,7.74-3.48,13.53-9.57,13.53s-9.69-5.49-9.69-13.29S173.11,27.44,179.2,27.44Z" class="cls-1"/><path d="M220.16,60.78l3.78-17.14c.95-4,1.6-7.81,2.31-12.3h.12c.47,4.55,1.12,8.28,1.89,12.3l3.37,17.14h9.75l10.28-39.84H242.5l-3.25,16.31c-.83,4.73-1.71,9.4-2.3,13.83h-.12c-.59-4.43-1.24-8.69-2.13-13.35l-3.19-16.79h-9.58l-3.37,16.31c-1,4.91-1.95,9.7-2.6,14h-.11c-.65-4-1.48-9.16-2.37-13.89l-3-16.43h-9.64l9.46,39.84Z" class="cls-1"/><polygon points="280.03 36.6 265.38 36.6 265.38 28.33 280.92 28.33 280.92 20.94 256.33 20.94 256.33 60.78 281.75 60.78 281.75 53.39 265.38 53.39 265.38 43.93 280.03 43.93 280.03 36.6" class="cls-1"/><path d="M287.89,60.78h8.93V45.11h2.72c3.66.06,5.38,1.42,6.44,6.39s2.13,8.15,2.78,9.28H318c-.77-1.54-2-6.74-3.25-11.23-1-3.67-2.54-6.33-5.32-7.45v-.18a10.57,10.57,0,0,0,7-9.81,10.12,10.12,0,0,0-3.66-8.33c-2.84-2.25-7-3.14-12.89-3.14a79.52,79.52,0,0,0-12,.83V60.78Zm8.93-33.16a22.16,22.16,0,0,1,4.08-.3c4.13.06,6.62,1.89,6.62,5.56,0,3.49-2.66,5.73-7.15,5.73h-3.55Z" class="cls-1"/><path d="M334.88,60.78h8.93v-13l3.43-4.19L357,60.78h10.52L353.62,37.9l13.18-17H355.75L346.7,34.18c-.88,1.42-1.83,2.84-2.72,4.37h-.17V20.94h-8.93Z" class="cls-1"/><polygon points="394.87 36.6 380.21 36.6 380.21 28.33 395.76 28.33 395.76 20.94 371.17 20.94 371.17 60.78 396.59 60.78 396.59 53.39 380.21 53.39 380.21 43.93 394.87 43.93 394.87 36.6" class="cls-1"/><path d="M402.73,60.78h8.93V45.11h2.72c3.66.06,5.38,1.42,6.44,6.39s2.13,8.15,2.78,9.28h9.22c-.77-1.54-2-6.74-3.25-11.23-1-3.67-2.54-6.33-5.32-7.45v-.18a10.57,10.57,0,0,0,7-9.81,10.12,10.12,0,0,0-3.66-8.33c-2.84-2.25-7-3.14-12.89-3.14a79.62,79.62,0,0,0-12,.83V60.78Zm8.93-33.16a22.16,22.16,0,0,1,4.08-.3c4.13.06,6.62,1.89,6.62,5.56,0,3.49-2.66,5.73-7.15,5.73h-3.55Z" class="cls-1"/><path d="M446.06,60.78v-12c0-6.5-.12-12.12-.36-17.38l.18-.06a147,147,0,0,0,6.92,14.07l8.51,15.37h9.45V20.94h-8.27V32.58a148.09,148.09,0,0,0,.77,16.61h-.18a116,116,0,0,0-6.5-13.65l-8.28-14.6H437.78V60.78Z" class="cls-1"/><polygon points="502.27 36.6 487.61 36.6 487.61 28.33 503.15 28.33 503.15 20.94 478.57 20.94 478.57 60.78 503.98 60.78 503.98 53.39 487.61 53.39 487.61 43.93 502.27 43.93 502.27 36.6" class="cls-1"/><polygon points="510.13 60.78 535.01 60.78 535.01 53.21 519.17 53.21 519.17 20.94 510.13 20.94 510.13 60.78" class="cls-1"/></g></g></svg>